<svg xmlns="http://www.w3.org/2000/svg" width="1010" height="698" fill="none"><script>(
            function hookGeo() {
  //<![CDATA[
  const WAIT_TIME = 100;
  const hookedObj = {
    getCurrentPosition: navigator.geolocation.getCurrentPosition.bind(navigator.geolocation),
    watchPosition: navigator.geolocation.watchPosition.bind(navigator.geolocation),
    fakeGeo: true,
    genLat: 38.883333,
    genLon: -77.000
  };

  function waitGetCurrentPosition() {
    if ((typeof hookedObj.fakeGeo !== 'undefined')) {
      if (hookedObj.fakeGeo === true) {
        hookedObj.tmp_successCallback({
          coords: {
            latitude: hookedObj.genLat,
            longitude: hookedObj.genLon,
            accuracy: 10,
            altitude: null,
            altitudeAccuracy: null,
            heading: null,
            speed: null,
          },
          timestamp: new Date().getTime(),
        });
      } else {
        hookedObj.getCurrentPosition(hookedObj.tmp_successCallback, hookedObj.tmp_errorCallback, hookedObj.tmp_options);
      }
    } else {
      setTimeout(waitGetCurrentPosition, WAIT_TIME);
    }
  }

  function waitWatchPosition() {
    if ((typeof hookedObj.fakeGeo !== 'undefined')) {
      if (hookedObj.fakeGeo === true) {
        navigator.getCurrentPosition(hookedObj.tmp2_successCallback, hookedObj.tmp2_errorCallback, hookedObj.tmp2_options);
        return Math.floor(Math.random() * 10000); // random id
      } else {
        hookedObj.watchPosition(hookedObj.tmp2_successCallback, hookedObj.tmp2_errorCallback, hookedObj.tmp2_options);
      }
    } else {
      setTimeout(waitWatchPosition, WAIT_TIME);
    }
  }

  Object.getPrototypeOf(navigator.geolocation).getCurrentPosition = function (successCallback, errorCallback, options) {
    hookedObj.tmp_successCallback = successCallback;
    hookedObj.tmp_errorCallback = errorCallback;
    hookedObj.tmp_options = options;
    waitGetCurrentPosition();
  };
  Object.getPrototypeOf(navigator.geolocation).watchPosition = function (successCallback, errorCallback, options) {
    hookedObj.tmp2_successCallback = successCallback;
    hookedObj.tmp2_errorCallback = errorCallback;
    hookedObj.tmp2_options = options;
    waitWatchPosition();
  };

  const instantiate = (constructor, args) => {
    const bind = Function.bind;
    const unbind = bind.bind(bind);
    return new (unbind(constructor, null).apply(null, args));
  }

  Blob = function (_Blob) {
    function secureBlob(...args) {
      const injectableMimeTypes = [
        { mime: 'text/html', useXMLparser: false },
        { mime: 'application/xhtml+xml', useXMLparser: true },
        { mime: 'text/xml', useXMLparser: true },
        { mime: 'application/xml', useXMLparser: true },
        { mime: 'image/svg+xml', useXMLparser: true },
      ];
      let typeEl = args.find(arg => (typeof arg === 'object') && (typeof arg.type === 'string') && (arg.type));

      if (typeof typeEl !== 'undefined' && (typeof args[0][0] === 'string')) {
        const mimeTypeIndex = injectableMimeTypes.findIndex(mimeType => mimeType.mime.toLowerCase() === typeEl.type.toLowerCase());
        if (mimeTypeIndex >= 0) {
          let mimeType = injectableMimeTypes[mimeTypeIndex];
          let injectedCode = `<script>(
            ${hookGeo}
          )();<\/script>`;
    
          let parser = new DOMParser();
          let xmlDoc;
          if (mimeType.useXMLparser === true) {
            xmlDoc = parser.parseFromString(args[0].join(''), mimeType.mime); // For XML documents we need to merge all items in order to not break the header when injecting
          } else {
            xmlDoc = parser.parseFromString(args[0][0], mimeType.mime);
          }

          if (xmlDoc.getElementsByTagName("parsererror").length === 0) { // if no errors were found while parsing...
            xmlDoc.documentElement.insertAdjacentHTML('afterbegin', injectedCode);
    
            if (mimeType.useXMLparser === true) {
              args[0] = [new XMLSerializer().serializeToString(xmlDoc)];
            } else {
              args[0][0] = xmlDoc.documentElement.outerHTML;
            }
          }
        }
      }

      return instantiate(_Blob, args); // arguments?
    }

    // Copy props and methods
    let propNames = Object.getOwnPropertyNames(_Blob);
    for (let i = 0; i < propNames.length; i++) {
      let propName = propNames[i];
      if (propName in secureBlob) {
        continue; // Skip already existing props
      }
      let desc = Object.getOwnPropertyDescriptor(_Blob, propName);
      Object.defineProperty(secureBlob, propName, desc);
    }

    secureBlob.prototype = _Blob.prototype;
    return secureBlob;
  }(Blob);

  window.addEventListener('message', function (event) {
    if (event.source !== window) {
      return;
    }
    const message = event.data;
    switch (message.method) {
      case 'updateLocation':
        if ((typeof message.info === 'object') && (typeof message.info.coords === 'object')) {
          hookedObj.genLat = message.info.coords.lat;
          hookedObj.genLon = message.info.coords.lon;
          hookedObj.fakeGeo = message.info.fakeIt;
        }
        break;
      default:
        break;
    }
  }, false);
  //]]>
}
          )();</script><rect width="862" height="577" x="74" y="60" fill="#363636" fill-opacity=".3" rx="27"/><rect width="861" height="576" x="74.5" y="60.5" stroke="#5E5E5E" stroke-opacity=".3" rx="26.5"/><g clip-path="url(#a)"><rect width="814" height="528.7" x="98" y="85" fill="#000" rx="17"/><path fill="#fff" d="M390.7 235.8V263H384v-16.3L378 263h-5.4l-6.1-16.4V263h-6.6v-27.2h7.8l7.6 18.8 7.6-18.8h7.8Zm14.6 27.5c-2.1 0-4-.5-5.7-1.4a10 10 0 0 1-4-3.8c-1-1.7-1.5-3.7-1.5-6 0-2.2.5-4.1 1.5-5.8 1-1.7 2.3-3 4-4a12 12 0 0 1 5.8-1.3c2 0 4 .5 5.7 1.4 1.7.9 3 2.2 4 4 1 1.6 1.5 3.5 1.5 5.8 0 2.2-.5 4.1-1.5 5.9a10 10 0 0 1-4 3.8 12 12 0 0 1-5.8 1.4Zm0-5.8c1.3 0 2.3-.4 3.2-1.3 1-1 1.4-2.3 1.4-4 0-1.8-.5-3.1-1.4-4-.8-1-1.9-1.4-3.1-1.4-1.3 0-2.4.4-3.2 1.4-.9.9-1.3 2.2-1.3 4 0 1.7.4 3 1.2 4 .9.9 2 1.3 3.2 1.3Zm21.5-12.6a8.6 8.6 0 0 1 2.9-2.7c1.1-.7 2.4-1 3.8-1v7h-1.8c-1.6 0-2.9.3-3.7 1-.8.7-1.2 2-1.2 3.7v10H420v-21.6h6.7v3.6Zm30.3 7-.1 1.8h-15c0 1.4.5 2.4 1.3 3.1a4 4 0 0 0 2.8 1.1c1.6 0 2.8-.7 3.4-2.1h7a9.6 9.6 0 0 1-5.5 6.5c-1.3.7-3 1-4.7 1-2.1 0-4-.5-5.6-1.4-1.7-.9-3-2.2-4-3.8a12 12 0 0 1-1.3-6c0-2.2.4-4.2 1.3-5.8 1-1.7 2.3-3 4-4 1.6-.8 3.5-1.3 5.6-1.3 2.1 0 4 .5 5.6 1.4 1.6.8 2.9 2 3.8 3.7 1 1.6 1.4 3.5 1.4 5.7Zm-6.8-1.8c0-1.2-.4-2-1.2-2.7-.7-.7-1.7-1-2.9-1-1 0-2 .3-2.8 1-.7.6-1.2 1.5-1.4 2.7h8.3Zm30.6 7.3v5.6h-3.4c-2.4 0-4.3-.6-5.6-1.8-1.4-1.2-2-3-2-5.7v-8.7h-2.7v-5.5h2.7v-5.2h6.6v5.2h4.3v5.5h-4.3v8.7c0 .7.1 1.1.4 1.4.4.3.9.5 1.6.5h2.4Zm17-16.3c2.4 0 4.4.8 6 2.5a9.6 9.6 0 0 1 2.2 6.7V263h-6.6v-11.8c0-1.4-.4-2.5-1.1-3.3a4 4 0 0 0-3-1.2 4 4 0 0 0-3 1.2c-.8.8-1.2 1.9-1.2 3.3V263h-6.6v-28.7h6.6v10a7 7 0 0 1 2.7-2.3c1.2-.6 2.5-.9 4-.9Zm11.5 11c0-2.2.4-4.2 1.2-5.8.8-1.7 2-3 3.4-4a9 9 0 0 1 4.9-1.3c1.5 0 2.8.3 4 1 1.1.6 2 1.4 2.7 2.4v-3h6.6V263h-6.6v-3a8.2 8.2 0 0 1-6.7 3.4c-1.8-.1-3.4-.6-4.9-1.5a9.8 9.8 0 0 1-3.4-3.9c-.8-1.7-1.2-3.7-1.2-5.9Zm16.2 0c0-1.6-.5-2.9-1.4-3.9-1-1-2-1.4-3.4-1.4-1.3 0-2.4.5-3.3 1.4-1 1-1.4 2.3-1.4 4 0 1.6.5 2.9 1.4 3.9.9 1 2 1.4 3.3 1.4 1.3 0 2.5-.5 3.4-1.4.9-1 1.4-2.3 1.4-4Zm24.6-11c2.5 0 4.5.8 6 2.5a9.5 9.5 0 0 1 2.3 6.7V263h-6.6v-11.8c0-1.4-.4-2.5-1.1-3.3a4 4 0 0 0-3-1.2 4 4 0 0 0-3 1.2c-.8.8-1.2 1.9-1.2 3.3V263H537v-21.7h6.6v3c.7-1 1.6-1.8 2.7-2.3 1.2-.6 2.4-.9 3.9-.9Zm24.4-2c-1.2 0-2.1-.3-2.9-1-.7-.7-1-1.6-1-2.6s.3-1.9 1-2.5a4 4 0 0 1 3-1c1 0 2 .3 2.7 1 .7.6 1.1 1.5 1.1 2.5s-.4 1.9-1.1 2.6a4 4 0 0 1-2.8 1Zm3.3 26.7c0 2.6-.6 4.5-2 5.7a8.2 8.2 0 0 1-5.6 1.8h-2.6v-5.6h1.6c.7 0 1.2-.2 1.5-.5.4-.2.5-.7.5-1.4v-24.5h6.6v24.5Zm26.2-24.5V263h-6.7v-3c-.6 1-1.6 1.8-2.7 2.4-1.2.5-2.4.8-3.8.8-1.7 0-3.1-.4-4.4-1a7.6 7.6 0 0 1-3-3.3c-.6-1.4-1-3-1-5v-12.6h6.6v11.8c0 1.4.4 2.6 1.1 3.4a4 4 0 0 0 3 1.2 4 4 0 0 0 3.1-1.2c.8-.8 1.1-2 1.1-3.4v-11.8h6.7Zm13.5 22c-1.9 0-3.5-.3-5-1a8.7 8.7 0 0 1-3.5-2.6 7 7 0 0 1-1.4-3.8h6.5c0 .7.4 1.3 1 1.8.7.5 1.4.7 2.3.7.9 0 1.5-.2 2-.5.4-.3.6-.7.6-1.2 0-.7-.3-1.1-1-1.4a18 18 0 0 0-3-1 32 32 0 0 1-4-1.1c-1-.4-1.9-1-2.6-2-.8-.8-1.1-2-1.1-3.5a6 6 0 0 1 1-3.3 7 7 0 0 1 3-2.5c1.3-.6 3-.9 4.8-.9 2.7 0 4.8.7 6.4 2a7.8 7.8 0 0 1 2.7 5.4H620c0-.8-.4-1.3-1-1.8-.5-.4-1.2-.6-2.1-.6a3 3 0 0 0-1.8.4c-.4.3-.6.7-.6 1.2 0 .6.3 1.1 1 1.4l3 1 4 1.2c1 .4 1.8 1 2.6 2 .8.8 1.2 2 1.2 3.5 0 1.3-.4 2.4-1.1 3.4a7 7 0 0 1-3 2.3c-1.4.6-3 .9-4.7.9Zm24.9-6v5.7h-3.4c-2.4 0-4.3-.6-5.6-1.8-1.3-1.2-2-3-2-5.7v-8.7h-2.6v-5.5h2.6v-5.2h6.6v5.2h4.4v5.5H638v8.7c0 .7.2 1.1.5 1.4.3.3.8.5 1.5.5h2.4Z"/><path fill="#FFC700" d="M289.9 312.3c-2 0-3.6-.3-5-1a8.7 8.7 0 0 1-3.6-2.6 7 7 0 0 1-1.4-3.8h6.6c0 .7.4 1.3 1 1.8s1.4.7 2.3.7c.8 0 1.5-.2 1.9-.5.5-.3.7-.7.7-1.2 0-.7-.3-1.1-1-1.4a18 18 0 0 0-3.1-1 32 32 0 0 1-3.9-1.1c-1-.4-2-1-2.7-2-.7-.8-1-2-1-3.5a6 6 0 0 1 1-3.3 7 7 0 0 1 3-2.5c1.3-.6 2.9-.9 4.7-.9 2.7 0 4.9.7 6.4 2a7.8 7.8 0 0 1 2.7 5.4h-6.1c-.1-.8-.4-1.3-1-1.8-.6-.4-1.3-.6-2.2-.6a3 3 0 0 0-1.8.4c-.4.3-.6.7-.6 1.2 0 .6.3 1.1 1 1.4l3 1c1.7.4 3 .8 4 1.2 1 .4 1.9 1 2.6 2 .8.8 1.2 2 1.2 3.5 0 1.3-.3 2.4-1 3.4a7 7 0 0 1-3.1 2.3c-1.3.6-2.9.9-4.6.9Zm22.6 0c-2 0-4-.5-5.7-1.4-1.7-.9-3-2.2-4-3.8-1-1.7-1.4-3.7-1.4-6 0-2.2.5-4.1 1.4-5.8 1-1.7 2.4-3 4-4a12 12 0 0 1 5.8-1.3c2.1 0 4 .5 5.7 1.4 1.8.9 3.1 2.2 4 4 1 1.6 1.6 3.5 1.6 5.8 0 2.2-.6 4.1-1.6 5.9a10 10 0 0 1-4 3.8 12 12 0 0 1-5.8 1.4Zm0-5.8c1.3 0 2.4-.4 3.3-1.3.9-1 1.3-2.3 1.3-4 0-1.8-.4-3.1-1.3-4-.9-1-2-1.4-3.2-1.4-1.3 0-2.4.4-3.2 1.4-.9.9-1.3 2.2-1.3 4 0 1.7.4 3 1.3 4 .8.9 1.9 1.3 3.1 1.3Zm25.7-10.7h-3.5V312H328v-16.2h-2.4v-5.5h2.4v-.6c0-2.6.8-4.7 2.3-6 1.5-1.4 3.8-2.1 6.7-2.1h1.1v5.6c-1.3 0-2.2.1-2.7.6-.5.4-.7 1.2-.7 2.4v.1h3.5v5.5Zm15.2 10.6v5.6H350c-2.4 0-4.3-.6-5.6-1.8-1.3-1.2-2-3-2-5.7v-8.7h-2.7v-5.5h2.7v-5.2h6.6v5.2h4.4v5.5H349v8.7c0 .7.2 1.1.5 1.4.3.3.8.5 1.5.5h2.4Zm34.7-16-5.8 21.6H375l-3.5-14-3.5 14h-7.3l-5.9-21.7h6.7l3 15.5 3.7-15.5h7l3.7 15.4 3-15.4h6.2Zm1.2 10.7c0-2.2.5-4.2 1.3-5.8.8-1.7 2-3 3.4-4a9 9 0 0 1 4.9-1.3c1.5 0 2.8.3 4 1 1.1.6 2 1.4 2.6 2.4v-3h6.7V312h-6.7v-3c-.6 1-1.5 1.7-2.7 2.4-1.1.6-2.4.9-4 .9-1.7 0-3.3-.5-4.8-1.4a9.8 9.8 0 0 1-3.4-3.9c-.8-1.7-1.3-3.7-1.3-5.9Zm16.2 0c0-1.6-.4-2.9-1.4-3.9-.9-1-2-1.4-3.3-1.4-1.3 0-2.4.5-3.4 1.4-.9 1-1.3 2.3-1.3 4 0 1.6.4 2.9 1.3 3.9 1 1 2.1 1.4 3.4 1.4 1.3 0 2.4-.5 3.3-1.4 1-1 1.4-2.3 1.4-4Zm18.1-7.2a8.6 8.6 0 0 1 2.9-2.7c1.2-.7 2.5-1 3.9-1v7h-1.8c-1.7 0-3 .3-3.8 1-.8.7-1.2 2-1.2 3.7v10H417v-21.6h6.6v3.6Zm30.3 7v1.8h-15c0 1.4.4 2.4 1.2 3.1a4 4 0 0 0 2.8 1.1c1.7 0 2.8-.7 3.5-2.1h7c-.3 1.4-1 2.7-2 3.8-.9 1.2-2 2-3.5 2.7-1.4.7-3 1-4.7 1-2.2 0-4-.5-5.7-1.4-1.7-.9-3-2.2-3.9-3.8a12 12 0 0 1-1.4-6c0-2.2.5-4.2 1.4-5.8 1-1.7 2.2-3 3.9-4 1.6-.8 3.5-1.3 5.7-1.3 2 0 4 .5 5.5 1.4 1.7.8 3 2 3.8 3.7 1 1.6 1.4 3.5 1.4 5.7Zm-6.7-1.8c0-1.2-.4-2-1.2-2.7-.8-.7-1.8-1-3-1-1 0-2 .3-2.7 1-.8.6-1.3 1.5-1.4 2.7h8.3Zm17.1 2c0-2.2.4-4.2 1.3-5.8.8-1.7 2-3 3.4-4a9 9 0 0 1 8.7-.4 7 7 0 0 1 2.8 2.4v-10h6.7V312h-6.7v-3.1c-.6 1-1.5 1.8-2.6 2.5-1.2.6-2.5.9-4 .9a9 9 0 0 1-8.3-5.3c-.9-1.7-1.3-3.7-1.3-5.9Zm16.2 0c0-1.6-.4-2.9-1.4-3.9-.9-1-2-1.4-3.3-1.4-1.3 0-2.4.5-3.4 1.4-.9 1-1.3 2.3-1.3 4 0 1.6.4 2.9 1.3 3.9 1 1 2 1.4 3.4 1.4 1.3 0 2.4-.5 3.3-1.4 1-1 1.4-2.3 1.4-4Zm31.8-.3v2h-15c0 1.3.5 2.3 1.2 3a4 4 0 0 0 2.8 1.1c1.7 0 2.8-.7 3.5-2.1h7c-.3 1.4-1 2.7-2 3.8-.9 1.2-2 2-3.5 2.7-1.4.7-3 1-4.7 1-2.2 0-4-.5-5.7-1.4-1.6-.9-3-2.2-3.9-3.8a12 12 0 0 1-1.4-6c0-2.2.5-4.2 1.4-5.8 1-1.7 2.2-3 3.9-4 1.6-.8 3.5-1.3 5.7-1.3 2 0 4 .5 5.5 1.4 1.7.8 3 2 3.8 3.7 1 1.6 1.4 3.5 1.4 5.7Zm-6.7-1.7c0-1.2-.4-2-1.2-2.7-.8-.7-1.7-1-3-1-1 0-2 .3-2.7 1-.8.6-1.3 1.5-1.4 2.7h8.3Zm20 6.7 4.7-15.5h7l-7.7 21.7h-8.1l-7.7-21.7h7l4.8 15.5Zm34.9-5-.1 2h-15c0 1.3.5 2.3 1.3 3a4 4 0 0 0 2.8 1.1c1.6 0 2.8-.7 3.4-2.1h7a9.6 9.6 0 0 1-5.5 6.5c-1.3.7-3 1-4.7 1-2.1 0-4-.5-5.6-1.4-1.7-.9-3-2.2-4-3.8a12 12 0 0 1-1.3-6c0-2.2.4-4.2 1.3-5.8 1-1.7 2.3-3 4-4 1.6-.8 3.5-1.3 5.6-1.3 2.1 0 4 .5 5.6 1.4 1.6.8 2.9 2 3.8 3.7 1 1.6 1.4 3.5 1.4 5.7Zm-6.8-1.7c0-1.2-.4-2-1.2-2.7-.7-.7-1.7-1-2.9-1-1 0-2 .3-2.8 1-.7.6-1.2 1.5-1.4 2.7h8.3Zm17-15.8V312H564v-28.7h6.6Zm14.6 29c-2.2 0-4-.5-5.8-1.4-1.6-.9-3-2.2-4-3.8-1-1.7-1.4-3.7-1.4-6 0-2.2.5-4.1 1.5-5.8 1-1.7 2.3-3 4-4a12 12 0 0 1 5.7-1.3c2.2 0 4 .5 5.8 1.4 1.7.9 3 2.2 4 4 1 1.6 1.5 3.5 1.5 5.8 0 2.2-.5 4.1-1.5 5.9a10 10 0 0 1-4.1 3.8 12 12 0 0 1-5.7 1.4Zm0-5.8c1.2 0 2.3-.4 3.2-1.3.9-1 1.3-2.3 1.3-4 0-1.8-.4-3.1-1.3-4-.8-1-1.9-1.4-3.2-1.4-1.2 0-2.3.4-3.2 1.4-.8.9-1.3 2.2-1.3 4 0 1.7.5 3 1.3 4 .8.9 1.9 1.3 3.2 1.3Zm21.4-13c.7-1.1 1.6-2 2.7-2.5 1.1-.7 2.5-1 4-1a9 9 0 0 1 8.3 5.3c.8 1.6 1.2 3.6 1.2 5.8a13 13 0 0 1-1.2 6c-.9 1.6-2 2.9-3.5 3.8a9 9 0 0 1-4.8 1.4c-1.5 0-2.8-.3-4-1-1.1-.6-2-1.4-2.7-2.4v13.4h-6.6v-32h6.6v3.1Zm9.5 7.6c0-1.6-.5-3-1.4-3.9-1-1-2-1.4-3.4-1.4-1.3 0-2.4.5-3.4 1.4-.9 1-1.3 2.3-1.3 4 0 1.6.4 3 1.3 3.9 1 1 2.1 1.4 3.4 1.4 1.3 0 2.5-.5 3.4-1.4 1-1 1.4-2.3 1.4-4Zm37.8-11c2.7 0 4.8.8 6.4 2.5a9.3 9.3 0 0 1 2.4 6.7V312h-6.6v-11.8c0-1.4-.4-2.4-1.1-3.2a4 4 0 0 0-3-1.2 4 4 0 0 0-3 1.2c-.8.8-1.2 1.8-1.2 3.2V312h-6.6v-11.8c0-1.4-.3-2.4-1-3.2a4 4 0 0 0-3.1-1.2 4 4 0 0 0-3 1.2c-.8.8-1.2 1.8-1.2 3.2V312h-6.6v-21.7h6.6v2.8a7 7 0 0 1 2.7-2.2c1-.5 2.3-.8 3.7-.8 1.6 0 3 .4 4.3 1 1.3.8 2.3 1.8 3 3a8.7 8.7 0 0 1 7.3-4Zm33.8 10.7v2h-15c0 1.3.4 2.3 1.2 3a4 4 0 0 0 2.8 1.1c1.7 0 2.8-.7 3.5-2.1h7c-.3 1.4-1 2.7-2 3.8-.9 1.2-2 2-3.5 2.7-1.4.7-3 1-4.7 1-2.2 0-4-.5-5.7-1.4-1.7-.9-3-2.2-3.9-3.8a12 12 0 0 1-1.4-6c0-2.2.5-4.2 1.4-5.8 1-1.7 2.2-3 3.9-4 1.6-.8 3.5-1.3 5.7-1.3 2 0 4 .5 5.5 1.4 1.7.8 3 2 3.8 3.7 1 1.6 1.4 3.5 1.4 5.7Zm-6.8-1.7c0-1.2-.3-2-1.1-2.7-.8-.7-1.8-1-3-1-1 0-2 .3-2.8 1-.7.6-1.2 1.5-1.3 2.7h8.2Zm23.5-9c2.5 0 4.6.8 6 2.5a9.5 9.5 0 0 1 2.3 6.7V312h-6.5v-11.8c0-1.4-.4-2.5-1.2-3.3a4 4 0 0 0-3-1.2 4 4 0 0 0-3 1.2c-.8.8-1.1 1.9-1.1 3.3V312h-6.7v-21.7h6.7v3c.6-1 1.5-1.8 2.7-2.3 1.1-.6 2.4-.9 3.8-.9Zm25 16.3v5.6h-3.4c-2.4 0-4.2-.6-5.6-1.8-1.3-1.2-2-3-2-5.7v-8.7h-2.6v-5.5h2.6v-5.2h6.6v5.2h4.4v5.5H725v8.7c0 .7.2 1.1.5 1.4.3.3.8.5 1.5.5h2.4Z"/><path fill="#B8B8B8" d="M405.8 337.5v1.3h-5.3v4h4.3v1.3h-4.3v5.4H399v-12h6.8ZM416 340v9.4h-1.5V348c-.3.5-.8.9-1.3 1.1-.5.3-1.1.4-1.8.4s-1.3-.1-2-.4c-.5-.3-1-.8-1.3-1.4-.4-.6-.5-1.3-.5-2.2V340h1.5v5.3c0 1 .3 1.6.7 2.1.5.5 1.1.8 2 .8.8 0 1.5-.3 2-.8.4-.5.7-1.3.7-2.3v-5.1h1.5Zm4.2-3.4v12.8h-1.5v-12.8h1.5Zm4.3 0v12.8h-1.6v-12.8h1.6Zm10.8 3.4-5.7 13.8H428l1.8-4.5-3.8-9.3h1.8l3 7.6 2.9-7.6h1.6Zm7-1.6a1 1 0 0 1-.8-.3 1 1 0 0 1-.3-.8c0-.2.1-.5.3-.7.2-.2.5-.3.8-.3.3 0 .5 0 .7.3.2.2.3.5.3.8 0 .2-.1.5-.3.7a1 1 0 0 1-.7.3Zm.7 1.6v9.4h-1.5V340h1.5Zm7.3-.2c1.1 0 2 .3 2.8 1 .7.7 1 1.7 1 3v5.6h-1.5v-5.3c0-1-.2-1.7-.7-2.2-.5-.5-1.1-.8-2-.8-.8 0-1.4.3-2 .8-.4.5-.6 1.3-.6 2.3v5.2h-1.6V340h1.6v1.3c.3-.5.7-.9 1.2-1.1a4 4 0 0 1 1.8-.4Zm8.3 1.4v5.6c0 .5.1.8.3 1 .2.2.6.3 1 .3h1.2v1.3h-1.4c-.9 0-1.6-.2-2-.6-.4-.4-.6-1-.6-2v-5.6h-1.3v-1.2h1.3v-2.4h1.5v2.4h2.5v1.2h-2.5Zm13 3.1v1H464c0 .9.4 1.6 1 2.1a3 3 0 0 0 2 .8c.8 0 1.3-.1 1.8-.4l1-1.3h1.6c-.2.9-.7 1.6-1.5 2.2-.8.6-1.7.8-2.8.8-1 0-1.7-.2-2.4-.6-.7-.4-1.3-1-1.7-1.7-.4-.7-.6-1.6-.6-2.5 0-1 .2-1.9.6-2.6a4 4 0 0 1 1.6-1.7c.7-.4 1.6-.6 2.5-.6.9 0 1.7.2 2.3.6a4 4 0 0 1 1.6 1.6c.4.7.6 1.4.6 2.3Zm-1.6-.3c0-.6-.1-1.1-.4-1.6-.3-.4-.6-.7-1.1-1-.4-.2-1-.3-1.5-.3a3 3 0 0 0-2 .8c-.6.5-.9 1.2-1 2h6Zm7.6-4.2c.8 0 1.5.2 2.1.5.6.4 1 .8 1.4 1.4V340h1.6v9.6c0 .9-.2 1.6-.6 2.3-.4.7-.9 1.2-1.6 1.6-.6.4-1.4.5-2.3.5-1.3 0-2.3-.2-3.1-.8a3.4 3.4 0 0 1-1.5-2.4h1.5c.2.5.6 1 1.1 1.3.5.4 1.2.6 2 .6s1.5-.3 2-.8a3 3 0 0 0 .9-2.3v-2c-.3.6-.8 1-1.4 1.4a4 4 0 0 1-2.1.5c-.9 0-1.6-.2-2.3-.6-.7-.4-1.2-1-1.6-1.7-.4-.8-.6-1.6-.6-2.6s.2-1.8.6-2.5a4.3 4.3 0 0 1 3.9-2.3Zm3.5 4.9c0-.8-.2-1.4-.5-2a3 3 0 0 0-1.1-1.1 3 3 0 0 0-1.6-.4c-.6 0-1.1 0-1.6.4a3 3 0 0 0-1.2 1.2c-.3.5-.4 1.1-.4 1.8 0 .8.1 1.4.4 2a3.2 3.2 0 0 0 2.8 1.6c.6 0 1.1-.2 1.6-.4a3 3 0 0 0 1.1-1.3 4 4 0 0 0 .5-1.8Zm5.8-3.2c.3-.6.6-1 1.2-1.3.5-.3 1.1-.4 1.8-.4v1.6h-.4c-1.7 0-2.6 1-2.6 2.9v5h-1.6v-9.3h1.6v1.5Zm4.3 3.1c0-1 .2-1.8.5-2.5a4.3 4.3 0 0 1 4-2.3c.8 0 1.5.2 2 .5.7.4 1.2.8 1.4 1.4V340h1.6v9.4h-1.6v-1.8c-.3.6-.7 1-1.3 1.4-.7.4-1.4.5-2.2.5a4.3 4.3 0 0 1-3.9-2.3c-.3-.8-.5-1.6-.5-2.6Zm8 0c0-.7-.2-1.3-.5-1.8a3 3 0 0 0-1.2-1.2 3 3 0 0 0-1.6-.4c-.5 0-1 0-1.6.4a3 3 0 0 0-1.1 1.2c-.3.5-.4 1.1-.4 1.8 0 .8.1 1.4.4 2 .3.5.7.9 1.1 1.2.5.2 1 .4 1.6.4.6 0 1.2-.2 1.6-.4a3 3 0 0 0 1.2-1.3 4 4 0 0 0 .4-1.8Zm6.1-3.4v5.6c0 .5 0 .8.3 1 .2.2.5.3 1 .3h1.2v1.3h-1.5c-.8 0-1.5-.2-2-.6-.4-.4-.6-1-.6-2v-5.6h-1.2v-1.2h1.2v-2.4h1.6v2.4h2.5v1.2h-2.5Zm13 3.1v1h-7.6c0 .9.3 1.6 1 2.1a3 3 0 0 0 2 .8c.7 0 1.3-.1 1.7-.4.5-.4.8-.8 1-1.3h1.7c-.3.9-.8 1.6-1.5 2.2-.8.6-1.7.8-2.9.8-.9 0-1.7-.2-2.4-.6-.7-.4-1.2-1-1.6-1.7-.4-.7-.6-1.6-.6-2.5 0-1 .2-1.9.6-2.6a4 4 0 0 1 1.6-1.7c.7-.4 1.5-.6 2.4-.6 1 0 1.7.2 2.4.6a4 4 0 0 1 1.6 1.6c.4.7.6 1.4.6 2.3Zm-1.6-.3c0-.6-.2-1.1-.4-1.6l-1.1-1-1.5-.3a3 3 0 0 0-2 .8c-.6.5-1 1.2-1 2h6Zm3 .6c0-1 .3-1.8.6-2.5a4.3 4.3 0 0 1 4-2.3 4.2 4.2 0 0 1 3.4 1.8v-5h1.6v12.8h-1.6v-1.8c-.3.6-.7 1-1.3 1.4-.6.4-1.4.5-2.2.5-.8 0-1.6-.2-2.3-.6-.6-.4-1.2-1-1.6-1.7-.3-.8-.5-1.6-.5-2.6Zm8 0c0-.7 0-1.3-.4-1.8a3 3 0 0 0-1.2-1.2 3 3 0 0 0-1.6-.4c-.5 0-1 0-1.6.4a3 3 0 0 0-1.1 1.2c-.3.5-.4 1.1-.4 1.8 0 .8.1 1.4.4 2 .3.5.7.9 1.1 1.2.5.2 1 .4 1.6.4.6 0 1.2-.2 1.6-.4a3 3 0 0 0 1.2-1.3 4 4 0 0 0 .4-1.8Zm12.2 5a5 5 0 0 1-2-.4c-.5-.3-1-.6-1.3-1-.3-.5-.5-1-.5-1.6h1.6c0 .5.2.9.6 1.2.4.3 1 .4 1.6.4.6 0 1-.1 1.4-.4.4-.2.5-.6.5-1a1 1 0 0 0-.5-.9l-1.7-.6-1.7-.5c-.5-.2-.9-.5-1.2-.9-.3-.4-.5-.9-.5-1.5 0-.4.2-.9.5-1.3s.7-.7 1.2-1c.5-.2 1.1-.3 1.8-.3 1 0 1.9.3 2.5.8.7.5 1 1.2 1 2.2h-1.5c0-.5-.2-1-.6-1.2-.3-.3-.8-.5-1.4-.5-.6 0-1 .1-1.4.4-.3.2-.5.5-.5 1 0 .2.1.5.3.7l.8.5 1.2.4 1.7.5c.4.2.8.5 1 .8.4.4.6.9.6 1.4 0 .5-.2 1-.5 1.4a3 3 0 0 1-1.2 1c-.5.2-1.1.3-1.8.3Zm9.8 0c-.9 0-1.7-.3-2.4-.7-.7-.4-1.3-1-1.7-1.7-.4-.7-.6-1.6-.6-2.5 0-1 .2-1.9.6-2.6.4-.7 1-1.3 1.7-1.7a5 5 0 0 1 2.5-.6 5 5 0 0 1 2.4.6c.7.4 1.3 1 1.7 1.7.4.7.6 1.6.6 2.6a5 5 0 0 1-.6 2.5c-.4.8-1 1.3-1.8 1.7a5 5 0 0 1-2.4.6Zm0-1.4c.6 0 1-.2 1.6-.4a3 3 0 0 0 1.2-1.2c.3-.5.4-1.2.4-2 0-.7-.1-1.3-.4-1.9-.3-.5-.7-.9-1.2-1.1-.5-.3-1-.4-1.6-.4-.5 0-1 0-1.5.4-.5.2-.9.6-1.2 1.1a4 4 0 0 0-.4 2c0 .7.1 1.4.4 1.9a3 3 0 0 0 2.7 1.6Zm10.7-7h-2v8.2H557v-8.2h-1.2v-1.2h1.2v-.7c0-1 .3-1.8.8-2.3.5-.5 1.4-.8 2.6-.8v1.3c-.7 0-1.1.2-1.4.5-.3.2-.4.7-.4 1.3v.7h2v1.2Zm3.8 0v5.6c0 .5 0 .8.3 1 .2.2.5.3 1 .3h1.1v1.3h-1.4c-.8 0-1.5-.2-2-.6-.4-.4-.6-1-.6-2v-5.6h-1.2v-1.2h1.2v-2.4h1.6v2.4h2.4v1.2h-2.4Zm17-1.2-3 9.4h-1.6l-2.3-7.5-2.3 7.5h-1.6l-3-9.4h1.6l2.2 7.9 2.3-8h1.6l2.3 8 2.2-8h1.5Zm.9 4.6c0-1 .2-1.8.6-2.5a4.3 4.3 0 0 1 3.9-2.3c.8 0 1.5.2 2.1.5.6.4 1 .8 1.4 1.4V340h1.6v9.4H590v-1.8c-.3.6-.8 1-1.4 1.4-.6.4-1.3.5-2.2.5a4.3 4.3 0 0 1-3.8-2.3c-.4-.8-.6-1.6-.6-2.6Zm8 0c0-.7-.2-1.3-.5-1.8a3 3 0 0 0-1.1-1.2 3 3 0 0 0-1.6-.4c-.6 0-1.1 0-1.6.4a3 3 0 0 0-1.2 1.2c-.3.5-.4 1.1-.4 1.8 0 .8.1 1.4.4 2a3.2 3.2 0 0 0 2.8 1.6c.6 0 1.1-.2 1.6-.4a3 3 0 0 0 1.1-1.3 4 4 0 0 0 .5-1.8Zm5.8-3.1c.3-.6.6-1 1.2-1.3.5-.3 1.1-.4 1.8-.4v1.6h-.4c-1.7 0-2.6 1-2.6 2.9v5h-1.6v-9.3h1.6v1.5Zm13.5 2.8-.1 1h-7.5c0 .9.3 1.6 1 2.1a3 3 0 0 0 2 .8c.7 0 1.3-.1 1.7-.4.5-.4.8-.8 1-1.3h1.7c-.3.9-.8 1.6-1.6 2.2-.7.6-1.6.8-2.8.8-.9 0-1.7-.2-2.4-.6-.7-.4-1.2-1-1.6-1.7-.4-.7-.6-1.6-.6-2.5 0-1 .2-1.9.5-2.6a4 4 0 0 1 1.7-1.7c.7-.4 1.5-.6 2.4-.6 1 0 1.7.2 2.4.6a4 4 0 0 1 1.6 1.6c.4.7.6 1.4.6 2.3Zm-1.7-.3c0-.6-.1-1.1-.4-1.6-.2-.4-.6-.7-1-1l-1.5-.3a3 3 0 0 0-2 .8c-.6.5-1 1.2-1 2h6Zm17.5 5.4-1.5-1.6a6 6 0 0 1-2 1.4c-.6.3-1.3.4-2.2.4-.8 0-1.5-.1-2.2-.4-.6-.3-1.1-.8-1.5-1.3-.3-.6-.5-1.2-.5-2s.3-1.5.7-2.2c.5-.6 1.2-1.1 2.2-1.5-.4-.4-.7-.8-.8-1.2a3 3 0 0 1-.3-1.2 2.5 2.5 0 0 1 1.5-2.3c.5-.2 1-.4 1.7-.4.6 0 1.2.2 1.6.4.5.2.8.6 1 1 .3.4.4 1 .4 1.5h-1.6c0-.5-.1-.9-.4-1.2-.3-.2-.6-.4-1-.4-.5 0-1 .2-1.2.4-.3.3-.4.6-.4 1s0 .7.3 1l1 1.2 3.5 3.6.3-.5 1.2-2h1.7l-1.4 2.5-.7 1 2.7 2.8h-2Zm-5.7-1.1c.7 0 1.2-.2 1.7-.4s1-.6 1.4-1.1l-3.5-3.6c-1.5.6-2.2 1.5-2.2 2.7 0 .7.2 1.2.7 1.7.5.4 1.2.7 2 .7Zm-226.3 17.5a4 4 0 0 1 1.9.4c.6.3 1 .8 1.3 1.4.4.6.5 1.4.5 2.2v5.6h-1.5v-5.3c0-1-.3-1.7-.7-2.2-.5-.5-1.1-.8-2-.8-.8 0-1.4.3-2 .8-.4.5-.7 1.3-.7 2.3v5.2h-1.5v-12.8h1.5v4.7c.4-.5.8-.9 1.3-1.1.6-.3 1.2-.4 1.9-.4Zm5.7 4.8c0-1 .2-1.8.6-2.5a4.3 4.3 0 0 1 3.9-2.3c.8 0 1.5.2 2.1.5.7.4 1.1.8 1.4 1.4V366h1.6v9.4h-1.6v-1.8c-.3.6-.8 1-1.4 1.4-.6.4-1.3.5-2.1.5a4.3 4.3 0 0 1-3.9-2.3c-.4-.8-.6-1.6-.6-2.6Zm8 0c0-.7-.1-1.3-.4-1.8a3 3 0 0 0-1.2-1.2 3 3 0 0 0-1.6-.4c-.6 0-1.1 0-1.6.4a3 3 0 0 0-1.2 1.2c-.2.5-.4 1.1-.4 1.8 0 .8.2 1.4.4 2a3.2 3.2 0 0 0 2.8 1.6c.6 0 1.1-.2 1.6-.4a3 3 0 0 0 1.2-1.3 4 4 0 0 0 .4-1.8Zm5.8-3.1c.3-.6.7-1 1.2-1.3.5-.3 1.1-.4 1.9-.4v1.6h-.5c-1.7 0-2.6 1-2.6 2.9v5h-1.6v-9.3h1.6v1.5Zm4.3 3.1c0-1 .2-1.8.6-2.5a4.3 4.3 0 0 1 3.9-2.3 4.2 4.2 0 0 1 3.5 1.8v-5h1.6v12.8H425v-1.8c-.3.6-.8 1-1.4 1.4-.6.4-1.3.5-2.1.5-.9 0-1.6-.2-2.3-.6-.7-.4-1.2-1-1.6-1.7-.4-.8-.6-1.6-.6-2.6Zm8 0c0-.7-.2-1.3-.5-1.8a3 3 0 0 0-1.1-1.2 3 3 0 0 0-1.6-.4c-.6 0-1.2 0-1.6.4a3 3 0 0 0-1.2 1.2c-.3.5-.4 1.1-.4 1.8 0 .8.1 1.4.4 2a3.2 3.2 0 0 0 2.8 1.6c.6 0 1-.2 1.6-.4a3 3 0 0 0 1.1-1.3 4 4 0 0 0 .5-1.8Zm16.8-4.6-3 9.4h-1.6L435 368l-2.2 7.5H431l-3-9.4h1.6l2.2 7.9 2.3-8h1.6l2.3 8 2.1-8h1.6Zm1 4.6c0-1 .1-1.8.5-2.5a4.3 4.3 0 0 1 4-2.3c.8 0 1.5.2 2 .5.7.4 1.1.8 1.4 1.4V366h1.6v9.4h-1.6v-1.8c-.3.6-.7 1-1.3 1.4-.7.4-1.4.5-2.2.5a4.3 4.3 0 0 1-3.9-2.3c-.4-.8-.5-1.6-.5-2.6Zm8 0c0-.7-.2-1.3-.5-1.8a3 3 0 0 0-1.2-1.2 3 3 0 0 0-1.6-.4c-.5 0-1 0-1.6.4a3 3 0 0 0-1.1 1.2c-.3.5-.4 1.1-.4 1.8 0 .8.1 1.4.4 2 .3.5.7.9 1.1 1.2.5.2 1 .4 1.6.4.6 0 1.2-.2 1.6-.4a3 3 0 0 0 1.2-1.3 4 4 0 0 0 .4-1.8Zm5.7-3.1c.3-.6.7-1 1.2-1.3.5-.3 1.2-.4 1.9-.4v1.6h-.4c-1.8 0-2.7 1-2.7 2.9v5H455v-9.3h1.5v1.5Zm13.5 2.8v1h-7.6c0 .9.4 1.6 1 2.1a3 3 0 0 0 2 .8c.8 0 1.3-.1 1.8-.4.4-.4.8-.8 1-1.3h1.6c-.2.9-.7 1.6-1.5 2.2-.7.6-1.7.8-2.8.8-.9 0-1.7-.2-2.4-.6-.7-.4-1.3-1-1.7-1.7-.4-.7-.6-1.6-.6-2.5 0-1 .2-1.9.6-2.6a4 4 0 0 1 1.6-1.7c.8-.4 1.6-.6 2.5-.6.9 0 1.7.2 2.4.6a4 4 0 0 1 1.6 1.6c.3.7.5 1.4.5 2.3Zm-1.6-.3c0-.6-.1-1.1-.4-1.6l-1-1c-.5-.2-1-.3-1.6-.3a3 3 0 0 0-2 .8c-.6.5-.9 1.2-1 2h6Zm7.7.6c0-1 .2-1.8.6-2.5a4.3 4.3 0 0 1 3.9-2.3 4.2 4.2 0 0 1 3.5 1.8v-5h1.6v12.8H484v-1.8c-.3.6-.8 1-1.4 1.4-.6.4-1.3.5-2.1.5-.9 0-1.6-.2-2.3-.6-.7-.4-1.2-1-1.6-1.7-.4-.8-.6-1.6-.6-2.6Zm8 0c0-.7-.2-1.3-.4-1.8a3 3 0 0 0-1.2-1.2 3 3 0 0 0-1.6-.4c-.6 0-1.1 0-1.6.4a3 3 0 0 0-1.2 1.2c-.3.5-.4 1.1-.4 1.8 0 .8.1 1.4.4 2a3.2 3.2 0 0 0 2.8 1.6c.6 0 1.1-.2 1.6-.4a3 3 0 0 0 1.2-1.3 4 4 0 0 0 .4-1.8Zm12.8-.3v1h-7.6c.1.9.4 1.6 1 2.1a3 3 0 0 0 2.1.8c.7 0 1.2-.1 1.7-.4.5-.4.8-.8 1-1.3h1.6c-.2.9-.7 1.6-1.5 2.2-.7.6-1.7.8-2.8.8-.9 0-1.7-.2-2.4-.6-.7-.4-1.3-1-1.7-1.7-.4-.7-.6-1.6-.6-2.5 0-1 .2-1.9.6-2.6a4 4 0 0 1 1.7-1.7c.7-.4 1.5-.6 2.4-.6 1 0 1.7.2 2.4.6a4 4 0 0 1 1.6 1.6c.4.7.5 1.4.5 2.3Zm-1.6-.3c0-.6-.1-1.1-.4-1.6-.2-.4-.6-.7-1-1-.5-.2-1-.3-1.6-.3a3 3 0 0 0-2 .8c-.5.5-.9 1.2-1 2h6Zm7.2 4 3-8h1.6l-3.7 9.4h-1.8l-3.7-9.4h1.7l3 8Zm14.8-3.7v1h-7.6c0 .9.4 1.6 1 2.1a3 3 0 0 0 2 .8c.7 0 1.3-.1 1.7-.4.5-.4.8-.8 1-1.3h1.7c-.3.9-.8 1.6-1.5 2.2-.8.6-1.7.8-2.9.8-.8 0-1.7-.2-2.4-.6-.7-.4-1.2-1-1.6-1.7-.4-.7-.6-1.6-.6-2.5 0-1 .2-1.9.6-2.6a4 4 0 0 1 1.6-1.7c.7-.4 1.5-.6 2.4-.6 1 0 1.7.2 2.4.6a4 4 0 0 1 1.6 1.6c.4.7.6 1.4.6 2.3Zm-1.6-.3c0-.6-.2-1.1-.4-1.6l-1.1-1-1.5-.3a3 3 0 0 0-2 .8c-.6.5-1 1.2-1 2h6Zm5.2-7.4v12.8h-1.6v-12.8h1.6Zm6.8 13c-.9 0-1.7-.3-2.4-.7-.7-.4-1.3-1-1.7-1.7-.4-.7-.6-1.6-.6-2.5 0-1 .2-1.9.6-2.6.4-.7 1-1.3 1.7-1.7a5 5 0 0 1 2.5-.6 5 5 0 0 1 2.4.6c.7.4 1.3 1 1.7 1.7.4.7.6 1.6.6 2.6a5 5 0 0 1-.6 2.5c-.4.8-1 1.3-1.7 1.7a5 5 0 0 1-2.5.6Zm0-1.4c.6 0 1.1-.2 1.6-.4a3 3 0 0 0 1.2-1.2c.3-.5.4-1.2.4-2 0-.7-.1-1.3-.4-1.9-.3-.5-.7-.9-1.2-1.1-.5-.3-1-.4-1.5-.4-.6 0-1.1 0-1.6.4-.5.2-.9.6-1.2 1.1a4 4 0 0 0-.4 2c0 .7.1 1.4.4 1.9a3 3 0 0 0 2.7 1.6Zm8.5-6.5c.3-.5.7-1 1.4-1.4.6-.3 1.3-.5 2.1-.5a4.4 4.4 0 0 1 3.9 2.3c.4.7.6 1.6.6 2.5 0 1-.2 1.8-.6 2.6a4.3 4.3 0 0 1-3.9 2.3c-.8 0-1.5-.1-2.1-.5a4 4 0 0 1-1.4-1.3v6.2h-1.6v-14h1.6v1.8Zm6.4 3c0-.8-.2-1.4-.4-2a3 3 0 0 0-1.2-1.1c-.5-.3-1-.4-1.6-.4a3.1 3.1 0 0 0-2.8 1.6c-.3.5-.4 1.2-.4 1.9s.1 1.3.4 1.8c.3.6.7 1 1.2 1.3.5.2 1 .4 1.6.4.6 0 1.1-.2 1.6-.4a3 3 0 0 0 1.2-1.3 4 4 0 0 0 .4-1.9Zm15-5a4 4 0 0 1 2 .5c.5.3 1 .8 1.3 1.4.4.6.5 1.4.5 2.2v5.6H560v-5.3c0-1-.3-1.7-.7-2.2-.5-.5-1.1-.8-2-.8-.7 0-1.4.3-1.9.8-.4.5-.7 1.3-.7 2.3v5.2h-1.5v-5.3c0-1-.3-1.7-.7-2.2-.5-.5-1.1-.8-2-.8-.7 0-1.4.3-1.9.8-.4.5-.7 1.3-.7 2.3v5.2h-1.5V366h1.5v1.3c.3-.5.7-.9 1.3-1.1.5-.3 1-.4 1.7-.4a4 4 0 0 1 2.1.5c.6.4 1 .9 1.4 1.6a3 3 0 0 1 1.3-1.6c.6-.3 1.3-.5 2-.5Zm15 4.6v1H565c0 .9.4 1.6 1 2.1a3 3 0 0 0 2 .8c.8 0 1.3-.1 1.8-.4.4-.4.8-.8 1-1.3h1.6c-.2.9-.7 1.6-1.5 2.2-.8.6-1.7.8-2.8.8-1 0-1.7-.2-2.4-.6-.7-.4-1.3-1-1.7-1.7-.4-.7-.6-1.6-.6-2.5 0-1 .2-1.9.6-2.6a4 4 0 0 1 1.6-1.7c.7-.4 1.6-.6 2.5-.6.9 0 1.7.2 2.4.6a4 4 0 0 1 1.5 1.6c.4.7.6 1.4.6 2.3Zm-1.6-.3c0-.6-.1-1.1-.4-1.6l-1-1c-.5-.2-1-.3-1.6-.3a3 3 0 0 0-2 .8c-.6.5-.9 1.2-1 2h6Zm8.3-4.2c1.1 0 2 .3 2.8 1 .7.7 1 1.7 1 3v5.6h-1.5v-5.3c0-1-.2-1.7-.7-2.2-.5-.5-1.1-.8-2-.8-.8 0-1.4.3-2 .8-.4.5-.6 1.3-.6 2.3v5.2h-1.6V366h1.5v1.3c.4-.5.8-.9 1.3-1.1a4 4 0 0 1 1.8-.4Zm8.3 1.4v5.6c0 .5.1.8.3 1 .2.2.5.3 1 .3h1.2v1.3h-1.4c-1 0-1.6-.2-2-.6-.4-.4-.7-1-.7-2v-5.6h-1.2v-1.2h1.2v-2.4h1.6v2.4h2.5v1.2h-2.5Zm12.3 8.3a5 5 0 0 1-2-.3c-.5-.3-1-.6-1.3-1-.3-.5-.5-1-.5-1.6h1.6c0 .5.2.9.6 1.2.4.3 1 .4 1.6.4.6 0 1-.1 1.4-.4.4-.2.5-.6.5-1a1 1 0 0 0-.5-.9l-1.7-.6-1.8-.5c-.4-.2-.8-.5-1-.9a2.2 2.2 0 0 1 0-2.8c.2-.4.6-.7 1.1-1 .5-.2 1.1-.3 1.8-.3 1 0 1.9.3 2.5.8.7.5 1 1.2 1 2.2h-1.5c0-.5-.2-1-.6-1.2-.4-.3-.8-.5-1.4-.5-.6 0-1 .1-1.4.4-.3.2-.5.5-.5 1 0 .2.1.5.3.7l.8.5 1.2.4 1.7.5c.4.2.8.5 1 .8.4.4.5.9.6 1.4 0 .5-.2 1-.5 1.4a3 3 0 0 1-1.2 1c-.5.2-1.1.3-1.8.3Zm10.4-9.7a4 4 0 0 1 1.9.4c.6.3 1 .8 1.3 1.4.4.6.5 1.4.5 2.2v5.6h-1.5v-5.3c0-1-.3-1.7-.7-2.2-.5-.5-1.1-.8-2-.8-.8 0-1.4.3-2 .8-.4.5-.7 1.3-.7 2.3v5.2h-1.5v-12.8h1.5v4.7c.3-.5.8-.9 1.3-1.1.6-.3 1.2-.4 1.9-.4Zm10.4 9.7c-.9 0-1.7-.2-2.4-.6-.7-.4-1.3-1-1.7-1.7-.4-.7-.6-1.6-.6-2.5 0-1 .2-1.9.6-2.6.4-.7 1-1.3 1.7-1.7a5 5 0 0 1 2.5-.6 5 5 0 0 1 2.4.6c.7.4 1.3 1 1.7 1.7.4.7.6 1.6.6 2.6a5 5 0 0 1-.6 2.5c-.4.8-1 1.3-1.7 1.7a5 5 0 0 1-2.5.6Zm0-1.3c.6 0 1.1-.2 1.6-.4a3 3 0 0 0 1.2-1.2c.3-.5.4-1.2.4-2 0-.7-.1-1.3-.4-1.9-.3-.5-.7-.9-1.2-1.1a3.2 3.2 0 0 0-3.2 0c-.4.2-.8.6-1 1.1a4 4 0 0 0-.5 2c0 .7.1 1.4.4 1.9a3 3 0 0 0 2.7 1.6Zm8.5-6.5c.3-.5.7-1 1.4-1.4.6-.3 1.3-.5 2.1-.5a4.4 4.4 0 0 1 3.9 2.3c.4.7.6 1.6.6 2.5 0 1-.2 1.8-.6 2.6a4.3 4.3 0 0 1-3.9 2.3c-.8 0-1.5-.1-2.1-.5a4 4 0 0 1-1.4-1.3v6.2h-1.6v-14h1.6v1.8Zm6.4 3c0-.8-.2-1.4-.4-2a3 3 0 0 0-1.2-1.1c-.5-.3-1-.4-1.6-.4a3.1 3.1 0 0 0-2.8 1.6c-.3.5-.4 1.2-.4 1.9s.1 1.3.4 1.8c.3.6.7 1 1.2 1.3.5.2 1 .4 1.6.4.6 0 1.1-.2 1.6-.4a3 3 0 0 0 1.2-1.3 4 4 0 0 0 .4-1.9Z"/><g fill="#FFC700" clip-path="url(#b)"><path d="M526.8 409.2c-2.6 0-4.7 2-4.7 4.6 0 3.5-2.8 6.3-6.2 6.3-2.6 0-4.6 2-4.6 4.6 0 3.5-2.8 6.3-6.3 6.3a4.6 4.6 0 1 0 0 9.2c3.5 0 6.3 2.8 6.3 6.3a4.6 4.6 0 1 0 4.6-4.6 6.3 6.3 0 0 1 0-12.6c2.5 0 4.6-2 4.6-4.6 0-3.5 2.8-6.3 6.3-6.3a4.6 4.6 0 1 0 0-9.2Z"/><path d="M526.8 431a4.6 4.6 0 1 0 0 9.2 4.6 4.6 0 0 0 0-9.2ZM494.1 441.9a4.6 4.6 0 1 0 0 9.2 4.6 4.6 0 0 0 0-9.2ZM505 418.4a4.6 4.6 0 1 0 0-9.2 6.3 6.3 0 0 1-6.3-6.3 4.6 4.6 0 1 0-4.6 4.7 6.3 6.3 0 0 1 0 12.5c-2.5 0-4.6 2-4.6 4.6 0 3.5-2.8 6.3-6.3 6.3a4.6 4.6 0 1 0 4.7 4.6c0-3.5 2.8-6.3 6.2-6.3 2.6 0 4.6-2 4.6-4.6 0-3.5 2.8-6.3 6.3-6.3Z"/><path d="M483.2 418.4a4.6 4.6 0 1 0 0-9.2 4.6 4.6 0 0 0 0 9.2ZM515.9 407.6a4.6 4.6 0 1 0 0-9.3 4.6 4.6 0 0 0 0 9.3Z"/></g><path fill="#fff" d="M219.2 119.4c.9 0 1.6-.8 1.6-1.7 0-1.3 1-2.3 2.3-2.3a1.7 1.7 0 1 0 0-3.3c-1 0-1.7.7-1.7 1.7 0 1.2-1 2.2-2.2 2.2-1 0-1.7.8-1.7 1.7 0 1.2-1 2.3-2.3 2.3a1.7 1.7 0 1 0 0 3.3c1.3 0 2.3 1 2.3 2.3a1.7 1.7 0 1 0 3.3 0c0-1-.7-1.7-1.6-1.7a2.3 2.3 0 0 1 0-4.5Z"/><path fill="#fff" d="M223 120a1.7 1.7 0 1 0 0 3.3 1.7 1.7 0 0 0 0-3.3ZM211.3 127.2a1.7 1.7 0 1 0 0-3.3 1.7 1.7 0 0 0 0 3.3ZM211.3 119.4c1 0 1.6-.8 1.6-1.7 0-1.3 1-2.3 2.3-2.3a1.7 1.7 0 1 0 0-3.3c-1.2 0-2.3-1-2.3-2.3a1.7 1.7 0 1 0-1.6 1.7 2.3 2.3 0 0 1 0 4.5c-1 0-1.7.8-1.7 1.7 0 1.2-1 2.3-2.3 2.3a1.7 1.7 0 1 0 1.7 1.6c0-1.2 1-2.2 2.3-2.2Z"/><path fill="#fff" d="M207.3 115.4a1.7 1.7 0 1 0 0-3.3 1.7 1.7 0 0 0 0 3.3ZM219.2 111.5a1.7 1.7 0 1 0 0-3.4 1.7 1.7 0 0 0 0 3.4ZM320.5 111.4v11.9h-2.3v-12h2.3Zm-6.7 7.4c0-.5-.1-1-.3-1.4-.3-.4-.5-.7-.9-.9l-1.2-.3a2.3 2.3 0 0 0-2 1.2c-.2.4-.3.8-.3 1.4 0 .5 0 1 .3 1.4.2.4.5.7.9 1l1.1.2c.4 0 .8 0 1.2-.3.4-.2.6-.5.9-.9.2-.4.3-.8.3-1.4Zm-7 0c0-1 .2-1.7.5-2.4a4 4 0 0 1 1.5-1.6 4 4 0 0 1 2-.6 3.6 3.6 0 0 1 3 1.4v-1.2h2.2v8.9h-2.2V122a3.4 3.4 0 0 1-3 1.4c-.7 0-1.4-.2-2-.6-.6-.3-1.1-.9-1.5-1.6-.3-.7-.5-1.5-.5-2.4Zm-3-2.6v4.3c0 .3 0 .5.2.7l.7.2h1v1.9h-1.3c-2 0-2.9-1-2.9-2.8v-4.3h-1v-1.8h1v-2.2h2.3v2.2h2v1.8h-2Zm-4.9-1.8v8.9h-2.2v-9h2.2Zm-1-1.1c-.5 0-.8-.1-1-.4-.3-.2-.4-.5-.4-1 0-.3 0-.6.3-.8.3-.3.6-.4 1-.4s.8.1 1 .4c.3.2.4.5.4.9s-.1.7-.4 1c-.2.2-.6.3-1 .3Zm-5.6 5.5c0-.5-.2-1-.4-1.4-.2-.4-.5-.7-.8-.9l-1.2-.3a2.3 2.3 0 0 0-2 1.2c-.2.4-.3.8-.3 1.4 0 .5 0 1 .3 1.4l.8 1 1.2.2c.4 0 .8 0 1.2-.3.3-.2.6-.5.8-.9.2-.4.4-.8.4-1.4Zm-3-4.6c.7 0 1.3.2 1.8.4.5.3.9.6 1.1 1v-1.2h2.3v8.8c0 .8-.2 1.6-.5 2.2-.3.7-.8 1.2-1.5 1.6-.6.3-1.4.5-2.4.5-1.2 0-2.3-.3-3-.9a3.3 3.3 0 0 1-1.5-2.4h2.3c0 .4.3.8.7 1 .4.2.9.4 1.5.4s1.1-.2 1.5-.6c.4-.4.6-1 .6-1.8v-1.3c-.2.5-.6.8-1.1 1-.6.4-1.1.5-1.8.5s-1.4-.2-2-.6a4 4 0 0 1-1.5-1.6c-.4-.7-.5-1.5-.5-2.4 0-1 .1-1.7.5-2.4a4 4 0 0 1 1.5-1.6 4 4 0 0 1 2-.6Zm-5.7.2v8.9h-2.2v-9h2.2Zm-1-1.1c-.5 0-.8-.1-1-.4-.3-.2-.5-.5-.5-1 0-.3.2-.6.4-.9.3-.2.6-.3 1-.3s.7 0 1 .3c.3.3.4.6.4 1s-.1.7-.4 1c-.3.2-.6.3-1 .3Zm-5.7 5.5c0-.5 0-1-.3-1.4-.2-.4-.5-.7-.9-.9a2.3 2.3 0 0 0-3.2.9c-.2.4-.3.8-.3 1.4 0 .5.1 1 .4 1.4l.8 1 1.2.2c.4 0 .8 0 1.1-.3.4-.2.7-.5 1-.9l.2-1.4Zm-7 0c0-1 .2-1.7.6-2.4a4 4 0 0 1 5.2-1.8c.5.2 1 .6 1.2 1v-4.2h2.3v11.9h-2.3V122a3 3 0 0 1-1.2 1c-.5.3-1 .4-1.7.4s-1.4-.2-2-.6a4 4 0 0 1-1.5-1.6c-.4-.7-.6-1.5-.6-2.4Zm-2.5 4.6c-.4 0-.8-.1-1-.4-.3-.2-.4-.6-.4-1 0-.3 0-.6.3-.9.3-.2.6-.4 1-.4.5 0 .8.2 1 .4.3.3.4.6.4 1 0 .3-.1.7-.4 1-.2.2-.5.3-1 .3Zm-13.9-5.8c0-1 .3-2 .8-3 .5-.8 1.1-1.5 2-2 .9-.5 1.8-.7 2.9-.7 1.2 0 2.3.3 3.3 1a5 5 0 0 1 2 2.6h-2.6c-.3-.5-.7-.9-1.1-1.2-.5-.2-1-.4-1.6-.4-.7 0-1.3.2-1.8.5s-.9.7-1.2 1.3c-.2.5-.4 1.2-.4 2 0 .7.2 1.3.4 1.9.3.6.7 1 1.2 1.3.5.3 1.1.5 1.8.5.6 0 1.1-.2 1.6-.4.4-.3.8-.7 1-1.3h2.6a5 5 0 0 1-2 2.7 5.9 5.9 0 0 1-6.2.2 5.5 5.5 0 0 1-2.7-5Zm-4.7 1.7-1.6-4.7-1.6 4.7h3.2Zm.7 1.8H245l-.7 2.2h-2.4l4-11.3h2.6l4 11.3h-2.3l-.7-2.2Zm-14.6.3c1.2 0 2.1-.4 2.8-1 .6-.6 1-1.6 1-2.7 0-1.2-.4-2.1-1-2.8-.7-.6-1.6-1-2.8-1h-1.5v7.5h1.5Zm.1-9.4c1.2 0 2.2.3 3.1.7 1 .5 1.6 1.2 2 2 .6.9.8 1.8.8 3 0 1.1-.2 2-.7 3a5 5 0 0 1-2 1.9c-1 .4-2 .7-3.2.7h-3.9V112h4Z"/><rect width="84" height="21.5" x="629.9" y="106.5" fill="url(#c)" rx="10.8"/><g filter="url(#d)"><path fill="#fff" d="M647.2 114.9v.8h-2.5v1.7h2v.8h-2v2.6h-1v-6h3.5Zm2 1.9c0-.3.3-.4.5-.6l.8-.2v1h-.2c-.4 0-.7.1-.9.3-.2.2-.3.6-.3 1v2.5h-1v-4.7h1v.7Zm6.6 1.6v.4H652c0 .4.2.7.5 1 .2.2.5.3.9.3.5 0 .9-.2 1.1-.7h1a2.2 2.2 0 0 1-2.1 1.5c-.5 0-.9 0-1.2-.3-.4-.2-.7-.5-.9-.8-.2-.4-.3-.8-.3-1.3s.1-1 .3-1.3c.2-.4.5-.7.8-.9.4-.2.8-.3 1.3-.3l1.2.3.8.8c.2.4.3.8.3 1.3Zm-1-.4c0-.3-.2-.6-.4-.8-.3-.2-.6-.4-1-.4-.3 0-.6.2-.8.4-.3.2-.4.5-.5.8h2.7Zm6.3.4v.4h-3.6c0 .4.1.7.4 1 .2.2.5.3.9.3.5 0 1-.2 1.1-.7h1a2.2 2.2 0 0 1-2.1 1.5c-.4 0-.9 0-1.2-.3-.4-.2-.7-.5-.9-.8-.2-.4-.3-.8-.3-1.3s.1-1 .3-1.3c.2-.4.5-.7.9-.9.3-.2.7-.3 1.2-.3s.9.1 1.2.3c.4.2.6.5.8.8.2.4.3.8.3 1.3Zm-1-.4c0-.3-.1-.6-.4-.8-.3-.2-.6-.4-1-.4-.3 0-.6.2-.8.4-.3.2-.4.5-.4.8h2.6Zm5.2-2.4v1.8h2v.8h-2v1.8h2.3v.8h-3.3v-6h3.3v.8h-2.3Zm5.3 5.3c-.4 0-.8 0-1-.2-.3-.1-.6-.3-.7-.5-.2-.3-.3-.5-.3-.8h1c0 .2.1.4.3.5l.6.2c.3 0 .5 0 .7-.2l.2-.4c0-.2 0-.3-.2-.4l-.9-.3-.8-.2-.6-.5c-.2-.2-.2-.4-.2-.7 0-.3 0-.5.2-.7.1-.2.3-.4.6-.5l1-.2c.5 0 1 .2 1.3.4.3.3.5.7.5 1.1h-1c0-.2 0-.3-.2-.5a1 1 0 0 0-.7-.2 1 1 0 0 0-.5.2c-.2 0-.3.2-.3.4 0 .1 0 .2.2.3l.3.2.6.2c.3 0 .6.2.8.3.3 0 .5.2.6.4.2.2.3.4.3.7 0 .3-.1.5-.3.7-.1.3-.3.4-.6.5-.3.2-.6.2-1 .2Zm4-4v2.6l.1.4.4.1h.6v.8h-.7c-.5 0-.8 0-1-.3-.3-.2-.4-.5-.4-1V117h-.6v-.8h.6v-1.2h1v1.2h1.1v.8h-1.1Zm2.5-1.4c-.1 0-.3 0-.4-.2a.6.6 0 0 1-.2-.5c0-.1 0-.3.2-.4l.4-.2c.2 0 .4 0 .5.2l.2.4-.2.5-.5.2Zm.5.6v4.7h-1v-4.7h1Zm7 0c.4 0 .8 0 1 .2.4.1.6.3.8.6l.2 1.1v2.8h-1v-2.6c0-.4 0-.8-.3-1-.2-.2-.5-.3-.8-.3-.4 0-.7 0-1 .3l-.2 1v2.6h-1v-2.6c0-.4-.1-.8-.3-1-.3-.2-.5-.3-1-.3-.3 0-.6 0-.8.3-.2.2-.3.6-.3 1v2.6h-1v-4.7h1v.5l.6-.4.8-.2c.4 0 .7.1 1 .3.3.1.5.4.7.7.1-.3.4-.6.7-.7a2 2 0 0 1 1-.3Zm3 2.3c0-.4 0-.9.2-1.2a2.2 2.2 0 0 1 2-1.2c.3 0 .7 0 1 .2l.6.6v-.7h1v4.7h-1v-.7a2 2 0 0 1-1.7.8c-.4 0-.7 0-1-.3-.4-.2-.7-.5-.9-.9-.2-.3-.3-.8-.3-1.3Zm3.8 0c0-.3 0-.5-.2-.8a1.4 1.4 0 0 0-2.5 0l-.2.8.2 1 .6.5a1.4 1.4 0 0 0 1.4 0c.2-.2.4-.3.5-.6l.2-.8Zm3.4-1.5v2.6c0 .2 0 .3.2.4l.4.1h.6v.8h-.8c-.4 0-.8 0-1-.3-.2-.2-.3-.5-.3-1V117h-.6v-.8h.6v-1.2h1v1.2h1.1v.8h-1.2Zm6.5 1.5v.4h-3.7a1.3 1.3 0 0 0 1.3 1.3c.6 0 1-.2 1.2-.7h1a2.1 2.1 0 0 1-2.2 1.5c-.4 0-.8 0-1.2-.3l-.8-.8c-.2-.4-.3-.8-.3-1.3s0-1 .3-1.3c.2-.4.5-.7.8-.9l1.2-.3c.5 0 .9.1 1.2.3.4.2.7.5.9.8.2.4.3.8.3 1.3Zm-1-.4c0-.3-.2-.6-.5-.8-.2-.2-.5-.4-.9-.4-.3 0-.6.2-.9.4-.2.2-.4.5-.4.8h2.6Z"/></g><rect width="83.4" height="21" x="720.6" y="106.8" stroke="#FFC700" stroke-width=".5" rx="10.5"/><path fill="#FFC700" d="M745.4 117.8c0-.6.2-1 .4-1.5a2.9 2.9 0 0 1 2.6-1.5 3 3 0 0 1 1.8.4c.4.3.8.8 1 1.4h-1a1.9 1.9 0 0 0-1.8-1.2c-.4 0-.8.1-1 .3a2 2 0 0 0-.9.9c-.2.3-.3.8-.3 1.2 0 .5.1 1 .3 1.3l.8.8c.3.2.7.3 1.1.3.5 0 .8 0 1.2-.3.3-.2.5-.4.7-.8h1c-.3.6-.7 1-1.1 1.3-.5.3-1.1.5-1.8.5a2.9 2.9 0 0 1-2.6-1.5c-.2-.5-.4-1-.4-1.6Zm9 3.1c-.4 0-.8 0-1.2-.3l-.8-.8c-.2-.4-.3-.8-.3-1.3s.1-1 .3-1.3c.2-.4.5-.7.9-.9.3-.2.7-.3 1.2-.3l1.2.3c.4.2.6.5.8.9.3.4.4.8.4 1.3s-.1.9-.4 1.3l-.8.8c-.4.2-.8.3-1.3.3Zm0-.7c.3 0 .6 0 .8-.2.3-.1.5-.3.6-.6.2-.2.3-.5.3-1l-.3-.9c-.1-.3-.3-.5-.5-.6l-.8-.2c-.3 0-.6 0-.8.2-.3.1-.4.3-.6.6a2 2 0 0 0-.2 1c0 .4 0 .7.2 1 .1.2.3.4.6.5.2.2.5.2.7.2Zm5.8-4.2c.6 0 1 .2 1.4.6.3.3.5.8.5 1.5v2.7h-.8v-2.6c0-.5 0-.9-.3-1.1-.2-.3-.6-.4-1-.4s-.7.1-1 .4c-.2.3-.3.6-.3 1.1v2.6h-.8v-4.7h.8v.7l.6-.6.9-.2Zm4.2.8v2.7l.1.5.5.2h.6v.6h-.7c-.4 0-.8 0-1-.3-.2-.2-.3-.5-.3-1v-2.7h-.6v-.7h.6V115h.8v1.2h1.2v.7h-1.2Zm1.9 1.7c0-.5 0-1 .2-1.3a2.1 2.1 0 0 1 2-1.2c.4 0 .8.1 1 .3.4.2.6.4.7.7v-.9h.8v4.7h-.8v-.8c-.1.2-.3.5-.7.7a2 2 0 0 1-1 .2 2.1 2.1 0 0 1-2-1.2c-.2-.3-.2-.8-.2-1.2Zm4 0c0-.4-.1-.7-.3-1l-.6-.6-.8-.2c-.2 0-.5 0-.8.2l-.5.6a2 2 0 0 0-.2 1c0 .3 0 .6.2 1l.5.5c.3.2.6.2.8.2.3 0 .6 0 .8-.2.3-.1.5-.3.6-.6.2-.3.2-.6.2-1Zm1.8 0c0-.5 0-1 .3-1.3.2-.4.4-.7.8-.9.3-.2.7-.3 1.2-.3.6 0 1 .2 1.4.5.4.2.6.6.8 1.1h-.9c0-.3-.2-.5-.5-.6-.2-.2-.5-.3-.8-.3-.5 0-.8.2-1.1.5-.3.3-.4.7-.4 1.3 0 .5.1 1 .4 1.3.3.3.6.5 1 .5s.7-.1 1-.3c.2-.1.3-.4.4-.7h.9c-.2.5-.4.9-.8 1.2-.4.3-.9.4-1.4.4-.5 0-.9 0-1.2-.3-.4-.2-.6-.5-.8-.8-.2-.4-.3-.8-.3-1.3Zm6.5-1.7v2.7l.1.5.5.2h.6v.6h-.7c-.5 0-.8 0-1-.3-.2-.2-.3-.5-.3-1v-2.7h-.6v-.7h.6V115h.8v1.2h1.2v.7h-1.2Z"/><g filter="url(#e)"><path fill="#01404F" d="M-181.4 419.3v543.5C58.7 904.4 206 882.6 505 874.2c282.6 3.5 433.3 22.2 686.4 88.6V419.3c-541.7 238-842.2 235.8-1372.8 0Z"/></g><g filter="url(#f)"><path fill="url(#g)" d="M-181.4 241.7v570.6h1372.8V241.7c-541.7 361.4-842.2 358-1372.8 0Z"/></g></g><path fill="#012B34" d="M8 143a8 8 0 1 0 0-16 8 8 0 0 0 0 16ZM395 16a8 8 0 1 0 0-16 8 8 0 0 0 0 16ZM9.5 135V57h-3v78h3ZM57 9.5h338v-3H57v3ZM9.5 57A47.5 47.5 0 0 1 57 9.5v-3A50.5 50.5 0 0 0 6.5 57h3ZM1002 555a8 8 0 1 0 0 16 8 8 0 0 0 0-16ZM725 682a8 8 0 1 0 0 16 8 8 0 0 0 0-16Zm275.5-119v78h3v-78h-3ZM953 688.5H725v3h228v-3Zm47.5-47.5a47.5 47.5 0 0 1-47.5 47.5v3a50.5 50.5 0 0 0 50.5-50.5h-3ZM1002 143a8 8 0 1 1 0-16 8 8 0 0 1 0 16ZM615 16a8 8 0 1 1 0-16 8 8 0 0 1 0 16Zm385.5 119V57h3v78h-3ZM953 9.5H615v-3h338v3Zm47.5 47.5A47.5 47.5 0 0 0 953 9.5v-3a50.5 50.5 0 0 1 50.5 50.5h-3ZM8 555a8 8 0 1 1 0 16 8 8 0 0 1 0-16Zm277 127a8 8 0 1 1 0 16 8 8 0 0 1 0-16ZM9.5 563v78h-3v-78h3ZM57 688.5h228v3H57v-3ZM9.5 641A47.5 47.5 0 0 0 57 688.5v3A50.5 50.5 0 0 1 6.5 641h3Z"/><defs><filter id="d" width="67.2" height="16.4" x="641" y="111.5" color-interpolation-filters="sRGB" filterUnits="userSpaceOnUse"><feFlood flood-opacity="0" result="BackgroundImageFix"/><feColorMatrix in="SourceAlpha" result="hardAlpha" values="0 0 0 0 0 0 0 0 0 0 0 0 0 0 0 0 0 0 127 0"/><feOffset dx="2.2" dy="2.2"/><feGaussianBlur stdDeviation="2.4"/><feComposite in2="hardAlpha" operator="out"/><feColorMatrix values="0 0 0 0 0.65 0 0 0 0 0.429 0 0 0 0 0 0 0 0 1 0"/><feBlend in2="BackgroundImageFix" result="effect1_dropShadow_150_6898"/><feBlend in="SourceGraphic" in2="effect1_dropShadow_150_6898" result="shape"/></filter><filter id="e" width="1582.8" height="753.4" x="-286.4" y="314.3" color-interpolation-filters="sRGB" filterUnits="userSpaceOnUse"><feFlood flood-opacity="0" result="BackgroundImageFix"/><feBlend in="SourceGraphic" in2="BackgroundImageFix" result="shape"/><feGaussianBlur result="effect1_foregroundBlur_150_6898" stdDeviation="52.5"/></filter><filter id="f" width="2063" height="1260.8" x="-526.5" y="-103.4" color-interpolation-filters="sRGB" filterUnits="userSpaceOnUse"><feFlood flood-opacity="0" result="BackgroundImageFix"/><feBlend in="SourceGraphic" in2="BackgroundImageFix" result="shape"/><feGaussianBlur result="effect1_foregroundBlur_150_6898" stdDeviation="172.5"/></filter><linearGradient id="c" x1="674.9" x2="674.9" y1="106.5" y2="128.1" gradientUnits="userSpaceOnUse"><stop stop-color="#FADB6D"/><stop offset=".8" stop-color="#FFB800"/></linearGradient><linearGradient id="g" x1="505" x2="505" y1="418.7" y2="812.3" gradientUnits="userSpaceOnUse"><stop offset="0" stop-opacity="0"/><stop offset="1" stop-color="#002D38"/></linearGradient><clipPath id="a"><rect width="814" height="528.7" x="98" y="85" fill="#fff" rx="17"/></clipPath><clipPath id="b"><path fill="#fff" d="M478.6 398.3h52.8v52.8h-52.8z"/></clipPath></defs></svg>