<svg width="507" height="118" viewBox="0 0 507 118" fill="none" xmlns="http://www.w3.org/2000/svg">
<path d="M169.215 85.6831H179.949V31.8353H169.215V25.5185H189.181C194.188 25.5185 198.708 25.8277 202.743 26.4461C206.777 27.0645 210.665 28.1247 214.405 29.6266C218.41 31.2169 221.752 33.2342 224.432 35.6784C227.112 38.1227 229.262 41.2296 230.882 44.9991C232.531 48.9158 233.355 53.3627 233.355 58.3396C233.355 62.9926 232.678 67.2038 231.323 70.9733C229.998 74.7428 228.099 77.938 225.625 80.559C223.181 83.1211 220.177 85.2709 216.613 87.0084C213.08 88.7459 209.163 90.0122 204.863 90.8073C200.593 91.6024 195.911 92 190.816 92H169.215V85.6831ZM190.374 85.6831C194.203 85.6831 197.604 85.4181 200.578 84.888C203.582 84.3285 206.424 83.4303 209.104 82.1934C211.902 80.8977 214.213 79.2191 216.039 77.1576C217.894 75.0962 219.352 72.5046 220.412 69.383C221.502 66.232 222.047 62.5508 222.047 58.3396C222.047 55.2769 221.752 52.4645 221.163 49.9024C220.574 47.3403 219.75 45.1316 218.69 43.2763C217.659 41.5094 216.363 39.9486 214.802 38.5939C213.241 37.2098 211.563 36.0907 209.766 35.2367C208.058 34.4416 206.115 33.7937 203.936 33.2931C201.756 32.763 199.548 32.3949 197.309 32.1887C195.189 32.012 192.877 31.9237 190.374 31.9237V85.6831ZM264.706 93.1927C261.172 93.1927 257.918 92.5301 254.944 91.2049C251.97 89.8502 249.511 87.9949 247.567 85.639C245.653 83.3419 244.18 80.7504 243.149 77.8644C242.148 74.9784 241.648 71.9893 241.648 68.8971C241.648 66.2172 241.957 63.6257 242.575 61.1225C243.223 58.6193 244.165 56.3076 245.402 54.1872C248.112 49.5637 251.734 46.3979 256.269 44.6899C258.654 43.777 261.29 43.3205 264.176 43.3205C267.18 43.3205 269.978 43.8506 272.569 44.9108C275.161 45.9709 277.428 47.5023 279.372 49.5048C281.345 51.5663 282.891 54.1578 284.01 57.2794C285.159 60.401 285.762 63.8613 285.821 67.6602H251.763V68.0136C251.763 73.1378 252.853 77.4521 255.032 80.9566C256.122 82.7235 257.58 84.1076 259.405 85.1089C261.231 86.0807 263.307 86.5666 265.634 86.5666C267.695 86.5666 269.683 86.1396 271.597 85.2856C273.541 84.4021 275.22 83.1358 276.633 81.4866C278.076 79.808 279.107 77.8497 279.725 75.6115L284.894 77.246C284.128 80.4854 282.818 83.3125 280.962 85.7273C279.107 88.1127 276.795 89.9533 274.027 91.249C271.259 92.5448 268.152 93.1927 264.706 93.1927ZM276.103 62.8895C276.044 60.0918 275.485 57.6181 274.425 55.4683C273.394 53.289 271.995 51.5957 270.228 50.3883C268.491 49.1809 266.562 48.5772 264.441 48.5772C262.291 48.5772 260.318 49.1809 258.522 50.3883C256.726 51.5957 255.253 53.289 254.105 55.4683C252.986 57.6181 252.308 60.0918 252.073 62.8895H276.103ZM316.863 93.1927C313.329 93.1927 310.075 92.5301 307.101 91.2049C304.126 89.8502 301.667 87.9949 299.724 85.639C297.81 83.3419 296.337 80.7504 295.306 77.8644C294.305 74.9784 293.804 71.9893 293.804 68.8971C293.804 66.2172 294.114 63.6257 294.732 61.1225C295.38 58.6193 296.322 56.3076 297.559 54.1872C300.269 49.5637 303.891 46.3979 308.426 44.6899C310.811 43.777 313.447 43.3205 316.333 43.3205C319.337 43.3205 322.135 43.8506 324.726 44.9108C327.318 45.9709 329.585 47.5023 331.529 49.5048C333.502 51.5663 335.048 54.1578 336.167 57.2794C337.316 60.401 337.919 63.8613 337.978 67.6602H303.92V68.0136C303.92 73.1378 305.01 77.4521 307.189 80.9566C308.279 82.7235 309.736 84.1076 311.562 85.1089C313.388 86.0807 315.464 86.5666 317.791 86.5666C319.852 86.5666 321.84 86.1396 323.754 85.2856C325.698 84.4021 327.377 83.1358 328.79 81.4866C330.233 79.808 331.264 77.8497 331.882 75.6115L337.051 77.246C336.285 80.4854 334.974 83.3125 333.119 85.7273C331.264 88.1127 328.952 89.9533 326.184 91.249C323.416 92.5448 320.309 93.1927 316.863 93.1927ZM328.26 62.8895C328.201 60.0918 327.642 57.6181 326.581 55.4683C325.551 53.289 324.152 51.5957 322.385 50.3883C320.647 49.1809 318.718 48.5772 316.598 48.5772C314.448 48.5772 312.475 49.1809 310.679 50.3883C308.882 51.5957 307.41 53.289 306.261 55.4683C305.142 57.6181 304.465 60.0918 304.229 62.8895H328.26ZM340.351 104.413H350.732V49.549H342.162V44.6015L359.964 43.3205V52.1994C361.555 49.3134 363.572 47.1194 366.016 45.6175C368.49 44.0862 371.273 43.3205 374.365 43.3205C378.017 43.3205 381.3 44.4248 384.216 46.6335C387.131 48.8128 389.399 51.8166 391.019 55.645C392.579 59.4439 393.36 63.6257 393.36 68.1903C393.36 73.0789 392.535 77.4227 390.886 81.2216C389.237 84.9911 386.896 87.936 383.862 90.0564C380.829 92.1472 377.295 93.1927 373.261 93.1927C370.64 93.1927 368.181 92.5743 365.884 91.3374C363.616 90.0711 361.731 88.3336 360.229 86.1249V104.324H369.992V109.714H340.351V104.413ZM371.538 88.2011C373.54 88.2011 375.322 87.6121 376.883 86.4341C378.444 85.2267 379.681 83.5923 380.594 81.5308C382.36 77.4668 383.244 72.8433 383.244 67.6602C383.244 64.303 382.802 61.2551 381.919 58.5163C381.035 55.7481 379.695 53.4657 377.899 51.6693C376.073 49.8435 373.953 48.9306 371.538 48.9306C369.211 48.9306 367.135 49.7699 365.309 51.4485C363.513 53.0976 362.114 55.4094 361.113 58.3838C360.112 61.3581 359.611 64.7301 359.611 68.4996C359.611 73.3881 360.524 77.7908 362.35 81.7075C363.263 83.7101 364.514 85.3003 366.105 86.4783C367.724 87.6268 369.535 88.2011 371.538 88.2011ZM398.295 92V85.6831H406.246L429.526 25.5185H439.995L463.628 85.6831H471.049V92H442.469V85.6831H452.319L446.179 69.7364H420.647L414.86 85.6831H425.992V92H398.295ZM422.723 64.1263H443.971L433.06 34.1765L422.723 64.1263ZM474.041 92V85.6831H484.819V31.8353H474.041V25.5185H505.36V31.8353H495.2V85.6831H505.36V92H474.041Z" fill="url(#paint0_linear_521_20401)"/>
<path d="M14.502 84.2392V69.6626H-0.000244141V84.2392H14.502Z" fill="url(#paint1_linear_521_20401)"/>
<path d="M121.334 56.755C121.445 61.0946 121.002 65.4342 120.227 69.7738C118.788 77.1178 116.021 84.1279 112.146 90.3591C107.275 98.1481 100.522 104.602 92.662 109.275C83.9164 114.394 73.8423 117.064 63.7682 116.842C54.2477 116.73 44.8378 114.171 36.535 109.387C28.8964 105.047 22.4755 98.8157 17.6045 91.5831C17.3831 91.2492 17.2724 91.0267 17.051 90.6929C18.2688 92.362 20.1507 93.8085 21.7006 95.1438C23.4719 96.5903 25.4645 97.9256 27.4572 99.0383C31.664 101.375 36.2029 102.822 40.9631 103.378C42.0702 103.489 43.1772 103.6 44.1736 103.6C52.9192 103.934 61.6648 101.264 68.7499 95.9227C70.6319 94.5874 72.2924 93.0296 73.8423 91.2493C78.7133 85.9082 82.1451 79.1206 83.3629 71.9992C83.9164 68.7724 84.1378 65.4342 83.8057 62.2073C83.8057 61.7623 83.0308 56.755 83.0308 56.755C83.0308 56.755 85.6877 55.4198 90.0051 55.4198C98.4187 55.4198 109.71 64.6553 110.264 75.5599C110.043 69.1062 108.382 63.0975 105.393 57.8678C104.397 55.9761 103.179 54.1958 101.85 52.638C94.7654 43.7362 83.9164 37.9501 71.6282 37.9501C68.4178 37.9501 65.3181 38.2839 62.3291 39.0628C62.1077 39.1741 61.7755 39.1741 61.5541 39.2854C56.7939 40.5094 52.6978 42.5123 46.9412 46.6293C44.0629 48.6322 38.1955 53.862 33.6567 57.979C31.2212 60.2045 27.4572 57.8677 28.2322 54.7521C28.8964 51.8591 30.0034 48.5209 31.664 44.9602C22.4755 33.0542 22.2541 19.1452 40.1882 6.79405C50.7051 -0.438609 67.975 -2.4415 83.9164 3.4559C93.8798 -1.6626 107.607 -2.10768 120.338 11.5787C121.556 12.914 120.67 15.2507 118.788 15.2507C115.135 15.362 110.153 16.2521 106.279 19.1452C106.832 19.8128 107.275 20.3692 107.829 21.0368C115.799 31.4964 121.002 43.7362 121.334 56.755Z" fill="url(#paint2_linear_521_20401)"/>
<defs>
<linearGradient id="paint0_linear_521_20401" x1="337.243" y1="0" x2="337.243" y2="118" gradientUnits="userSpaceOnUse">
<stop stop-color="white"/>
<stop offset="0.5" stop-color="#EBE5FB"/>
<stop offset="1" stop-color="#7FABFF"/>
</linearGradient>
<linearGradient id="paint1_linear_521_20401" x1="7.11407" y1="67.4164" x2="7.11407" y2="85.8435" gradientUnits="userSpaceOnUse">
<stop stop-color="white"/>
<stop offset="0.592892" stop-color="#EBE5FB"/>
<stop offset="1" stop-color="#7FABFF"/>
</linearGradient>
<linearGradient id="paint2_linear_521_20401" x1="69.2162" y1="0.000244141" x2="69.2162" y2="135.731" gradientUnits="userSpaceOnUse">
<stop stop-color="white"/>
<stop offset="0.497369" stop-color="#EBE5FB"/>
<stop offset="1" stop-color="#7FABFF"/>
</linearGradient>
</defs>
</svg>
