<svg width="1226" height="208" viewBox="0 0 1226 208" fill="none" xmlns="http://www.w3.org/2000/svg">
<path fill-rule="evenodd" clip-rule="evenodd" d="M752.85 70.4326C757.024 66.8308 757.529 60.4585 753.343 56.8719C745.665 50.2949 736.55 45.5296 726.673 42.9946C713.558 39.6286 699.726 40.3565 687.036 45.0807C674.346 49.8048 663.405 58.299 655.684 69.4224C647.962 80.5457 643.829 93.7655 643.84 107.306C643.851 120.847 648.005 134.06 655.744 145.171C663.483 156.283 674.437 164.759 687.134 169.463C699.832 174.168 713.665 174.874 726.775 171.487C736.648 168.936 745.755 164.156 753.422 157.567C757.603 153.974 757.088 147.603 752.908 144.007C748.729 140.412 742.475 140.994 738.07 144.309C733.233 147.949 727.705 150.627 721.782 152.157C712.616 154.525 702.946 154.031 694.07 150.743C685.194 147.454 677.536 141.528 672.126 133.761C666.715 125.993 663.811 116.756 663.804 107.29C663.796 97.8245 666.686 88.5829 672.084 80.8069C677.482 73.0309 685.13 67.0928 694.001 63.7903C702.872 60.4878 712.542 59.9789 721.71 62.332C727.636 63.8528 733.169 66.5218 738.011 70.1541C742.421 73.4622 748.676 74.0343 752.85 70.4326ZM759.042 79.7088L744.596 87.2979C738.817 90.3333 738.744 93.7052 740.574 97.1887L746.521 108.51C749.266 113.735 757.405 111.682 759.644 107.173C760.029 111.415 758.36 120.811 757.477 124.978C755.161 135.92 769.781 139.627 772.899 130.211C775.037 123.754 775.837 115.334 775.969 111.931C776.258 98.4449 772.365 87.5259 770.383 83.7521C767.089 77.4819 761.45 78.444 759.042 79.7088ZM808.884 93.4616C806.619 97.4495 805.487 101.979 805.487 107.05C805.487 112.121 806.619 116.65 808.884 120.638C811.198 124.626 814.324 127.752 818.263 130.017C822.251 132.233 826.706 133.34 831.63 133.34C837.439 133.34 842.486 131.888 846.769 128.983C851.101 126.029 854.129 121.918 855.852 116.65H843.963C842.781 119.112 841.107 120.983 838.941 122.263C836.824 123.494 834.362 124.109 831.556 124.109C828.553 124.109 825.869 123.42 823.506 122.041C821.192 120.614 819.371 118.62 818.041 116.06C816.761 113.45 816.121 110.447 816.121 107.05C816.121 103.604 816.761 100.6 818.041 98.0403C819.371 95.4802 821.192 93.5108 823.506 92.1323C825.869 90.7046 828.553 89.9907 831.556 89.9907C834.362 89.9907 836.824 90.6061 838.941 91.8369C841.107 93.0677 842.781 94.914 843.963 97.3756H855.852C854.129 92.1569 851.101 88.0706 846.769 85.1166C842.436 82.1626 837.39 80.6856 831.63 80.6856C826.706 80.6856 822.251 81.818 818.263 84.0827C814.324 86.2982 811.198 89.4245 808.884 93.4616ZM896.074 93.4616C893.661 92.0831 890.904 91.3938 887.803 91.3938C885.095 91.3938 882.633 91.9108 880.418 92.9447C878.202 93.9293 876.43 95.3079 875.101 97.0802V78.2486H864.762V132.897H875.101V110.299C875.101 107.05 875.913 104.564 877.538 102.841C879.212 101.068 881.476 100.182 884.332 100.182C887.138 100.182 889.354 101.068 890.978 102.841C892.603 104.564 893.415 107.05 893.415 110.299V132.897H903.754V108.896C903.754 105.204 903.065 102.053 901.686 99.4434C900.357 96.7848 898.486 94.7909 896.074 93.4616ZM913.443 101.29C911.818 104.49 911.006 108.158 911.006 112.293C911.006 116.478 911.818 120.195 913.443 123.445C915.117 126.645 917.357 129.131 920.163 130.903C923.019 132.676 926.17 133.562 929.616 133.562C932.668 133.562 935.352 132.947 937.666 131.716C940.029 130.436 941.875 128.836 943.204 126.915V132.897H953.617V91.9846H943.204V97.8187C941.826 95.9479 939.98 94.397 937.666 93.1662C935.401 91.9354 932.742 91.32 929.69 91.32C926.194 91.32 923.019 92.1816 920.163 93.9047C917.357 95.6279 915.117 98.0895 913.443 101.29ZM941.727 106.016C942.712 107.788 943.204 109.93 943.204 112.441C943.204 114.952 942.712 117.118 941.727 118.94C940.743 120.712 939.413 122.091 937.739 123.075C936.066 124.011 934.268 124.478 932.348 124.478C930.478 124.478 928.705 123.986 927.031 123.001C925.407 122.017 924.077 120.614 923.043 118.792C922.059 116.921 921.566 114.755 921.566 112.293C921.566 109.832 922.059 107.715 923.043 105.942C924.077 104.121 925.407 102.742 927.031 101.807C928.656 100.871 930.428 100.403 932.348 100.403C934.268 100.403 936.066 100.896 937.739 101.88C939.413 102.816 940.743 104.194 941.727 106.016ZM975.831 120.269V100.477H984.988V91.9846H975.831V81.8672H965.418V91.9846H960.544V100.477H965.418V120.195C965.418 128.663 969.775 132.897 978.489 132.897H984.988V124.183H980.188C978.612 124.183 977.48 123.888 976.791 123.297C976.151 122.657 975.831 121.648 975.831 120.269ZM1008.01 93.2401C1005.89 94.4709 1004.17 96.1694 1002.84 98.3357V91.9846H992.503V132.897H1002.84V112.515C1002.84 108.724 1003.65 106.065 1005.28 104.539C1006.95 103.013 1009.41 102.25 1012.66 102.25H1015.4V91.3938C1012.64 91.3938 1010.18 92.0092 1008.01 93.2401ZM1029.97 130.977C1033.12 132.7 1036.67 133.562 1040.61 133.562C1044.59 133.562 1048.19 132.7 1051.39 130.977C1054.64 129.205 1057.2 126.719 1059.07 123.518C1060.99 120.318 1061.95 116.626 1061.95 112.441C1061.95 108.256 1061.01 104.564 1059.14 101.364C1057.32 98.1634 1054.81 95.7017 1051.61 93.9786C1048.41 92.2062 1044.84 91.32 1040.9 91.32C1036.96 91.32 1033.39 92.2062 1030.19 93.9786C1026.99 95.7017 1024.46 98.1634 1022.59 101.364C1020.76 104.564 1019.85 108.256 1019.85 112.441C1019.85 116.626 1020.74 120.318 1022.51 123.518C1024.33 126.719 1026.82 129.205 1029.97 130.977ZM1045.85 123.223C1044.22 124.109 1042.48 124.552 1040.61 124.552C1037.65 124.552 1035.19 123.518 1033.22 121.451C1031.3 119.334 1030.34 116.33 1030.34 112.441C1030.34 108.552 1031.33 105.573 1033.29 103.505C1035.31 101.388 1037.8 100.33 1040.75 100.33C1043.71 100.33 1046.19 101.388 1048.21 103.505C1050.28 105.573 1051.31 108.552 1051.31 112.441C1051.31 115.05 1050.82 117.266 1049.84 119.087C1048.85 120.909 1047.52 122.288 1045.85 123.223ZM1077.14 130.977C1080.29 132.7 1083.84 133.562 1087.78 133.562C1091.77 133.562 1095.36 132.7 1098.56 130.977C1101.81 129.205 1104.37 126.719 1106.24 123.518C1108.16 120.318 1109.12 116.626 1109.12 112.441C1109.12 108.256 1108.18 104.564 1106.31 101.364C1104.49 98.1634 1101.98 95.7017 1098.78 93.9786C1095.58 92.2062 1092.01 91.32 1088.07 91.32C1084.13 91.32 1080.56 92.2062 1077.36 93.9786C1074.16 95.7017 1071.63 98.1634 1069.76 101.364C1067.94 104.564 1067.03 108.256 1067.03 112.441C1067.03 116.626 1067.91 120.318 1069.68 123.518C1071.51 126.719 1073.99 129.205 1077.14 130.977ZM1093.02 123.223C1091.4 124.109 1089.65 124.552 1087.78 124.552C1084.82 124.552 1082.36 123.518 1080.39 121.451C1078.47 119.334 1077.51 116.33 1077.51 112.441C1077.51 108.552 1078.5 105.573 1080.47 103.505C1082.49 101.388 1084.97 100.33 1087.93 100.33C1090.88 100.33 1093.37 101.388 1095.38 103.505C1097.45 105.573 1098.49 108.552 1098.49 112.441C1098.49 115.05 1097.99 117.266 1097.01 119.087C1096.02 120.909 1094.69 122.288 1093.02 123.223ZM1179.7 96.0463C1176.65 92.9447 1172.61 91.3938 1167.59 91.3938C1164.64 91.3938 1161.88 92.1077 1159.32 93.5355C1156.81 94.9632 1154.89 96.8587 1153.56 99.2219C1152.18 96.711 1150.24 94.7909 1147.73 93.4616C1145.21 92.0831 1142.36 91.3938 1139.16 91.3938C1136.65 91.3938 1134.33 91.8862 1132.22 92.8708C1130.15 93.8555 1128.45 95.2094 1127.12 96.9325V91.9846H1116.78V132.897H1127.12V110.299C1127.12 107.099 1127.93 104.662 1129.56 102.988C1131.23 101.265 1133.5 100.403 1136.35 100.403C1139.16 100.403 1141.37 101.265 1143 102.988C1144.62 104.662 1145.44 107.099 1145.44 110.299V132.897H1155.78V110.299C1155.78 107.099 1156.59 104.662 1158.21 102.988C1159.89 101.265 1162.13 100.403 1164.93 100.403C1167.74 100.403 1169.95 101.265 1171.58 102.988C1173.2 104.662 1174.02 107.099 1174.02 110.299V132.897H1184.35V108.896C1184.35 103.382 1182.8 99.0988 1179.7 96.0463ZM1200.89 131.79C1203.55 132.971 1206.55 133.562 1209.9 133.562C1213.15 133.562 1215.98 133.045 1218.39 132.011C1220.85 130.928 1222.73 129.451 1224.01 127.58C1225.34 125.709 1226 123.592 1226 121.229C1225.95 118.521 1225.21 116.355 1223.78 114.73C1222.41 113.056 1220.76 111.826 1218.84 111.038C1216.92 110.25 1214.48 109.487 1211.53 108.748C1208.62 108.01 1206.48 107.296 1205.1 106.607C1203.72 105.868 1203.03 104.81 1203.03 103.431C1203.03 102.2 1203.52 101.24 1204.51 100.551C1205.54 99.8619 1207 99.5173 1208.87 99.5173C1210.89 99.5173 1212.49 100.01 1213.67 100.994C1214.9 101.93 1215.59 103.21 1215.73 104.834H1225.63C1225.34 100.699 1223.74 97.4249 1220.83 95.0125C1217.93 92.5508 1214.04 91.32 1209.16 91.32C1205.86 91.32 1202.98 91.8615 1200.52 92.9447C1198.11 94.0278 1196.24 95.5048 1194.91 97.3756C1193.63 99.2465 1192.99 101.314 1192.99 103.579C1192.99 106.336 1193.68 108.527 1195.06 110.152C1196.48 111.776 1198.16 112.983 1200.08 113.77C1202.05 114.558 1204.56 115.321 1207.61 116.06C1210.57 116.847 1212.71 117.586 1214.04 118.275C1215.41 118.915 1216.1 119.9 1216.1 121.229C1216.1 122.46 1215.54 123.469 1214.41 124.257C1213.32 125.045 1211.8 125.438 1209.83 125.438C1207.81 125.438 1206.11 124.922 1204.73 123.888C1203.4 122.854 1202.64 121.549 1202.44 119.974H1192.03C1192.18 122.484 1193.01 124.774 1194.54 126.842C1196.12 128.909 1198.23 130.559 1200.89 131.79Z" fill="white"/>
<path d="M147.332 207.547H0V194.611H147.332V207.547ZM2.72728 204.82H144.613V197.314H2.72728V204.82Z" fill="#CBA1A4"/>
<path d="M134.843 187.029H12.4985V174.076H134.843V187.029ZM15.2258 184.31H132.124V176.803H15.2258V184.31Z" fill="#CBA1A4"/>
<path d="M140.908 197.248H6.42871V184.312H140.908V197.248ZM9.13097 194.521H138.181V187.015H9.14767L9.13097 194.521Z" fill="#CBA1A4"/>
<path d="M37.2443 65.5954H12.4985V62.8682H37.2443V65.5954Z" fill="#CBA1A4"/>
<path d="M134.839 65.5954H110.102V62.8682H134.839V65.5954Z" fill="#CBA1A4"/>
<path d="M134.847 71.9492H110.102V74.6765H134.847V71.9492Z" fill="#CBA1A4"/>
<path d="M134.847 165.012H110.102V167.739H134.847V165.012Z" fill="#CBA1A4"/>
<path d="M131.659 167.738H113.051V71.9492H131.659V167.738ZM115.812 165.011H128.981V74.6682H115.77L115.812 165.011Z" fill="#CBA1A4"/>
<path d="M115.77 88.7805H113.051C113.051 85.1191 117.663 82.0665 122.126 79.1141C125.161 77.104 128.94 74.6019 128.94 73.084H131.659C131.659 76.0698 127.939 78.5302 123.627 81.3826C120.124 83.7012 115.77 86.587 115.77 88.7805Z" fill="#CBA1A4"/>
<path d="M115.77 104.301H113.051C113.051 100.639 117.663 97.6283 122.126 94.6341C125.161 92.6241 128.94 90.122 128.94 88.5957H131.659C131.659 91.5815 127.939 94.0503 123.627 96.936C120.124 99.2213 115.77 102.107 115.77 104.301Z" fill="#CBA1A4"/>
<path d="M115.77 119.815H113.051C113.051 116.162 117.663 113.142 122.126 110.157C125.161 108.147 128.94 105.644 128.94 104.118H131.659C131.659 107.104 127.939 109.573 123.627 112.458C120.124 114.744 115.77 117.621 115.77 119.815Z" fill="#CBA1A4"/>
<path d="M115.77 135.335H113.051C113.051 131.682 117.663 128.663 122.126 125.669C125.161 123.659 128.94 121.157 128.94 119.639H131.659C131.659 122.625 127.939 125.085 123.627 127.979C120.124 130.256 115.77 133.142 115.77 135.335Z" fill="#CBA1A4"/>
<path d="M115.77 150.858H113.051C113.051 147.196 117.663 144.185 122.126 141.191C125.161 139.181 128.94 136.679 128.94 135.161H131.659C131.659 138.139 127.939 140.607 123.627 143.46C120.124 145.778 115.77 148.664 115.77 150.858Z" fill="#CBA1A4"/>
<path d="M115.77 166.379H113.051C113.051 162.717 117.663 159.706 122.126 156.712C125.161 154.702 128.94 152.2 128.94 150.674H131.659C131.659 153.66 127.939 156.128 123.627 159.014C120.124 161.299 115.77 164.185 115.77 166.379Z" fill="#CBA1A4"/>
<path d="M37.2443 71.9492H12.4985V74.6765H37.2443V71.9492Z" fill="#CBA1A4"/>
<path d="M37.2443 165.012H12.4985V167.739H37.2443V165.012Z" fill="#CBA1A4"/>
<path d="M15.6724 71.9492H34.288V167.738H15.6724V71.9492ZM31.5607 74.6682H18.3997V165.011H31.5607V74.6682Z" fill="#CBA1A4"/>
<path d="M31.5607 88.7805H34.288C34.288 85.1191 29.6758 82.0665 25.2137 79.1141C22.1778 77.104 18.3997 74.6019 18.3997 73.084H15.6724C15.6724 76.0698 19.3922 78.5302 23.7125 81.3826C27.2071 83.7012 31.5607 86.587 31.5607 88.7805Z" fill="#CBA1A4"/>
<path d="M31.5607 104.301H34.288C34.288 100.639 29.6758 97.6283 25.2137 94.6341C22.1778 92.6241 18.3997 90.122 18.3997 88.5957H15.6724C15.6724 91.5815 19.4005 94.0503 23.7125 96.936C27.2071 99.2213 31.5607 102.107 31.5607 104.301Z" fill="#CBA1A4"/>
<path d="M31.5607 119.815H34.288C34.288 116.162 29.6758 113.142 25.2137 110.157C22.1778 108.147 18.3997 105.644 18.3997 104.118H15.6724C15.6724 107.104 19.3922 109.573 23.7125 112.458C27.2071 114.744 31.5607 117.621 31.5607 119.815Z" fill="#CBA1A4"/>
<path d="M31.5607 135.335H34.288C34.288 131.682 29.6758 128.663 25.2137 125.669C22.1778 123.659 18.3997 121.157 18.3997 119.639H15.6724C15.6724 122.625 19.3922 125.085 23.7125 127.979C27.2071 130.256 31.5607 133.142 31.5607 135.335Z" fill="#CBA1A4"/>
<path d="M31.5607 150.858H34.288C34.288 147.196 29.6758 144.185 25.2137 141.191C22.1778 139.181 18.3997 136.679 18.3997 135.161H15.6724C15.6724 138.139 19.3922 140.607 23.7125 143.46C27.2071 145.778 31.5607 148.664 31.5607 150.858Z" fill="#CBA1A4"/>
<path d="M31.5607 166.379H34.288C34.288 162.717 29.6758 159.706 25.2137 156.712C22.1778 154.702 18.3997 152.2 18.3997 150.674H15.6724C15.6724 153.66 19.4005 156.128 23.7125 159.014C27.2071 161.299 31.5607 164.185 31.5607 166.379Z" fill="#CBA1A4"/>
<path d="M73.7715 44.6758L41.8447 97.8037L73.538 116.528L105.456 97.812L73.7715 44.6758ZM100.227 94.3091L75.0226 82.9245L75.1143 52.2405L100.227 94.3091ZM72.3036 82.9829L47.1325 94.3091L72.387 52.2571L72.3036 82.9829ZM46.6821 97.4951L72.2953 85.9688L72.2202 112.566L46.6821 97.4951ZM75.0393 85.9104L100.677 97.4868L74.9642 112.566L75.0393 85.9104Z" fill="#CBA1A4"/>
<path d="M73.5662 121.408L41.7896 101.925L73.5579 149.932L105.635 101.875L73.5662 121.408ZM75.0258 123.71L96.5272 110.607L75.0258 142.834V123.71ZM72.2985 123.827V143.093L50.8472 110.691L72.2985 123.827Z" fill="#CBA1A4"/>
<path d="M73.6661 29.7893C70.7909 29.7893 67.9803 28.9367 65.5897 27.3393C63.199 25.7419 61.3358 23.4715 60.2355 20.8152C59.1352 18.1589 58.8473 15.2359 59.4082 12.416C59.9692 9.59605 61.3537 7.00575 63.3868 4.97269C65.4198 2.93963 68.0101 1.5551 70.8301 0.994182C73.65 0.433261 76.5729 0.721133 79.2293 1.82142C81.8856 2.92171 84.156 4.78499 85.7534 7.17562C87.3507 9.56625 88.2033 12.3769 88.2033 15.2521C88.1989 19.1062 86.6659 22.8012 83.9406 25.5265C81.2153 28.2518 77.5203 29.7848 73.6661 29.7893V29.7893ZM73.6661 3.33372C71.3069 3.33372 69.0007 4.03341 67.0392 5.3443C65.0776 6.65519 63.549 8.51837 62.6465 10.6982C61.744 12.878 61.5083 15.2765 61.9692 17.5902C62.4301 19.904 63.5668 22.0291 65.2356 23.6968C66.9044 25.3644 69.0304 26.4997 71.3444 26.9589C73.6585 27.4182 76.0569 27.1808 78.236 26.2768C80.4152 25.3728 82.2773 23.8429 83.5868 21.8804C84.8963 19.918 85.5944 17.6113 85.5928 15.2521C85.5961 13.6833 85.2901 12.1293 84.6923 10.679C84.0945 9.22858 83.2166 7.91032 82.1089 6.79951C81.0012 5.68869 79.6854 4.80714 78.2367 4.20529C76.788 3.60345 75.2349 3.29312 73.6661 3.29202V3.33372Z" fill="#CBA1A4"/>
<path d="M73.6709 24.1522C71.9022 24.1538 70.1727 23.6309 68.7013 22.6495C67.2299 21.668 66.0827 20.2722 65.4047 18.6386C64.7267 17.0051 64.5484 15.2071 64.8925 13.4722C65.2365 11.7373 66.0874 10.1434 67.3374 8.89218C68.5875 7.64095 70.1806 6.78858 71.9152 6.44292C73.6498 6.09726 75.4479 6.27383 77.0821 6.95029C78.7163 7.62676 80.1132 8.77274 81.096 10.2432C82.0788 11.7137 82.6034 13.4427 82.6034 15.2113C82.6011 17.5805 81.6596 19.8521 79.9852 21.5281C78.3107 23.2041 76.04 24.1478 73.6709 24.1522ZM73.6709 9.08954C72.4577 9.08789 71.2714 9.44622 70.262 10.1192C69.2526 10.7921 68.4656 11.7494 68.0006 12.8699C67.5356 13.9904 67.4135 15.2237 67.6498 16.4136C67.886 17.6035 68.4701 18.6965 69.3279 19.5544C70.1857 20.4122 71.2787 20.9962 72.4686 21.2325C73.6585 21.4687 74.8918 21.3466 76.0123 20.8816C77.1328 20.4166 78.0901 19.6296 78.763 18.6202C79.436 17.6108 79.7943 16.4245 79.7927 15.2113C79.7905 13.5884 79.1448 12.0326 77.9972 10.885C76.8496 9.73744 75.2938 9.09175 73.6709 9.08954V9.08954Z" fill="#CBA1A4"/>
<path d="M73.6707 17.7388C75.0664 17.7388 76.1978 16.6074 76.1978 15.2117C76.1978 13.816 75.0664 12.6846 73.6707 12.6846C72.275 12.6846 71.1436 13.816 71.1436 15.2117C71.1436 16.6074 72.275 17.7388 73.6707 17.7388Z" fill="#CBA1A4"/>
<path d="M114.678 23.2164C106.835 15.3369 96.8792 9.8944 86.0124 7.54492C86.6249 8.531 87.1176 9.58656 87.4803 10.6892C99.1197 13.7016 109.461 20.4239 116.939 29.8384C124.416 39.2529 128.624 50.8472 128.923 62.8664H116.413C116.115 53.8774 112.998 45.2098 107.501 38.0908C102.005 30.9718 94.4083 25.7623 85.7872 23.1997C85.239 24.0269 84.6104 24.798 83.9106 25.5017C92.4459 27.778 99.9917 32.8067 105.378 39.808C110.764 46.8094 113.69 55.3923 113.702 64.2258V65.5936H131.634V64.2258C131.658 56.609 130.171 49.0629 127.261 42.024C124.35 34.985 120.074 28.5926 114.678 23.2164Z" fill="#CBA1A4"/>
<path d="M61.5213 23.1997C52.9008 25.7634 45.305 30.9732 39.8087 38.092C34.3125 45.2107 31.1944 53.8777 30.8956 62.8664H18.3851C18.6849 50.8472 22.8921 39.2529 30.3699 29.8384C37.8476 20.4239 48.1888 13.7017 59.8282 10.6892C60.1892 9.58591 60.6821 8.53016 61.2961 7.54492C48.3569 10.3696 36.7731 17.5352 28.4682 27.8518C20.1634 38.1683 15.6371 51.0152 15.6411 64.2592V65.627H33.6312V64.2592C33.6441 55.4234 36.5725 46.8389 41.9621 39.8372C47.3517 32.8356 54.9012 27.8082 63.4396 25.535C62.7238 24.8225 62.0812 24.0402 61.5213 23.1997V23.1997Z" fill="#CBA1A4"/>
<path d="M62.9485 9.98979C61.906 10.19 60.8718 10.4318 59.8543 10.6904C59.1718 12.7666 58.9673 14.9702 59.2561 17.1366C59.545 19.3029 60.3197 21.376 61.5223 23.2009C62.4148 22.934 63.3155 22.7005 64.2246 22.4919C62.8641 20.7342 62.0234 18.6304 61.7979 16.4191C61.5723 14.2079 61.9709 11.9777 62.9485 9.98145V9.98979Z" fill="#CBA1A4"/>
<path d="M73.6708 3.29169C75.2499 3.28986 76.8135 3.60314 78.27 4.21323C79.7265 4.82332 81.0466 5.71793 82.153 6.84466C83.4541 7.03649 84.7384 7.27001 86.0145 7.54524C84.7124 5.44342 82.8952 3.70892 80.735 2.50607C78.5748 1.30322 76.1433 0.671875 73.6708 0.671875C71.1984 0.671875 68.7668 1.30322 66.6067 2.50607C64.4465 3.70892 62.6293 5.44342 61.3271 7.54524C62.606 7.27279 63.8904 7.03927 65.1804 6.84466C66.2889 5.71844 67.6105 4.82424 69.0682 4.21423C70.526 3.60421 72.0906 3.29061 73.6708 3.29169V3.29169Z" fill="#CBA1A4"/>
<path d="M73.6732 27.1371C71.1232 27.1401 68.6401 26.3212 66.5922 24.8018C65.5191 24.9964 64.4599 25.2299 63.4146 25.5023C66.1369 28.22 69.8265 29.7464 73.6732 29.7464C77.5199 29.7464 81.2094 28.22 83.9318 25.5023C82.8892 25.2271 81.8217 24.9936 80.7458 24.8018C78.701 26.3211 76.2206 27.1401 73.6732 27.1371Z" fill="#CBA1A4"/>
<path d="M85.6002 15.2103C85.5991 17.848 84.7187 20.4101 83.0981 22.4914C84.0156 22.6999 84.9164 22.9335 85.8004 23.2003C87.0053 21.3765 87.7814 19.3033 88.0703 17.1365C88.3592 14.9698 88.1534 12.7657 87.4685 10.6898C86.4426 10.4313 85.4168 10.1978 84.3742 9.98926C85.1742 11.6139 85.5935 13.3994 85.6002 15.2103V15.2103Z" fill="#CBA1A4"/>
<path d="M251.747 101.485L252.151 83.0903C246.69 90.7296 232.328 98.8715 221.405 100.078V51.8295C222.619 51.8295 224.945 52.1311 226.462 52.7342C231.721 54.7445 235.969 59.6699 244.06 68.3143H244.161V53.1363H235.564C224.035 53.1363 221 47.5073 221 41.7778C221 36.1489 224.54 32.3293 229.901 32.3293C239.003 32.3293 245.072 39.9685 248.915 47.8089H249.117L248.409 31.123H200.469C203.099 34.5406 205.121 41.3758 205.121 51.9301V80.6779C205.121 91.2322 203.099 98.0673 200.469 101.485H251.747Z" fill="#D1ABAD"/>
<path d="M259.453 48.2109C263.599 41.2753 271.195 33.5355 275.746 32.7313C279.387 32.1282 282.598 33.7365 282.598 39.5665V80.6779C282.598 91.2322 280.575 98.0673 277.945 101.485H303.432C300.803 98.0673 298.78 91.2322 298.78 80.6779V39.5665C298.78 33.636 303.637 32.1282 307.176 32.7313C310.919 33.3344 318.386 39.466 323.645 48.2109H323.848L321.926 31.123H261.172L259.25 48.2109H259.453Z" fill="#D1ABAD"/>
<path d="M390.598 51.9301C390.598 41.3758 392.621 34.5406 395.251 31.123H369.764C372.393 34.5406 374.416 41.3758 374.416 51.9301V59.6699H351.558V51.9301C351.558 41.3758 353.581 34.5406 356.211 31.123H330.724C333.353 34.5406 335.376 41.3758 335.376 51.9301V80.6779C335.376 91.2322 333.353 98.0673 330.724 101.485H356.211C353.581 98.0673 351.558 91.2322 351.558 80.6779V61.0771H374.416V80.6779C374.416 91.2322 372.393 98.0673 369.764 101.485H395.251C392.621 98.0673 390.598 91.2322 390.598 80.6779V51.9301Z" fill="#D1ABAD"/>
<path d="M231.971 179.316C247.951 179.316 260.695 167.957 260.695 154.589C260.695 141.32 250.278 135.49 240.872 133.782C247.041 130.263 252.3 127.147 252.3 120.714C252.3 111.567 242.692 108.954 230.252 108.954H200.112C202.742 112.371 204.765 119.207 204.765 129.761V158.509C204.765 169.063 202.742 175.898 200.112 179.316H231.971ZM208.709 171.777C212.35 154.388 216.295 136.998 219.632 119.508C220.947 112.673 223.476 110.261 227.218 110.261C233.893 110.261 235.815 114.583 235.815 121.116C235.815 128.052 232.578 134.988 225.6 143.431C221.048 148.859 212.249 160.72 208.709 171.777ZM220.745 160.318C221.352 152.98 223.678 147.552 227.825 142.728C231.263 139.31 235.309 136.797 239.355 134.686C242.389 137.903 244.108 144.838 244.108 152.679C244.108 163.836 240.265 178.009 230.758 178.009C227.521 178.009 224.892 176.2 223.071 173.184C221.149 169.867 220.34 165.344 220.745 160.318Z" fill="#D1ABAD"/>
<path d="M263.226 144.135C263.226 165.545 280.521 180.12 302.165 180.12C321.179 180.12 331.293 166.952 335.339 155.996L334.934 155.795C329.978 167.153 318.954 169.365 313.29 169.365C294.276 169.365 278.801 154.991 278.801 134.083C278.801 120.513 285.477 110.261 298.22 110.261C313.695 110.261 326.337 127.147 330.888 141.722H331.091V115.89C323.707 111.366 313.998 108.15 303.479 108.15C280.925 108.15 263.226 122.825 263.226 144.135Z" fill="#D1ABAD"/>
<path d="M353.092 179.316C349.148 174.692 343.889 163.233 343.889 145.844V120.815C358.352 142.828 376.456 169.264 381.007 179.316H388.694V142.426C388.694 125.037 392.84 113.578 395.875 108.954H380.097C383.131 113.578 387.278 125.037 387.278 142.426V156.498L356.026 108.954H336.303L342.473 118.604V145.844C342.473 163.233 338.933 174.692 336.303 179.316H353.092Z" fill="#D1ABAD"/>
<path d="M519.858 33.2979L519.858 180.12" stroke="white" stroke-width="2.17514"/>
</svg>
