<svg width="217" height="217" viewBox="0 0 217 217" fill="none" xmlns="http://www.w3.org/2000/svg">
<path d="M91.3691 110.403H197.966V217" stroke="#ABFD2C" stroke-width="38.0702"/>
<path d="M144.667 0L144.667 76.1404" stroke="#ABFD2C" stroke-width="38.0702"/>
<path d="M197.965 0L197.965 76.1404" stroke="#ABFD2C" stroke-width="38.0702"/>
<path d="M213.193 106.596C213.193 127.679 206.941 148.289 195.228 165.818C183.515 183.348 166.867 197.011 147.389 205.079C127.911 213.147 106.478 215.258 85.8006 211.145C65.1229 207.032 46.1292 196.879 31.2214 181.972C16.3136 167.064 6.16127 148.07 2.04822 127.392C-2.06483 106.715 0.0461388 85.2817 8.11418 65.8038C16.1822 46.3258 29.845 29.6777 47.3747 17.9647C64.9044 6.25177 85.5137 -2.5141e-07 106.596 0V44.3762C94.2905 44.3762 82.2608 48.0254 72.0288 54.8623C61.7967 61.6991 53.8218 71.4166 49.1125 82.7858C44.4032 94.1551 43.171 106.666 45.5718 118.735C47.9726 130.805 53.8985 141.891 62.6001 150.593C71.3018 159.295 82.3884 165.22 94.4579 167.621C106.527 170.022 119.038 168.79 130.407 164.081C141.776 159.371 151.494 151.396 158.331 141.164C165.168 130.932 168.817 118.902 168.817 106.596H213.193Z" fill="#ABFD2C"/>
</svg>
