<svg width="531" height="177" viewBox="0 0 531 177" fill="none" xmlns="http://www.w3.org/2000/svg">
<path d="M85.9446 102.868C85.9446 114.265 81.4172 125.195 73.3583 133.254C65.2994 141.313 54.3693 145.84 42.9723 145.84C31.5753 145.84 20.6452 141.313 12.5863 133.254C4.52743 125.195 1.72089e-06 114.265 0 102.868L22.5055 102.868C22.5055 108.296 24.6618 113.502 28.5001 117.34C32.3383 121.178 37.5442 123.335 42.9723 123.335C48.4004 123.335 53.6063 121.178 57.4445 117.34C61.2828 113.502 63.4391 108.296 63.4391 102.868H85.9446Z" fill="white"/>
<path d="M85.9416 102.868H63.4323V37.3862H85.9416V102.868Z" fill="white"/>
<path d="M85.9446 37.3862L85.9446 59.8955L0 59.8955L-9.83913e-07 37.3862L85.9446 37.3862Z" fill="white"/>
<path d="M22.5093 102.868H0V86.498H22.5093V102.868Z" fill="white"/>
<circle cx="11.27" cy="73.1957" r="7.16205" fill="#FFD37C"/>
<path d="M134.735 36.2013V102C134.735 114.201 141.417 121.391 153.255 121.391C165.093 121.391 171.702 114.201 171.702 102V36.2013H198.355V104.832C198.355 128.363 180.489 143.832 153.255 143.832C126.02 143.832 108.082 128.363 108.082 104.832V36.2013H134.735ZM274.249 141H247.668V57.6258H217.456V36.2013H304.533V57.6258H274.249V141ZM318.986 111.151H344.405C345.058 118.776 352.684 123.642 363.723 123.642C373.673 123.642 380.5 118.849 380.5 111.95C380.5 106.14 375.924 103.017 363.941 100.62L350.142 97.8603C330.969 94.229 321.092 83.771 321.092 67.285C321.092 46.8046 337.505 33.3689 362.779 33.3689C387.326 33.3689 404.321 46.6594 404.756 66.0504H380.136C379.555 58.6426 372.511 53.4862 363.142 53.4862C353.773 53.4862 347.6 57.9163 347.6 64.8884C347.6 70.6258 352.248 73.9665 363.287 76.1453L376.796 78.7598C397.494 82.7542 406.79 92.1229 406.79 108.754C406.79 130.614 390.086 143.832 362.634 143.832C336.125 143.832 319.422 131.341 318.986 111.151ZM453.706 36.2013V102C453.706 114.201 460.388 121.391 472.225 121.391C484.063 121.391 490.672 114.201 490.672 102V36.2013H517.326V104.832C517.326 128.363 499.46 143.832 472.225 143.832C444.991 143.832 427.052 128.363 427.052 104.832V36.2013H453.706Z" fill="white"/>
</svg>
