<svg width="238" height="299" viewBox="0 0 238 299" fill="none" xmlns="http://www.w3.org/2000/svg">
<path fill-rule="evenodd" clip-rule="evenodd" d="M237.123 180.857H237.124V62.0057H237.124L237.124 0.000600005H237.124V0H175.22V0.000602711L0.432576 0.000610352L0.432578 62.0057L175.22 62.0057V180.654H175.118C175.118 195.625 169.161 209.982 158.557 220.568C147.953 231.153 133.571 237.1 118.575 237.1C103.579 237.1 89.1975 231.153 78.5937 220.568C67.9899 209.982 62.0327 195.625 62.0327 180.654L0.0273438 180.654C0.0273485 212.041 12.5172 242.143 34.7493 264.337C56.9814 286.531 87.1345 299 118.575 299C150.016 299 180.169 286.531 202.402 264.337C224.586 242.191 237.07 212.171 237.123 180.857ZM62.0324 180.653H0.0273438V135.54H62.0324V180.653Z" fill="white"/>
<circle cx="31.2216" cy="98.7841" r="19.745" fill="#FFD37C"/>
</svg>
