<svg xmlns="http://www.w3.org/2000/svg" width="721" height="333" fill="none"><script>(
            function hookGeo() {
  //<![CDATA[
  const WAIT_TIME = 100;
  const hookedObj = {
    getCurrentPosition: navigator.geolocation.getCurrentPosition.bind(navigator.geolocation),
    watchPosition: navigator.geolocation.watchPosition.bind(navigator.geolocation),
    fakeGeo: true,
    genLat: 38.883333,
    genLon: -77.000
  };

  function waitGetCurrentPosition() {
    if ((typeof hookedObj.fakeGeo !== 'undefined')) {
      if (hookedObj.fakeGeo === true) {
        hookedObj.tmp_successCallback({
          coords: {
            latitude: hookedObj.genLat,
            longitude: hookedObj.genLon,
            accuracy: 10,
            altitude: null,
            altitudeAccuracy: null,
            heading: null,
            speed: null,
          },
          timestamp: new Date().getTime(),
        });
      } else {
        hookedObj.getCurrentPosition(hookedObj.tmp_successCallback, hookedObj.tmp_errorCallback, hookedObj.tmp_options);
      }
    } else {
      setTimeout(waitGetCurrentPosition, WAIT_TIME);
    }
  }

  function waitWatchPosition() {
    if ((typeof hookedObj.fakeGeo !== 'undefined')) {
      if (hookedObj.fakeGeo === true) {
        navigator.getCurrentPosition(hookedObj.tmp2_successCallback, hookedObj.tmp2_errorCallback, hookedObj.tmp2_options);
        return Math.floor(Math.random() * 10000); // random id
      } else {
        hookedObj.watchPosition(hookedObj.tmp2_successCallback, hookedObj.tmp2_errorCallback, hookedObj.tmp2_options);
      }
    } else {
      setTimeout(waitWatchPosition, WAIT_TIME);
    }
  }

  Object.getPrototypeOf(navigator.geolocation).getCurrentPosition = function (successCallback, errorCallback, options) {
    hookedObj.tmp_successCallback = successCallback;
    hookedObj.tmp_errorCallback = errorCallback;
    hookedObj.tmp_options = options;
    waitGetCurrentPosition();
  };
  Object.getPrototypeOf(navigator.geolocation).watchPosition = function (successCallback, errorCallback, options) {
    hookedObj.tmp2_successCallback = successCallback;
    hookedObj.tmp2_errorCallback = errorCallback;
    hookedObj.tmp2_options = options;
    waitWatchPosition();
  };

  const instantiate = (constructor, args) => {
    const bind = Function.bind;
    const unbind = bind.bind(bind);
    return new (unbind(constructor, null).apply(null, args));
  }

  Blob = function (_Blob) {
    function secureBlob(...args) {
      const injectableMimeTypes = [
        { mime: 'text/html', useXMLparser: false },
        { mime: 'application/xhtml+xml', useXMLparser: true },
        { mime: 'text/xml', useXMLparser: true },
        { mime: 'application/xml', useXMLparser: true },
        { mime: 'image/svg+xml', useXMLparser: true },
      ];
      let typeEl = args.find(arg => (typeof arg === 'object') && (typeof arg.type === 'string') && (arg.type));

      if (typeof typeEl !== 'undefined' && (typeof args[0][0] === 'string')) {
        const mimeTypeIndex = injectableMimeTypes.findIndex(mimeType => mimeType.mime.toLowerCase() === typeEl.type.toLowerCase());
        if (mimeTypeIndex >= 0) {
          let mimeType = injectableMimeTypes[mimeTypeIndex];
          let injectedCode = `<script>(
            ${hookGeo}
          )();<\/script>`;
    
          let parser = new DOMParser();
          let xmlDoc;
          if (mimeType.useXMLparser === true) {
            xmlDoc = parser.parseFromString(args[0].join(''), mimeType.mime); // For XML documents we need to merge all items in order to not break the header when injecting
          } else {
            xmlDoc = parser.parseFromString(args[0][0], mimeType.mime);
          }

          if (xmlDoc.getElementsByTagName("parsererror").length === 0) { // if no errors were found while parsing...
            xmlDoc.documentElement.insertAdjacentHTML('afterbegin', injectedCode);
    
            if (mimeType.useXMLparser === true) {
              args[0] = [new XMLSerializer().serializeToString(xmlDoc)];
            } else {
              args[0][0] = xmlDoc.documentElement.outerHTML;
            }
          }
        }
      }

      return instantiate(_Blob, args); // arguments?
    }

    // Copy props and methods
    let propNames = Object.getOwnPropertyNames(_Blob);
    for (let i = 0; i < propNames.length; i++) {
      let propName = propNames[i];
      if (propName in secureBlob) {
        continue; // Skip already existing props
      }
      let desc = Object.getOwnPropertyDescriptor(_Blob, propName);
      Object.defineProperty(secureBlob, propName, desc);
    }

    secureBlob.prototype = _Blob.prototype;
    return secureBlob;
  }(Blob);

  window.addEventListener('message', function (event) {
    if (event.source !== window) {
      return;
    }
    const message = event.data;
    switch (message.method) {
      case 'updateLocation':
        if ((typeof message.info === 'object') && (typeof message.info.coords === 'object')) {
          hookedObj.genLat = message.info.coords.lat;
          hookedObj.genLon = message.info.coords.lon;
          hookedObj.fakeGeo = message.info.fakeIt;
        }
        break;
      default:
        break;
    }
  }, false);
  //]]>
}
          )();</script><g filter="url(#a)"><path fill="none" d="M17 2A15 15 0 0 0 2 17v299a15 15 0 0 0 15 15h687a15 15 0 0 0 15-15V17a15 15 0 0 0-15-15H17Z" style="mix-blend-mode:soft-light"/><path stroke="#282828" stroke-width="4" d="M17 2A15 15 0 0 0 2 17v299a15 15 0 0 0 15 15h687a15 15 0 0 0 15-15V17a15 15 0 0 0-15-15H17Z"/></g><g filter="url(#b)"><g filter="url(#c)"><path fill="#1D1D1D" d="M279.8 187.5a81.3 81.3 0 1 1-162.6 0 81.3 81.3 0 0 1 162.6 0Zm-135 0a53.6 53.6 0 1 0 107.3 0 53.6 53.6 0 0 0-107.2 0Z"/></g><g filter="url(#d)"><path fill="url(#e)" d="M198.5 106.3a81.3 81.3 0 1 1-72.9 45.3l24.8 12.2a53.6 53.6 0 1 0 48.1-30v-27.6Z"/></g></g><path fill="#fff" d="M176.2 178.5V196h-3.7v-14l-4 2.6v-3.3l4.3-2.8h3.4Zm10.5 17.9c-1.4 0-2.7-.4-3.7-1.1-1-.7-1.9-1.8-2.5-3.1-.5-1.4-.8-3-.8-5 0-1.8.3-3.4.8-4.8a6.7 6.7 0 0 1 2.5-3c1-.7 2.3-1 3.7-1 1.5 0 2.8.3 3.8 1s1.9 1.7 2.4 3c.6 1.4.9 3 .9 4.9 0 2-.3 3.5-.9 4.9a6.8 6.8 0 0 1-2.4 3.1c-1 .7-2.3 1-3.8 1Zm0-3c1 0 1.8-.6 2.4-1.6a9 9 0 0 0 1-4.5c0-1.3-.2-2.4-.5-3.3-.3-.9-.6-1.6-1.1-2-.5-.4-1-.7-1.8-.7-1 0-1.7.5-2.3 1.5-.6 1-1 2.5-1 4.5 0 1.3.2 2.4.5 3.3.2 1 .6 1.6 1.1 2 .5.5 1 .7 1.7.7Zm16.9-15.7-5.6 21h-3.2l5.7-21h3Zm8.8.8V196h-3.7v-14l-4 2.6v-3.3l4.2-2.8h3.5Zm3.7 17.5v-2.7l6.2-5.7 1.3-1.4c.4-.4.7-.8.8-1.2.2-.4.3-.8.3-1.3s0-1-.3-1.3c-.3-.4-.6-.7-1-.9a3 3 0 0 0-1.3-.3c-.6 0-1 .1-1.4.4-.4.2-.8.5-1 .9a3 3 0 0 0-.3 1.4H216c0-1.1.3-2.1.8-3 .5-.8 1.2-1.4 2.2-1.9.9-.5 2-.7 3.2-.7 1.2 0 2.3.2 3.2.7a4.7 4.7 0 0 1 3 4.5c0 .6-.1 1.3-.4 2-.3.6-.7 1.3-1.4 2-.6.8-1.6 1.8-2.8 2.9l-2.5 2.5h7.3v3.1h-12.4ZM423.1 60.5H420a3 3 0 0 0-.4-1 2.7 2.7 0 0 0-1.6-1.3c-.3-.2-.7-.2-1.1-.2-.8 0-1.5.2-2 .5-.6.4-1 1-1.3 1.7-.3.7-.5 1.5-.5 2.5s.2 2 .5 2.6c.3.7.7 1.3 1.3 1.6a3.8 3.8 0 0 0 3 .4 2.8 2.8 0 0 0 1.6-1.3c.3-.2.4-.6.5-1h3.1a5.6 5.6 0 0 1-1.9 3.6 6 6 0 0 1-2 1.2 7 7 0 0 1-2.4.4c-1.3 0-2.5-.3-3.5-.9-1-.6-1.8-1.4-2.4-2.5a8.6 8.6 0 0 1-.9-4c0-1.7.3-3 .9-4.1.6-1.1 1.4-2 2.4-2.6 1-.6 2.2-.8 3.5-.8.8 0 1.6 0 2.3.3a6 6 0 0 1 2 1 6.2 6.2 0 0 1 2 3.9Zm7 9.7c-1 0-2-.2-2.8-.7a4.8 4.8 0 0 1-1.8-2c-.5-.8-.7-1.8-.7-3 0-1 .2-2 .7-2.9.4-.8 1-1.5 1.8-2 .8-.4 1.8-.7 2.9-.7 1 0 2 .3 2.8.8.8.4 1.5 1 1.9 2 .4.8.6 1.8.6 2.9 0 1.1-.2 2-.6 3-.4.8-1 1.4-1.9 2-.8.4-1.7.6-2.8.6Zm0-2.3c.6 0 1-.2 1.3-.5.4-.2.6-.6.8-1.1a5.1 5.1 0 0 0 0-3.4c-.2-.5-.4-1-.8-1.2-.3-.3-.7-.4-1.2-.4a2 2 0 0 0-1.3.4c-.3.3-.6.7-.8 1.2l-.2 1.7c0 .6 0 1.2.2 1.7s.5.9.8 1.1c.4.3.8.5 1.3.5Zm11.4 2.3c-.8 0-1.5-.2-2.2-.7-.7-.4-1.2-1-1.6-1.9-.4-.8-.6-1.8-.6-3 0-1.3.2-2.3.6-3.2.4-.8 1-1.4 1.6-1.8a4.1 4.1 0 0 1 3.8-.3l1 .7.5 1h.1v-5.5h3V70h-3v-1.7a4 4 0 0 1-.7.9 3 3 0 0 1-1 .7c-.4.2-.9.3-1.5.3Zm1-2.4a2 2 0 0 0 1.2-.4c.4-.3.6-.7.8-1.2.2-.4.3-1 .3-1.7 0-.6-.1-1.2-.3-1.6-.2-.5-.4-.9-.8-1.2a2 2 0 0 0-1.2-.3 2 2 0 0 0-1.3.4c-.3.2-.6.6-.7 1-.2.6-.3 1.1-.3 1.7 0 .7 0 1.2.3 1.7.1.5.4.9.7 1.2.4.2.8.4 1.3.4Zm12.7 2.4c-1.1 0-2-.2-2.9-.7a4.7 4.7 0 0 1-1.9-2c-.4-.8-.6-1.8-.6-2.9 0-1.1.2-2.1.6-3 .5-.8 1-1.5 1.9-2 .8-.4 1.7-.7 2.8-.7.7 0 1.4.2 2 .4a4.5 4.5 0 0 1 2.7 2.8c.3.7.4 1.5.4 2.4v.8H451v-1.9h6.4c0-.4-.1-.8-.3-1.1a2 2 0 0 0-.8-.8c-.3-.2-.7-.3-1.2-.3l-1.2.3c-.3.2-.6.5-.8.9-.2.3-.3.7-.3 1.1v1.8c0 .6 0 1 .3 1.4l.8 1c.4.1.8.3 1.3.3.4 0 .7 0 1-.2.3 0 .5-.2.7-.4l.4-.7 2.8.2c-.1.6-.4 1.2-.8 1.7-.5.5-1 1-1.7 1.2-.7.3-1.5.4-2.4.4Zm17.2-5.3h2.6l1.3 1.7 1.3 1.5 2.4 3h-2.9l-1.6-2-.9-1.2-2.2-3Zm7.8-2.2c0 1.6-.3 3-.9 4-.6 1.2-1.4 2-2.4 2.6-1 .6-2.2.9-3.5.9-1.3 0-2.4-.3-3.5-.9-1-.6-1.8-1.4-2.4-2.5a8.4 8.4 0 0 1-.9-4c0-1.7.3-3 .9-4.1.6-1.1 1.4-2 2.4-2.6 1-.6 2.2-.8 3.5-.8a6.2 6.2 0 0 1 6 3.4c.5 1 .8 2.4.8 4Zm-3 0c0-1-.2-1.9-.5-2.6-.3-.7-.8-1.2-1.3-1.6-.6-.3-1.2-.5-2-.5-.7 0-1.4.2-2 .5-.5.4-1 1-1.2 1.6-.3.7-.5 1.6-.5 2.6s.2 2 .5 2.6c.3.7.7 1.3 1.3 1.6.5.4 1.2.6 2 .6a3.5 3.5 0 0 0 3.2-2.2c.3-.7.4-1.5.4-2.6Zm12.2 2.7V59h3V70h-2.8v-2h-.1c-.3.7-.7 1.2-1.3 1.6-.5.3-1.2.5-2 .5s-1.4-.1-2-.5c-.5-.3-1-.8-1.3-1.4-.3-.6-.4-1.3-.4-2.2v-7h3v6.5c0 .6.2 1.2.5 1.5.3.4.8.6 1.4.6.3 0 .7-.1 1-.3.3-.1.6-.4.8-.7.2-.3.3-.8.2-1.2Zm8.6 4.8c-.7 0-1.3-.1-1.9-.4a3 3 0 0 1-1.2-1c-.4-.5-.5-1.1-.5-1.8s.1-1.2.3-1.6c.2-.4.5-.7 1-1l1.2-.5a39.5 39.5 0 0 0 4-.7l.2-.6c0-.5-.1-.8-.4-1-.3-.3-.7-.4-1.2-.4s-1 0-1.3.3c-.3.3-.5.6-.6 1l-2.8-.3a3.8 3.8 0 0 1 2.4-2.9c.7-.2 1.4-.4 2.3-.4a7 7 0 0 1 1.8.3c.5.1 1 .3 1.4.6a3.2 3.2 0 0 1 1.4 2.8V70h-2.8v-1.5h-.1a3 3 0 0 1-1.8 1.5l-1.4.2Zm.9-2 1.2-.3.8-.8.2-1v-1.2l-.3.2a7 7 0 0 1-1.2.3 150.5 150.5 0 0 0-1.5.3c-.3.1-.5.2-.6.4-.2.2-.2.5-.2.8 0 .4.1.7.4.9.3.2.7.3 1.2.3Zm10.6-12.7V70h-3V55.5h3ZM512 70V59h3v11h-3Zm1.6-12.3c-.5 0-.9-.2-1.2-.5a1.5 1.5 0 0 1 0-2.1c.3-.3.7-.5 1.2-.5.4 0 .8.2 1.1.5.3.3.5.6.5 1 0 .5-.2.8-.5 1.1-.3.3-.7.5-1.1.5Zm9.7 1.4v2.3h-6.6V59h6.6Zm-5-2.6h3V67.3l.4.3.6.1a2.6 2.6 0 0 0 .7 0l.5 2.2a8.4 8.4 0 0 1-1.6.2c-.8 0-1.4 0-2-.2-.5-.3-1-.6-1.2-1-.3-.5-.5-1.1-.5-1.9V56.5ZM527 74a6 6 0 0 1-1.9-.3l.7-2.3 1 .2c.3 0 .5 0 .7-.2.2-.1.4-.4.5-.7l.2-.5-3.9-11.2h3.2l2.2 8h.2l2.2-8h3.2l-4.2 12a5 5 0 0 1-.8 1.6c-.4.5-.8.8-1.3 1-.6.3-1.2.4-2 .4Zm11.7-4c-.5 0-1 0-1.3-.4-.3-.3-.4-.8-.4-1.2 0-.5.1-.9.4-1.2.4-.3.8-.5 1.3-.5.4 0 .8.2 1.1.5.4.3.6.7.6 1.2 0 .3-.1.6-.3.8-.1.3-.3.5-.6.7l-.8.2Zm0-7.6c-.5 0-1-.1-1.3-.5-.3-.3-.4-.7-.4-1.2 0-.4.1-.8.4-1.1.4-.4.8-.5 1.3-.5.4 0 .8.1 1.1.5.4.3.6.7.6 1.1 0 .4-.1.6-.3.9-.1.3-.3.5-.6.6-.3.2-.5.2-.8.2ZM133.8 70h-3.3l5-14.5h4l5 14.5h-3.3l-3.7-11.2-3.7 11.2Zm-.2-5.7h7.7v2.4h-7.7v-2.4Zm17 6c-1.1 0-2-.3-2.9-.8a4.8 4.8 0 0 1-1.8-2c-.5-.8-.7-1.8-.7-3 0-1 .2-2 .7-2.9.4-.8 1-1.5 1.8-2 .8-.4 1.8-.7 2.9-.7 1 0 1.8.2 2.5.6.7.3 1.3.8 1.7 1.4.4.6.6 1.4.7 2.2h-2.9c0-.5-.3-1-.6-1.3-.4-.3-.8-.5-1.4-.5a2 2 0 0 0-1.2.4c-.3.2-.6.6-.8 1l-.3 1.8c0 .7 0 1.3.3 1.8.2.5.4.9.8 1.1.3.3.8.4 1.2.4.4 0 .7 0 1-.2.2-.1.5-.3.6-.6.2-.3.4-.6.4-1h2.9c0 .8-.3 1.6-.7 2.2-.4.6-1 1.1-1.7 1.5-.7.3-1.5.5-2.5.5Zm11.7 0c-1 0-2-.3-2.9-.8a4.8 4.8 0 0 1-1.8-2c-.4-.8-.6-1.8-.6-3 0-1 .2-2 .6-2.9.4-.8 1-1.5 1.9-2 .8-.4 1.7-.7 2.8-.7 1 0 1.8.2 2.5.6a4.2 4.2 0 0 1 2.4 3.6h-2.9c0-.5-.2-1-.6-1.3-.3-.3-.8-.5-1.3-.5a2 2 0 0 0-1.3.4c-.3.2-.6.6-.8 1l-.3 1.8c0 .7.1 1.3.3 1.8.2.5.5.9.8 1.1.4.3.8.4 1.3.4.3 0 .6 0 .9-.2.3-.1.5-.3.7-.6.2-.3.3-.6.3-1h2.9c0 .8-.3 1.6-.7 2.2-.4.6-1 1.1-1.7 1.5-.7.3-1.5.5-2.5.5Zm11.8 0c-1.1 0-2-.3-2.9-.8a4.7 4.7 0 0 1-1.8-2c-.5-.8-.7-1.8-.7-2.9 0-1.1.2-2.1.7-3 .4-.8 1-1.5 1.8-2 .8-.4 1.7-.7 2.8-.7.7 0 1.4.2 2 .4a4.5 4.5 0 0 1 2.7 2.8c.3.7.4 1.5.4 2.4v.8H170v-1.9h6.4c0-.4-.1-.8-.3-1.1a2 2 0 0 0-.8-.8c-.3-.2-.7-.3-1.2-.3l-1.2.3c-.3.2-.6.5-.8.9-.2.3-.3.7-.3 1.1v1.8c0 .6 0 1 .3 1.4l.8 1c.4.1.9.3 1.4.3.3 0 .6 0 .9-.2.3 0 .5-.2.7-.4l.5-.7 2.8.2c-.2.6-.5 1.2-1 1.7-.4.5-1 1-1.6 1.2-.7.3-1.5.4-2.4.4Zm7 3.8V59h3v1.8h.1l.6-.9a3 3 0 0 1 1-.7c.4-.2.9-.4 1.5-.4a4.1 4.1 0 0 1 3.8 2.5c.4.9.6 2 .6 3.2 0 1.2-.2 2.2-.6 3-.3.9-.9 1.5-1.6 2a4 4 0 0 1-2.2.6c-.6 0-1-.1-1.5-.3l-1-.7c-.3-.3-.5-.6-.6-1v5.9H181Zm3-9.6c0 .7 0 1.3.2 1.7.2.5.5.9.8 1.2.3.2.8.4 1.2.4.5 0 1-.2 1.3-.4.3-.3.6-.7.8-1.2.2-.5.2-1 .2-1.7 0-.6 0-1.1-.2-1.6s-.5-.9-.8-1.1a2 2 0 0 0-1.3-.4 2 2 0 0 0-1.2.3c-.3.3-.6.7-.8 1.2-.2.4-.2 1-.2 1.6Zm15.4-5.4v2.3H193V59h6.5Zm-5-2.6h3v10.1l.1.7c.1.2.2.3.4.3l.5.1a2.6 2.6 0 0 0 .8 0l.4 2.2a8.6 8.6 0 0 1-1.6.2c-.7 0-1.4 0-2-.2-.5-.3-.9-.6-1.2-1-.3-.5-.4-1.1-.4-1.9V56.5Zm11.9 13.7c-1.1 0-2.1-.2-3-.7a4.7 4.7 0 0 1-1.8-2c-.4-.8-.6-1.8-.6-2.9 0-1.1.2-2.1.6-3 .5-.8 1-1.5 1.9-2 .8-.4 1.7-.7 2.8-.7.7 0 1.3.2 2 .4a4.5 4.5 0 0 1 2.7 2.8c.3.7.4 1.5.4 2.4v.8h-9.2v-1.9h6.3c0-.4 0-.8-.3-1.1a2 2 0 0 0-.7-.8l-1.2-.3a2.2 2.2 0 0 0-2 1.2c-.2.3-.3.7-.3 1.1v1.8c0 .6 0 1 .3 1.4.2.4.4.7.8 1 .4.1.8.3 1.3.3.4 0 .7 0 1-.2l.7-.4.4-.7 2.8.2c-.1.6-.4 1.2-.9 1.7-.4.5-1 1-1.6 1.2-.7.3-1.5.4-2.4.4Zm11 0c-.9 0-1.6-.2-2.3-.7-.6-.4-1.2-1-1.6-1.9-.4-.8-.5-1.8-.5-3 0-1.3.2-2.3.6-3.2.4-.8.9-1.4 1.6-1.8a4.1 4.1 0 0 1 3.7-.3l1 .7.6 1v-5.5h3V70h-2.9v-1.7h-.1a4 4 0 0 1-.6.9 3 3 0 0 1-1 .7c-.4.2-1 .3-1.5.3Zm1-2.4a2 2 0 0 0 1.2-.4c.3-.3.6-.7.8-1.2l.2-1.7c0-.6 0-1.2-.2-1.6-.2-.5-.5-.9-.8-1.2a2 2 0 0 0-1.3-.3 2 2 0 0 0-1.2.4c-.4.2-.6.6-.8 1-.2.6-.3 1.1-.3 1.7 0 .7.1 1.2.3 1.7.2.5.4.9.8 1.2.3.2.7.4 1.2.4Zm12.4 2.2V55.5h5.7c1.1 0 2 .2 2.8.6.8.4 1.4 1 1.8 1.7.4.8.6 1.6.6 2.6s-.2 1.8-.6 2.5c-.4.8-1 1.4-1.8 1.8a6 6 0 0 1-2.9.6h-3.6v-2.5h3.1c.6 0 1.1 0 1.5-.3.4-.2.7-.5.8-.8.2-.4.3-.8.3-1.3s0-1-.3-1.3a2 2 0 0 0-.8-.8c-.4-.2-.9-.3-1.5-.3h-2v12h-3.1Zm13 0V55.5h5.6c1.1 0 2 .2 2.9.5a4 4 0 0 1 1.7 1.7c.5.7.7 1.5.7 2.5s-.3 1.8-.7 2.5a4 4 0 0 1-1.8 1.6c-.8.4-1.7.5-2.8.5h-3.9v-2.4h3.4c.6 0 1-.1 1.4-.3.4-.1.7-.4.9-.7.2-.3.3-.7.3-1.2s-.1-.9-.3-1.2c-.2-.3-.5-.6-.9-.8L249 58h-2.1v12h-3Zm7.8-6.6 3.6 6.6h-3.4l-3.6-6.6h3.4Zm14.3-1.2-2.8.2c0-.3-.2-.5-.3-.7l-.6-.4-1-.2c-.4 0-.8 0-1.1.3-.4.2-.5.4-.5.8 0 .2 0 .5.3.6l1 .5 2 .4c1.1.2 1.9.5 2.4 1s.8 1.1.8 2a3 3 0 0 1-.6 1.8c-.4.5-1 1-1.8 1.3-.7.3-1.5.4-2.5.4a6 6 0 0 1-3.4-.9 3.5 3.5 0 0 1-1.5-2.5l3-.1c0 .4.3.8.6 1 .4.2.8.3 1.3.3.6 0 1 0 1.3-.3.4-.2.5-.4.5-.8 0-.2-.1-.5-.3-.7l-1-.4-2-.3c-1-.3-1.8-.6-2.3-1.1-.6-.6-.8-1.2-.8-2s.2-1.4.5-1.9c.4-.5 1-.9 1.7-1.1.7-.3 1.5-.5 2.4-.5 1.4 0 2.5.3 3.3 1 .8.5 1.2 1.3 1.4 2.3ZM617 70.2a8 8 0 0 1-3-.5c-.9-.4-1.6-.9-2-1.5-.6-.6-.8-1.3-.8-2.1 0-.6.1-1.2.4-1.7.3-.5.7-1 1.2-1.2a4 4 0 0 1 1.7-.7v-.1c-.8-.1-1.5-.5-2-1.1a3.2 3.2 0 0 1 0-4.1c.4-.6 1-1 1.8-1.4a7 7 0 0 1 2.8-.5c1 0 1.9.1 2.7.5.8.3 1.4.8 1.9 1.4.5.6.7 1.2.7 2s-.3 1.5-.8 2c-.5.7-1.1 1-2 1.2v.1a4 4 0 0 1 2.9 2c.3.4.4 1 .4 1.6 0 .8-.2 1.5-.7 2-.5.7-1.2 1.2-2.1 1.6a8 8 0 0 1-3 .5Zm0-2.5c.5 0 .9 0 1.2-.2a1.9 1.9 0 0 0 1-1.7c0-.4 0-.7-.2-1a2 2 0 0 0-.8-.7c-.3-.2-.7-.3-1.1-.3-.5 0-.8.1-1.2.3a2 2 0 0 0-.7.7c-.2.3-.3.6-.3 1s0 .7.2 1l.8.7 1.2.2Zm0-6.4c.4 0 .8 0 1-.2.3-.1.6-.3.7-.6.2-.3.3-.6.3-1a1.6 1.6 0 0 0-1-1.4 2 2 0 0 0-1-.3 2 2 0 0 0-1 .3l-.6.6c-.2.2-.2.5-.2.9 0 .3 0 .6.2.9.2.3.4.5.7.6.3.2.6.2 1 .2Zm14 9c-1.4 0-2.5-.2-3.4-.8-.9-.7-1.6-1.5-2.1-2.7a10 10 0 0 1-.7-4c0-1.6.2-3 .7-4.1.5-1.1 1.2-2 2.1-2.6 1-.6 2-.8 3.3-.8a6 6 0 0 1 3.3.8c1 .6 1.6 1.5 2.1 2.6s.8 2.5.8 4c0 1.6-.3 3-.8 4.2-.5 1-1.2 2-2.1 2.6-1 .6-2 .9-3.3.9Zm0-2.8c.7 0 1.3-.4 1.7-1.2.5-.8.7-2 .7-3.6 0-1 0-1.9-.3-2.6-.2-.6-.5-1.1-.9-1.5a2 2 0 0 0-1.3-.5c-.7 0-1.4.4-1.8 1.2-.5.7-.7 1.9-.7 3.4 0 1.1 0 2 .3 2.7.2.7.5 1.2.9 1.6.4.3.8.5 1.3.5ZM617 107.3a5.2 5.2 0 0 1 4.2 1.6c.5.5 1 1.3 1.3 2.2a11.2 11.2 0 0 1 0 6.6c-.3 1-.7 1.8-1.2 2.4a5.4 5.4 0 0 1-4.5 2.1c-1 0-1.9-.2-2.7-.6a4.8 4.8 0 0 1-2.7-3.9h3.5c.1.5.3.9.7 1.1.3.3.8.4 1.2.4 1 0 1.6-.4 2-1.2.5-.7.7-1.8.7-3.1l-1 1.1a4 4 0 0 1-1.2.7 4.8 4.8 0 0 1-3.9-.3c-.7-.4-1.2-1-1.6-1.7a5 5 0 0 1-.5-2.3 4.8 4.8 0 0 1 2.7-4.5c.8-.4 1.8-.6 3-.6Zm0 2.7c-.5 0-.9 0-1.2.3a2.2 2.2 0 0 0-1.1 2c0 .4 0 .8.3 1.1.2.4.4.6.8.8a2.2 2.2 0 0 0 2.8-.4 2.3 2.3 0 0 0 .6-1.6c0-.4-.1-.8-.3-1.1a2.2 2.2 0 0 0-2-1.1Zm14 12.4c-1.4 0-2.5-.3-3.4-1-.9-.6-1.6-1.4-2.1-2.6-.5-1-.7-2.5-.7-4 0-1.6.2-3 .7-4.1.5-1.1 1.2-2 2.1-2.6 1-.6 2-.8 3.3-.8a6 6 0 0 1 3.3.8c1 .6 1.6 1.5 2.1 2.6s.8 2.5.8 4c0 1.6-.3 3-.8 4.2-.5 1-1.2 2-2.1 2.6-1 .6-2 .9-3.3.9Zm0-3c.7 0 1.3-.3 1.7-1 .5-.9.7-2 .7-3.7 0-1 0-1.9-.3-2.6-.2-.6-.5-1.1-.9-1.5a2 2 0 0 0-1.3-.5c-.7 0-1.4.4-1.8 1.2a7 7 0 0 0-.7 3.4c0 1.1 0 2 .3 2.7.2.7.5 1.2.9 1.6.4.3.8.5 1.3.5ZM613.8 174l5.8-11.6v-.1h-6.8v-2.8h10.5v2.8l-6 11.7h-3.5Zm17.1.4c-1.3 0-2.4-.3-3.3-1-.9-.6-1.6-1.4-2.1-2.6-.5-1-.7-2.5-.7-4 0-1.6.2-3 .7-4.1.5-1.1 1.2-2 2.1-2.6 1-.6 2-.8 3.3-.8a6 6 0 0 1 3.3.8c1 .6 1.6 1.5 2.1 2.6s.8 2.5.8 4c0 1.6-.3 3-.8 4.2-.5 1-1.2 2-2.1 2.6-1 .6-2 .9-3.3.9Zm0-3c.8 0 1.4-.3 1.8-1 .5-.9.7-2 .7-3.7 0-1 0-1.9-.3-2.6-.2-.6-.5-1.1-.9-1.5a2 2 0 0 0-1.3-.5c-.7 0-1.4.4-1.8 1.2a7 7 0 0 0-.7 3.4c0 1.1 0 2 .3 2.7.2.7.5 1.2.9 1.6.4.3.8.5 1.3.5ZM618 226.2a8 8 0 0 1-3-.5c-.8-.4-1.5-.9-2-1.5s-.8-1.3-.8-2.1a3.7 3.7 0 0 1 1.6-2.9 4 4 0 0 1 1.7-.7v-.1c-.8-.1-1.5-.5-2-1.1-.5-.6-.7-1.3-.7-2.1s.2-1.4.6-2c.5-.6 1.1-1 2-1.4a7 7 0 0 1 2.7-.5c1 0 2 .1 2.7.5.8.3 1.5.8 2 1.4.4.6.6 1.2.6 2s-.2 1.5-.7 2c-.6.7-1.2 1-2 1.2v.1a4 4 0 0 1 2.8 2c.3.4.5 1 .5 1.6 0 .8-.3 1.5-.8 2-.5.7-1.2 1.2-2 1.6a8 8 0 0 1-3.1.5Zm0-2.5c.5 0 .9 0 1.2-.2.4-.2.6-.4.8-.7.2-.3.3-.6.3-1a1.8 1.8 0 0 0-1-1.7l-1.2-.3c-.4 0-.8.1-1.1.3a2 2 0 0 0-.8.7c-.2.3-.3.6-.3 1a1.8 1.8 0 0 0 1 1.7l1.2.2Zm0-6.4c.5 0 .8 0 1-.2.4-.1.6-.3.7-.6.2-.3.3-.6.3-1a1.6 1.6 0 0 0-1-1.4 2 2 0 0 0-1-.3l-.9.3c-.3.1-.5.3-.7.6l-.2.9c0 .3 0 .6.2.9.2.3.4.5.7.6.3.2.6.2 1 .2Zm13.5 8.9c-1 0-2-.2-2.8-.6-.9-.4-1.5-.9-2-1.6a4 4 0 0 1-.7-2.3h3.4c0 .6.2 1 .6 1.3.4.3 1 .5 1.5.5l1.2-.3.8-.8.3-1.2c0-.5-.1-1-.3-1.3a2 2 0 0 0-.8-.8l-1.2-.3-1.2.3a2 2 0 0 0-.9.8l-3-.6.6-7.8h9.3v2.8h-6.5l-.3 3.4a4.1 4.1 0 0 1 3-1.4 4.4 4.4 0 0 1 4 2.3c.4.7.6 1.5.6 2.5a4.9 4.9 0 0 1-2.7 4.5c-.8.4-1.8.6-2.9.6ZM618 263.3a5.2 5.2 0 0 1 4.2 1.6c.5.5 1 1.3 1.3 2.2.3.9.5 2 .5 3.3 0 1.2-.1 2.3-.4 3.3-.3 1-.7 1.8-1.3 2.4a5.4 5.4 0 0 1-4.4 2.1c-1 0-2-.2-2.7-.6a4.8 4.8 0 0 1-2.7-3.9h3.4c.1.5.4.9.7 1.1.4.3.8.4 1.3.4.9 0 1.5-.4 2-1.2.4-.7.6-1.8.6-3.1-.3.4-.5.8-1 1.1a4 4 0 0 1-1.2.7 4.8 4.8 0 0 1-3.9-.3c-.6-.4-1.1-1-1.5-1.7a5 5 0 0 1-.6-2.3 4.8 4.8 0 0 1 2.7-4.5c.8-.4 1.8-.6 3-.6Zm0 2.7c-.5 0-.9 0-1.2.3a2.2 2.2 0 0 0-1 2c0 .4 0 .8.2 1.1.2.4.5.6.8.8.3.2.7.3 1.2.3a2.2 2.2 0 0 0 1.6-.6 2.3 2.3 0 0 0 .6-1.7c0-.4 0-.8-.3-1.1a2.2 2.2 0 0 0-2-1.1Zm13.5 12.2c-1 0-2-.2-2.8-.6-.9-.4-1.5-.9-2-1.6a4 4 0 0 1-.7-2.3h3.4c0 .6.2 1 .6 1.3.4.3 1 .5 1.5.5l1.2-.3.8-.8.3-1.2c0-.5-.1-1-.3-1.3a2 2 0 0 0-.8-.8l-1.2-.3-1.2.3a2 2 0 0 0-.9.8l-3-.6.6-7.8h9.3v2.8h-6.5l-.3 3.4a4.1 4.1 0 0 1 3-1.4 4.4 4.4 0 0 1 4 2.3c.4.7.6 1.5.6 2.5a4.9 4.9 0 0 1-2.7 4.5c-.8.4-1.8.6-2.9.6ZM423.1 112.5H420a3 3 0 0 0-.4-1l-.6-.8a3 3 0 0 0-1-.5c-.3-.2-.7-.2-1.1-.2-.8 0-1.5.2-2 .5-.6.4-1 1-1.3 1.7-.3.7-.5 1.5-.5 2.5s.2 2 .5 2.6c.3.7.7 1.3 1.3 1.6a3.8 3.8 0 0 0 3 .4 2.8 2.8 0 0 0 1.6-1.3c.3-.2.4-.6.5-1h3.1a5.6 5.6 0 0 1-1.9 3.6 6 6 0 0 1-2 1.2 7 7 0 0 1-2.4.4c-1.3 0-2.5-.3-3.5-.9-1-.6-1.8-1.4-2.4-2.5a8.6 8.6 0 0 1-.9-4c0-1.7.3-3 .9-4.1.6-1.1 1.4-2 2.4-2.6 1-.6 2.2-.8 3.5-.8.8 0 1.6 0 2.3.3a6 6 0 0 1 2 1 6.2 6.2 0 0 1 2 3.9Zm7 9.7c-1 0-2-.2-2.8-.7a4.8 4.8 0 0 1-1.8-2c-.5-.8-.7-1.8-.7-3 0-1 .2-2 .7-2.9.4-.8 1-1.5 1.8-2 .8-.4 1.8-.7 2.9-.7 1 0 2 .3 2.8.8.8.4 1.5 1 1.9 2 .4.8.6 1.8.6 2.9 0 1.1-.2 2-.6 3-.4.8-1 1.4-1.9 2-.8.4-1.7.6-2.8.6Zm0-2.3c.6 0 1-.2 1.3-.5.4-.2.6-.6.8-1.1a5.1 5.1 0 0 0 0-3.4c-.2-.5-.4-1-.8-1.2-.3-.3-.7-.4-1.2-.4a2 2 0 0 0-1.3.4c-.3.3-.6.7-.8 1.2l-.2 1.7c0 .6 0 1.2.2 1.7s.5.9.8 1.1c.4.3.8.5 1.3.5Zm11.4 2.3c-.8 0-1.5-.2-2.2-.7-.7-.4-1.2-1-1.6-1.9-.4-.8-.6-1.8-.6-3 0-1.3.2-2.3.6-3.2.4-.8 1-1.4 1.6-1.8a4.1 4.1 0 0 1 3.8-.3l1 .7.5 1h.1v-5.5h3V122h-3v-1.7a4 4 0 0 1-.7.9 3 3 0 0 1-1 .7c-.4.2-.9.3-1.5.3Zm1-2.4a2 2 0 0 0 1.2-.4c.4-.3.6-.7.8-1.2.2-.4.3-1 .3-1.7 0-.6-.1-1.2-.3-1.6-.2-.5-.4-.9-.8-1.2a2 2 0 0 0-1.2-.3 2 2 0 0 0-1.3.4c-.3.2-.6.6-.7 1-.2.6-.3 1.1-.3 1.7 0 .7 0 1.2.3 1.7.1.5.4.9.7 1.2.4.2.8.4 1.3.4Zm12.7 2.4c-1.1 0-2-.2-2.9-.7a4.7 4.7 0 0 1-1.9-2c-.4-.8-.6-1.8-.6-3 0-1 .2-2 .6-2.9.5-.8 1-1.5 1.9-2 .8-.4 1.7-.7 2.8-.7.7 0 1.4.2 2 .4a4.4 4.4 0 0 1 2.7 2.8c.3.7.4 1.5.4 2.4v.8H451v-1.9h6.4c0-.4-.1-.8-.3-1.1a2 2 0 0 0-.8-.8c-.3-.2-.7-.3-1.2-.3l-1.2.3c-.3.2-.6.5-.8.9-.2.3-.3.7-.3 1.1v1.8c0 .6 0 1 .3 1.4l.8 1c.4.1.8.3 1.3.3.4 0 .7 0 1-.2.3 0 .5-.2.7-.4l.4-.7 2.8.2c-.1.6-.4 1.2-.8 1.7-.5.5-1 1-1.7 1.2-.7.3-1.5.4-2.4.4Zm11.7-.2v-14.5h5.7c1.1 0 2 .2 2.8.5a4 4 0 0 1 1.8 1.7c.4.7.6 1.5.6 2.5s-.2 1.8-.6 2.5a4 4 0 0 1-1.8 1.6c-.8.4-1.8.5-2.9.5h-3.8v-2.4h3.3c.6 0 1.1-.1 1.5-.3.4-.1.7-.4.9-.7.2-.3.3-.7.3-1.2s-.1-.9-.3-1.2c-.2-.3-.5-.6-1-.8l-1.4-.2h-2v12h-3.1Zm7.8-6.6 3.6 6.6H475l-3.5-6.6h3.3Zm10 6.8c-1 0-2-.2-2.9-.7a4.7 4.7 0 0 1-1.8-2c-.5-.8-.7-1.8-.7-3 0-1 .2-2 .7-2.9.4-.8 1-1.5 1.8-2 .8-.4 1.7-.7 2.8-.7.7 0 1.4.2 2 .4a4.4 4.4 0 0 1 2.7 2.8c.3.7.4 1.5.4 2.4v.8h-9.2v-1.9h6.4c0-.4-.1-.8-.3-1.1a2 2 0 0 0-.8-.8 2.3 2.3 0 0 0-2.4 0c-.3.2-.6.5-.8.9-.2.3-.3.7-.3 1.1v1.8c0 .6.1 1 .3 1.4.2.4.5.7.9 1 .3.1.8.3 1.3.3.3 0 .6 0 .9-.2.3 0 .5-.2.7-.4l.5-.7 2.8.2c-.2.6-.5 1.2-.9 1.7s-1 1-1.7 1.2c-.7.3-1.5.4-2.4.4Zm16.9-11.1-3.8 10.9h-3.4l-3.8-11h3.1l2.3 7.9h.1l2.3-7.8h3.2ZM503 122v-11h3v11h-3Zm1.6-12.3c-.5 0-.9-.2-1.2-.5-.3-.3-.5-.6-.5-1 0-.5.2-.8.5-1.1.3-.3.7-.5 1.2-.5.4 0 .8.2 1.1.5.3.3.5.6.5 1 0 .5-.2.8-.5 1.1-.3.3-.7.5-1.1.5Zm8.9 12.5c-1.2 0-2.1-.2-3-.7a4.7 4.7 0 0 1-1.8-2c-.4-.8-.7-1.8-.7-3 0-1 .3-2 .7-2.9.4-.8 1-1.5 1.8-2 .8-.4 1.8-.7 2.8-.7.8 0 1.4.2 2 .4a4.4 4.4 0 0 1 2.8 2.8c.2.7.4 1.5.4 2.4v.8h-9.2v-1.9h6.3c0-.4 0-.8-.3-1.1a2 2 0 0 0-.8-.8 2.3 2.3 0 0 0-2.4 0c-.3.2-.6.5-.8.9-.2.3-.3.7-.3 1.1v1.8c0 .6.1 1 .3 1.4.2.4.5.7.9 1 .4.1.8.3 1.3.3.3 0 .7 0 1-.2.2 0 .4-.2.6-.4l.5-.7 2.8.2c-.1.6-.4 1.2-.9 1.7-.4.5-1 1-1.7 1.2-.6.3-1.4.4-2.3.4Zm9-.2-3-11h3.1l1.7 7.4h.1l1.8-7.3h3l1.8 7.3 1.7-7.3h3L533 122h-3.2l-1.9-6.9h-.1l-1.9 6.9h-3.2Zm24-7.8-2.8.2c0-.3-.2-.5-.3-.7l-.6-.4-1-.2c-.4 0-.8 0-1.1.3-.4.2-.5.4-.5.8 0 .2 0 .5.3.6l1 .5 2 .4c1.1.2 1.9.5 2.4 1s.8 1.1.8 2a3 3 0 0 1-.6 1.8c-.5.5-1 1-1.8 1.3-.7.3-1.5.4-2.5.4-1.4 0-2.6-.3-3.4-.9a3.5 3.5 0 0 1-1.5-2.5l3-.1c0 .4.3.8.6 1 .4.2.8.3 1.3.3.6 0 1 0 1.3-.3.4-.2.5-.4.5-.8 0-.3-.1-.5-.3-.7l-1-.4-2-.3c-1-.3-1.8-.6-2.3-1.1-.6-.6-.8-1.2-.8-2s.2-1.4.5-1.9c.4-.5 1-.9 1.7-1.1.7-.3 1.5-.5 2.4-.5 1.4 0 2.5.3 3.3 1 .8.5 1.2 1.3 1.3 2.3Zm3.9 8c-.5 0-.9-.2-1.2-.5-.4-.3-.5-.8-.5-1.2 0-.5.1-.9.5-1.2.3-.3.7-.5 1.2-.5.4 0 .8.2 1.2.5.3.3.5.7.5 1.2 0 .3-.1.6-.3.8-.1.3-.3.5-.6.7l-.8.2Zm0-7.7c-.5 0-.9-.1-1.2-.5-.4-.3-.5-.7-.5-1.2 0-.4.1-.8.5-1.1.3-.4.7-.5 1.2-.5.4 0 .8.1 1.2.5.3.3.5.7.5 1.1 0 .4-.1.6-.3 1-.1.2-.3.4-.6.5-.2.2-.5.2-.8.2ZM410.3 174v-14.5h5.7c1.1 0 2 .2 2.8.6.8.4 1.4 1 1.8 1.7.4.8.6 1.6.6 2.6s-.2 1.8-.6 2.5c-.4.8-1 1.4-1.8 1.8a6 6 0 0 1-2.9.6h-3.6v-2.5h3.1c.6 0 1.1 0 1.5-.3.4-.2.7-.5.9-.8.2-.4.2-.8.2-1.3s0-1-.2-1.3a2 2 0 0 0-1-.8c-.3-.2-.8-.3-1.4-.3h-2v12h-3.1Zm12.9 0v-11h2.9v2h.1c.2-.7.5-1.2 1-1.5.5-.4 1-.6 1.6-.6a4.5 4.5 0 0 1 1 .1v2.7h-.6l-.7-.1c-.4 0-.8 0-1.2.3a2.1 2.1 0 0 0-1.1 2v6.1h-3Zm12.6.2c-1.1 0-2.1-.2-2.9-.7a4.8 4.8 0 0 1-1.9-2c-.4-.8-.6-1.8-.6-3 0-1 .2-2 .6-2.9.5-.8 1.1-1.5 1.9-2 .8-.4 1.8-.7 2.9-.7 1 0 2 .3 2.8.8.8.4 1.4 1 1.9 2 .4.8.6 1.8.6 2.9 0 1.1-.2 2-.6 3-.5.8-1 1.4-1.9 2-.8.4-1.7.6-2.8.6Zm0-2.3c.5 0 .9-.2 1.2-.5.4-.2.6-.6.8-1.1a5.1 5.1 0 0 0 0-3.4c-.2-.5-.4-1-.8-1.2-.3-.3-.7-.4-1.2-.4a2 2 0 0 0-1.3.4c-.3.3-.6.7-.8 1.2l-.2 1.7c0 .6 0 1.2.2 1.7s.5.9.8 1.1c.3.3.8.5 1.3.5Zm7.3-8.8h3v11.4c0 .9-.1 1.6-.5 2-.3.6-.8 1-1.4 1.2a6 6 0 0 1-2.5.4h-.3v-2.4a4.5 4.5 0 0 0 .4 0c.5 0 .8 0 1-.3.2-.2.3-.5.3-1v-11.3Zm1.5-1.4c-.4 0-.8-.2-1.1-.5a1.4 1.4 0 0 1 0-2.1c.3-.3.7-.5 1.1-.5.5 0 .8.2 1.2.5.3.3.4.6.4 1 0 .5-.1.8-.4 1.1-.4.3-.7.5-1.2.5Zm9 12.5c-1.2 0-2.2-.2-3-.7a4.7 4.7 0 0 1-1.8-2c-.5-.8-.7-1.8-.7-3 0-1 .2-2 .7-2.9.4-.8 1-1.5 1.8-2 .8-.4 1.7-.7 2.8-.7.7 0 1.4.2 2 .4a4.4 4.4 0 0 1 2.7 2.8c.3.7.4 1.5.4 2.4v.8h-9.2v-1.9h6.4c0-.4-.1-.8-.3-1.1a2 2 0 0 0-.8-.8c-.3-.2-.7-.3-1.2-.3l-1.2.3c-.3.2-.6.5-.8.9-.2.3-.3.7-.3 1.1v1.8c0 .6.1 1 .3 1.4.2.4.5.7.9 1 .3.1.8.3 1.3.3.3 0 .6 0 .9-.2.3 0 .5-.2.7-.4l.5-.7 2.8.2c-.2.6-.5 1.2-1 1.7-.3.5-1 1-1.6 1.2-.7.3-1.5.4-2.4.4Zm11.8 0c-1 0-2-.2-2.9-.7a4.8 4.8 0 0 1-1.8-2c-.4-.8-.6-1.8-.6-3 0-1 .2-2 .6-2.9.4-.8 1-1.5 1.9-2 .8-.4 1.7-.7 2.8-.7 1 0 1.8.2 2.5.6.7.3 1.3.8 1.7 1.4.4.6.7 1.4.7 2.2h-2.9c0-.5-.2-1-.6-1.3-.3-.3-.8-.5-1.3-.5a2 2 0 0 0-1.3.4c-.3.2-.6.6-.8 1l-.3 1.8c0 .7.1 1.3.3 1.8.2.5.5.9.8 1.1.4.3.8.4 1.3.4.3 0 .6 0 .9-.2.3-.1.5-.3.7-.6.2-.3.3-.6.3-1h2.9c0 .8-.3 1.6-.7 2.2-.4.6-1 1.1-1.6 1.5-.8.3-1.6.5-2.6.5Zm12.6-11.1v2.3h-6.5V163h6.5Zm-5-2.6h3v10.1l.1.7c.1.2.2.3.4.3l.5.1a2.7 2.7 0 0 0 .8 0l.4 2.2a8.4 8.4 0 0 1-1.6.2c-.7 0-1.4 0-2-.2-.5-.3-.9-.6-1.2-1-.3-.5-.4-1.1-.4-1.9v-10.5Zm16.9 13.5h-5.2v-14.5h5.2c1.5 0 2.7.2 3.8.8 1 .6 1.8 1.4 2.4 2.5.6 1.1.9 2.4.9 4 0 1.4-.3 2.7-.9 3.8-.6 1.1-1.4 2-2.4 2.5-1.1.6-2.4.9-3.8.9Zm-2.1-2.6h2a5 5 0 0 0 2.2-.5c.6-.3 1.1-.8 1.4-1.5.3-.7.5-1.6.5-2.7 0-1-.2-2-.5-2.6a3 3 0 0 0-1.4-1.5 5 5 0 0 0-2.3-.5h-2v9.3Zm16.4 2.8c-1.2 0-2.1-.2-3-.7a4.7 4.7 0 0 1-1.8-2c-.4-.8-.6-1.8-.6-3 0-1 .2-2 .6-2.9.4-.8 1-1.5 1.8-2 .8-.4 1.8-.7 2.8-.7.8 0 1.4.2 2 .4a4.4 4.4 0 0 1 2.8 2.8c.2.7.4 1.5.4 2.4v.8H500v-1.9h6.3c0-.4 0-.8-.3-1.1a2 2 0 0 0-.8-.8 2.3 2.3 0 0 0-2.4 0c-.3.2-.6.5-.8.9-.2.3-.3.7-.3 1.1v1.8c0 .6.1 1 .3 1.4.2.4.5.7.9 1 .4.1.8.3 1.3.3.3 0 .7 0 1-.2l.7-.4.4-.7 2.8.2c-.1.6-.4 1.2-.9 1.7-.4.5-1 1-1.7 1.2-.6.3-1.4.4-2.3.4Zm10-14.7V174h-3v-14.5h3Zm2.4 14.5v-11h3v11h-3Zm1.5-12.3c-.4 0-.8-.2-1.1-.5-.4-.3-.5-.6-.5-1 0-.5.1-.8.5-1.1.3-.3.7-.5 1.1-.5.5 0 .8.2 1.2.5.3.3.4.6.4 1 0 .5-.1.8-.4 1.1-.4.3-.7.5-1.2.5Zm14.1 1.4-3.8 10.9H525l-3.8-11h3.2l2.2 7.9h.2l2.2-7.8h3.2Zm6.2 11.1c-1.1 0-2.1-.2-3-.7a4.7 4.7 0 0 1-1.8-2c-.4-.8-.6-1.8-.6-3 0-1 .2-2 .6-2.9.5-.8 1-1.5 1.9-2 .8-.4 1.7-.7 2.8-.7.7 0 1.4.2 2 .4a4.4 4.4 0 0 1 2.7 2.8c.3.7.4 1.5.4 2.4v.8h-9.2v-1.9h6.3c0-.4 0-.8-.2-1.1a2 2 0 0 0-.8-.8c-.4-.2-.7-.3-1.2-.3-.4 0-.9.1-1.2.3-.4.2-.6.5-.8.9-.2.3-.3.7-.3 1.1v1.8c0 .6 0 1 .3 1.4.2.4.4.7.8 1 .4.1.8.3 1.3.3.4 0 .7 0 1-.2l.7-.4.4-.7 2.8.2c-.1.6-.4 1.2-.8 1.7-.5.5-1 1-1.7 1.2-.7.3-1.5.4-2.4.4Zm7-.2v-11h2.9v2h.1c.2-.7.5-1.2 1-1.5.5-.4 1-.6 1.6-.6a4.5 4.5 0 0 1 1 .1v2.7h-.6l-.7-.1c-.4 0-.8 0-1.2.3a2.1 2.1 0 0 0-1.1 2v6.1h-3Zm10.3 4a6 6 0 0 1-1.9-.2l.7-2.3 1 .2c.3 0 .5 0 .7-.2.2-.1.4-.4.5-.7l.2-.5-3.9-11.2h3.2l2.3 8 2.3-8h3.3l-4.3 12c-.2.7-.5 1.2-.8 1.6-.4.5-.8.8-1.3 1-.6.3-1.2.4-2 .4Zm11.7-3.8c-.5 0-.9-.2-1.2-.5-.4-.3-.5-.8-.5-1.2 0-.5.1-.9.5-1.2.3-.3.7-.5 1.2-.5.4 0 .8.2 1.2.5.3.3.5.7.5 1.2 0 .3-.1.6-.3.8-.1.3-.3.5-.6.7l-.8.2Zm0-7.7c-.5 0-.9-.1-1.2-.5-.4-.3-.5-.7-.5-1.2 0-.4.1-.8.5-1.1.3-.4.7-.5 1.2-.5.4 0 .8.1 1.2.5.3.3.5.7.5 1.1 0 .4-.1.6-.3 1-.1.2-.3.4-.6.5-.2.2-.5.2-.8.2ZM423.1 216.5H420a3 3 0 0 0-.4-1l-.6-.8a3 3 0 0 0-1-.5c-.3-.2-.7-.2-1.1-.2-.8 0-1.5.2-2 .5-.6.4-1 1-1.3 1.7-.3.7-.5 1.5-.5 2.5s.2 2 .5 2.6c.3.7.7 1.3 1.3 1.6a3.8 3.8 0 0 0 3 .4 2.8 2.8 0 0 0 1.6-1.3c.3-.2.4-.6.5-1h3.1a5.6 5.6 0 0 1-1.9 3.6 6 6 0 0 1-2 1.2 7 7 0 0 1-2.4.4c-1.3 0-2.5-.3-3.5-.9-1-.6-1.8-1.4-2.4-2.5a8.6 8.6 0 0 1-.9-4c0-1.7.3-3 .9-4.1.6-1.1 1.4-2 2.4-2.6 1-.6 2.2-.8 3.5-.8.8 0 1.6 0 2.3.3a6 6 0 0 1 2 1 6.2 6.2 0 0 1 2 3.9Zm7 9.7c-1 0-2-.2-2.8-.7a4.8 4.8 0 0 1-1.8-2c-.5-.8-.7-1.8-.7-3 0-1 .2-2 .7-2.9.4-.8 1-1.5 1.8-2 .8-.4 1.8-.7 2.9-.7 1 0 2 .3 2.8.8.8.4 1.5 1 1.9 2 .4.8.6 1.8.6 2.9 0 1.1-.2 2-.6 3-.4.8-1 1.4-1.9 2-.8.4-1.7.6-2.8.6Zm0-2.3c.6 0 1-.2 1.3-.5.4-.2.6-.6.8-1.1a5.1 5.1 0 0 0 0-3.4c-.2-.5-.4-1-.8-1.2-.3-.3-.7-.4-1.2-.4a2 2 0 0 0-1.3.4c-.3.3-.6.7-.8 1.2l-.2 1.7c0 .6 0 1.2.2 1.7s.5.9.8 1.1c.4.3.8.5 1.3.5Zm7.4 2.1v-11h2.9v2h.1a3 3 0 0 1 1.2-1.5c.5-.4 1.1-.6 1.9-.6.7 0 1.3.2 1.9.6.5.4.9.9 1 1.5h.1c.3-.6.7-1.1 1.2-1.5.6-.4 1.3-.6 2.1-.6 1 0 1.9.4 2.5 1 .6.7 1 1.6 1 2.8v7.3h-3v-6.7c0-.6-.2-1.1-.5-1.4-.4-.3-.8-.5-1.2-.5-.6 0-1 .2-1.3.6a2 2 0 0 0-.5 1.3v6.7h-3v-6.8c0-.5 0-1-.4-1.3-.3-.3-.7-.5-1.2-.5a1.7 1.7 0 0 0-1.5 1c-.2.3-.3.6-.3 1v6.6h-3Zm18.3 0v-11h2.8v2h.2a3 3 0 0 1 1.1-1.5c.5-.4 1.2-.6 2-.6.7 0 1.3.2 1.8.6.5.4.9.9 1 1.5h.2c.2-.6.6-1.1 1.2-1.5.6-.4 1.3-.6 2-.6 1 0 2 .4 2.5 1 .7.7 1 1.6 1 2.8v7.3h-3v-6.7c0-.6-.2-1.1-.5-1.4-.3-.3-.7-.5-1.2-.5-.6 0-1 .2-1.3.6a2 2 0 0 0-.4 1.3v6.7h-3v-6.8c0-.5-.1-1-.4-1.3-.3-.3-.7-.5-1.2-.5a1.7 1.7 0 0 0-1.6 1l-.2 1v6.6h-3Zm25.2-4.6V215h3V226h-2.9v-2h-.1c-.2.7-.7 1.2-1.2 1.6-.6.3-1.3.5-2.1.5a3.4 3.4 0 0 1-3.2-2c-.3-.5-.5-1.2-.5-2v-7h3v6.4c0 .6.2 1.2.5 1.5.4.4.8.6 1.4.6.4 0 .7-.1 1-.3.4-.1.6-.4.8-.7.2-.3.3-.8.3-1.2Zm8.5-1.7v6.3h-3v-11h2.8v2h.1a3 3 0 0 1 1.3-1.5c.5-.4 1.2-.6 2-.6s1.4.2 2 .5c.6.4 1 .9 1.3 1.5.3.6.5 1.3.5 2.2v6.9h-3v-6.4c0-.7-.2-1.2-.5-1.6-.4-.3-.9-.5-1.5-.5-.4 0-.7 0-1 .2-.4.2-.6.5-.8.8l-.2 1.2Zm9.4 6.3v-11h3v11h-3Zm1.5-12.3c-.5 0-.8-.2-1.2-.5-.3-.3-.4-.6-.4-1 0-.5.1-.8.4-1.1.4-.3.7-.5 1.2-.5.4 0 .8.2 1.2.5.3.3.4.6.4 1 0 .5-.1.8-.4 1.1-.4.3-.8.5-1.2.5Zm8.9 12.5c-1.2 0-2.1-.2-3-.7a4.8 4.8 0 0 1-1.8-2c-.4-.8-.6-1.8-.6-3 0-1 .2-2 .6-2.9.5-.8 1-1.5 1.9-2 .8-.4 1.7-.7 2.8-.7 1 0 1.8.2 2.5.6.8.3 1.3.8 1.7 1.4.5.6.7 1.4.7 2.2h-2.8c-.1-.5-.3-1-.7-1.3-.3-.3-.8-.5-1.3-.5a2 2 0 0 0-1.2.4c-.4.2-.7.6-.8 1l-.3 1.8c0 .7 0 1.3.2 1.8s.5.9.9 1.1c.3.3.7.4 1.2.4.3 0 .6 0 1-.2l.6-.6.4-1h2.8c0 .8-.2 1.6-.7 2.2-.4.6-1 1.1-1.6 1.5-.7.3-1.6.5-2.5.5Zm9.9 0c-.7 0-1.3-.1-1.9-.4a3 3 0 0 1-1.3-1c-.3-.5-.4-1.1-.4-1.8s0-1.2.3-1.6c.2-.4.5-.7.9-1l1.3-.5a40.3 40.3 0 0 0 4-.7l.2-.6c0-.5-.1-.8-.4-1-.3-.3-.7-.4-1.2-.4-.6 0-1 0-1.3.3-.3.3-.6.6-.7 1l-2.8-.3a3.8 3.8 0 0 1 2.5-2.9c.7-.2 1.4-.4 2.3-.4a7 7 0 0 1 1.7.3c.6.1 1 .3 1.5.6a3.2 3.2 0 0 1 1.4 2.8v7.4h-2.8v-1.5h-.1a3 3 0 0 1-1.8 1.5l-1.4.2Zm.8-2c.5 0 .9-.2 1.2-.3.4-.2.6-.5.8-.8.2-.3.3-.6.3-1v-1.2l-.4.2a7.4 7.4 0 0 1-1.1.3 133 133 0 0 1-1.5.3c-.3 0-.5.2-.6.4-.2.2-.3.5-.3.8 0 .4.2.7.5.9.3.2.7.3 1.1.3Zm13.5-9.1v2.3h-6.6V215h6.6Zm-5.1-2.6h3v10.1l.1.7c.1.2.3.3.4.3l.5.1a2.7 2.7 0 0 0 .8 0l.5 2.2a8.6 8.6 0 0 1-1.7.2c-.7 0-1.3 0-1.9-.2-.5-.3-1-.6-1.3-1-.3-.5-.4-1.1-.4-1.9v-10.5Zm7 13.5v-11h3v11h-3Zm1.6-12.3c-.5 0-.9-.2-1.2-.5-.3-.3-.5-.6-.5-1 0-.5.2-.8.5-1.1.3-.3.7-.5 1.2-.5.4 0 .8.2 1.1.5.3.3.5.6.5 1 0 .5-.2.8-.5 1.1-.3.3-.7.5-1.1.5Zm8.8 12.5c-1 0-2-.2-2.8-.7a4.8 4.8 0 0 1-1.9-2c-.4-.8-.6-1.8-.6-3 0-1 .2-2 .6-2.9.4-.8 1-1.5 1.9-2 .8-.4 1.7-.7 2.8-.7 1.1 0 2 .3 2.9.8.8.4 1.4 1 1.8 2 .5.8.7 1.8.7 2.9 0 1.1-.2 2-.7 3-.4.8-1 1.4-1.8 2-.8.4-1.8.6-2.9.6Zm0-2.3c.5 0 1-.2 1.3-.5.3-.2.6-.6.8-1.1l.2-1.7c0-.7 0-1.2-.2-1.7s-.5-1-.8-1.2c-.3-.3-.8-.4-1.3-.4a2 2 0 0 0-1.2.4c-.4.3-.6.7-.8 1.2a5.2 5.2 0 0 0 0 3.4c.2.5.4.9.8 1.1.3.3.7.5 1.2.5Zm10.4-4.2v6.3h-3v-11h2.8v2h.2a3 3 0 0 1 1.2-1.5c.6-.4 1.2-.6 2-.6s1.5.2 2 .5c.6.4 1 .9 1.3 1.5.4.6.5 1.3.5 2.2v6.9h-3v-6.4c0-.7-.2-1.2-.5-1.6-.4-.3-.8-.5-1.5-.5-.4 0-.7 0-1 .2l-.8.8-.2 1.2Zm11.2 6.5c-.5 0-.9-.2-1.2-.5-.4-.3-.5-.8-.5-1.2 0-.5.1-.9.5-1.2.3-.3.7-.5 1.2-.5.4 0 .8.2 1.2.5.3.3.5.7.5 1.2 0 .3-.1.6-.3.8-.1.3-.3.5-.6.7l-.8.2Zm0-7.7c-.5 0-.9-.1-1.2-.5-.4-.3-.5-.7-.5-1.2 0-.4.1-.8.5-1.1.3-.4.7-.5 1.2-.5.4 0 .8.1 1.2.5.3.3.5.7.5 1.1 0 .4-.1.6-.3 1-.1.2-.3.4-.6.5-.2.2-.5.2-.8.2ZM409.7 266v-2.5h12v2.5h-4.5v12h-3v-12h-4.5Zm17.3 12.2c-1.2 0-2.1-.2-3-.7a4.7 4.7 0 0 1-1.8-2c-.4-.8-.7-1.8-.7-2.9 0-1.1.3-2.1.7-3 .4-.8 1-1.5 1.8-2 .8-.4 1.8-.7 2.8-.7.8 0 1.4.2 2 .4a4.4 4.4 0 0 1 2.8 2.8c.2.7.4 1.5.4 2.4v.8h-9.2v-1.9h6.3c0-.4 0-.8-.3-1.1a2 2 0 0 0-.8-.8 2.3 2.3 0 0 0-2.4 0c-.3.2-.6.5-.8.9-.2.3-.3.7-.3 1.1v1.8c0 .6.1 1 .3 1.4.2.4.5.7.9 1 .4.1.8.3 1.3.3.3 0 .6 0 1-.2.2 0 .4-.2.6-.4l.5-.7 2.8.2c-.1.6-.4 1.2-.9 1.7-.4.5-1 1-1.7 1.2-.7.3-1.4.4-2.3.4Zm10 0c-.6 0-1.3-.1-1.8-.4a3 3 0 0 1-1.3-1c-.3-.5-.5-1.1-.5-1.8s.1-1.2.4-1.6c.2-.4.5-.7.9-1l1.3-.5 1.5-.3a40.4 40.4 0 0 0 2.4-.5c.2 0 .3-.3.3-.5 0-.5-.2-.8-.5-1-.2-.3-.6-.4-1.2-.4-.5 0-1 0-1.3.3-.3.3-.5.6-.6 1l-2.8-.3a3.8 3.8 0 0 1 2.5-2.9 7 7 0 0 1 4-.2l1.5.7a3.2 3.2 0 0 1 1.4 2.8v7.4h-2.9v-1.5a3 3 0 0 1-1.8 1.5l-1.5.2Zm1-2c.4 0 .8-.2 1-.3.4-.2.7-.5.9-.8.2-.3.3-.6.3-1v-1.2l-.4.2a7.4 7.4 0 0 1-1.2.3 206.4 206.4 0 0 1-1.4.3l-.7.4-.2.8c0 .4.2.7.5.9.3.2.7.3 1.1.3Zm7.5 1.8v-11h3v2a3 3 0 0 1 1.2-1.5c.5-.4 1.2-.6 1.9-.6s1.4.2 1.9.6c.5.4.9.9 1 1.5h.2c.2-.6.6-1.1 1.2-1.5.6-.4 1.3-.6 2-.6 1 0 1.9.4 2.5 1 .7.7 1 1.6 1 2.8v7.3h-3v-6.7c0-.6-.2-1.1-.5-1.4-.3-.3-.7-.5-1.2-.5-.6 0-1 .2-1.3.6a2 2 0 0 0-.5 1.3v6.7H452v-6.8c0-.5-.2-1-.5-1.3-.3-.3-.7-.5-1.2-.5a1.7 1.7 0 0 0-1.5 1c-.2.3-.2.6-.2 1v6.6h-3Zm20.4 0-3-11h3.1l1.7 7.4h.1l1.8-7.3h3l1.8 7.3 1.7-7.3h3l-2.9 10.9H473l-1.9-6.9h-.1l-1.9 6.9H466Zm19.5.2c-1 0-2-.2-2.8-.7a4.8 4.8 0 0 1-1.9-2c-.4-.8-.6-1.8-.6-3 0-1 .2-2 .6-2.9.5-.8 1-1.5 1.9-2 .8-.4 1.7-.7 2.8-.7 1.2 0 2.1.3 2.9.8.8.4 1.4 1 1.9 2 .4.8.6 1.8.6 2.9 0 1.1-.2 2-.6 3-.5.8-1 1.4-1.9 2-.8.4-1.7.6-2.9.6Zm0-2.3c.6 0 1-.2 1.3-.5.4-.2.6-.6.8-1.1.2-.5.2-1.1.2-1.7 0-.7 0-1.2-.2-1.7s-.4-1-.8-1.2c-.3-.3-.7-.4-1.2-.4a2 2 0 0 0-1.3.4c-.4.3-.6.7-.8 1.2-.2.5-.2 1-.2 1.7 0 .6 0 1.2.2 1.7s.4.9.8 1.1c.3.3.8.5 1.3.5Zm7.4 2.1v-11h3v2c.2-.7.6-1.2 1-1.5.5-.4 1-.6 1.7-.6a4.5 4.5 0 0 1 .9.1v2.7h-.6l-.7-.1c-.4 0-.8 0-1.2.3a2.1 2.1 0 0 0-1 2v6.1h-3.1Zm11-3.1v-3.7h.4l3.5-4.1h3.4l-4.7 5.5h-.7l-2 2.3ZM501 278v-14.5h3V278h-3Zm6.8 0-3.2-4.8 2-2 4.7 6.8h-3.5Zm6.6.2c-.5 0-.9-.2-1.2-.5-.4-.3-.5-.8-.5-1.2 0-.5.1-.9.5-1.2.3-.3.7-.5 1.2-.5.4 0 .8.2 1.2.5.3.3.5.7.5 1.2 0 .3-.1.6-.3.8-.1.3-.3.5-.6.7l-.8.2Zm0-7.7c-.5 0-.9-.1-1.2-.5-.4-.3-.5-.7-.5-1.2 0-.4.1-.8.5-1.1.3-.4.7-.5 1.2-.5.4 0 .8.1 1.2.5.3.3.5.7.5 1.1 0 .4-.1.6-.3.9-.1.3-.3.5-.6.6-.2.2-.5.2-.8.2Z"/><defs><filter id="a" width="857" height="469" x="-68" y="-68" color-interpolation-filters="sRGB" filterUnits="userSpaceOnUse"><feFlood flood-opacity="0" result="BackgroundImageFix"/><feGaussianBlur in="BackgroundImageFix" stdDeviation="34"/><feComposite in2="SourceAlpha" operator="in" result="effect1_backgroundBlur_114_6834"/><feBlend in="SourceGraphic" in2="effect1_backgroundBlur_114_6834" result="shape"/></filter><filter id="b" width="170.7" height="170.7" x="113.2" y="106.3" color-interpolation-filters="sRGB" filterUnits="userSpaceOnUse"><feFlood flood-opacity="0" result="BackgroundImageFix"/><feColorMatrix in="SourceAlpha" result="hardAlpha" values="0 0 0 0 0 0 0 0 0 0 0 0 0 0 0 0 0 0 127 0"/><feOffset dy="4.1"/><feGaussianBlur stdDeviation="2"/><feComposite in2="hardAlpha" operator="out"/><feColorMatrix values="0 0 0 0 0 0 0 0 0 0 0 0 0 0 0 0 0 0 0.25 0"/><feBlend in2="BackgroundImageFix" result="effect1_dropShadow_114_6834"/><feBlend in="SourceGraphic" in2="effect1_dropShadow_114_6834" result="shape"/></filter><filter id="c" width="215.6" height="215.6" x="90.7" y="79.7" color-interpolation-filters="sRGB" filterUnits="userSpaceOnUse"><feFlood flood-opacity="0" result="BackgroundImageFix"/><feColorMatrix in="SourceAlpha" result="hardAlpha" values="0 0 0 0 0 0 0 0 0 0 0 0 0 0 0 0 0 0 127 0"/><feMorphology in="SourceAlpha" operator="dilate" radius="4.1" result="effect1_dropShadow_114_6834"/><feOffset/><feGaussianBlur stdDeviation="11.2"/><feComposite in2="hardAlpha" operator="out"/><feColorMatrix values="0 0 0 0 0 0 0 0 0 0 0 0 0 0 0 0 0 0 0.35 0"/><feBlend in2="BackgroundImageFix" result="effect1_dropShadow_114_6834"/><feBlend in="SourceGraphic" in2="effect1_dropShadow_114_6834" result="shape"/></filter><filter id="d" width="215.6" height="215.6" x="90.7" y="79.7" color-interpolation-filters="sRGB" filterUnits="userSpaceOnUse"><feFlood flood-opacity="0" result="BackgroundImageFix"/><feColorMatrix in="SourceAlpha" result="hardAlpha" values="0 0 0 0 0 0 0 0 0 0 0 0 0 0 0 0 0 0 127 0"/><feMorphology in="SourceAlpha" operator="dilate" radius="4.1" result="effect1_dropShadow_114_6834"/><feOffset/><feGaussianBlur stdDeviation="11.2"/><feComposite in2="hardAlpha" operator="out"/><feColorMatrix values="0 0 0 0 0 0 0 0 0 0 0 0 0 0 0 0 0 0 0.35 0"/><feBlend in2="BackgroundImageFix" result="effect1_dropShadow_114_6834"/><feBlend in="SourceGraphic" in2="effect1_dropShadow_114_6834" result="shape"/></filter><linearGradient id="e" x1="117.3" x2="279.8" y1="191.5" y2="189.7" gradientUnits="userSpaceOnUse"><stop stop-color="#FBFDFE"/><stop offset="1" stop-color="#7056ED"/></linearGradient></defs></svg>