<svg width="100" height="100" viewBox="0 0 100 100" fill="none" xmlns="http://www.w3.org/2000/svg">
<rect x="0.5" y="99.5" width="99" height="99" rx="49.5" transform="rotate(-90 0.5 99.5)" fill="#0E0E0E" stroke="#30353E"/>
<path d="M64.5824 45.8337H66.6657C67.2182 45.8337 67.7481 46.0532 68.1388 46.4439C68.5295 46.8346 68.749 47.3645 68.749 47.917V68.7503C68.749 69.3029 68.5295 69.8328 68.1388 70.2235C67.7481 70.6142 67.2182 70.8337 66.6657 70.8337H33.3324C32.7798 70.8337 32.2499 70.6142 31.8592 70.2235C31.4685 69.8328 31.249 69.3029 31.249 68.7503V47.917C31.249 47.3645 31.4685 46.8346 31.8592 46.4439C32.2499 46.0532 32.7798 45.8337 33.3324 45.8337H35.4157V43.7503C35.4157 41.8352 35.7929 39.9389 36.5258 38.1695C37.2587 36.4002 38.3329 34.7925 39.687 33.4384C41.0412 32.0842 42.6489 31.01 44.4182 30.2771C46.1876 29.5442 48.0839 29.167 49.999 29.167C51.9141 29.167 53.8105 29.5442 55.5798 30.2771C57.3492 31.01 58.9568 32.0842 60.311 33.4384C61.6652 34.7925 62.7394 36.4002 63.4723 38.1695C64.2051 39.9389 64.5824 41.8352 64.5824 43.7503V45.8337ZM60.4157 45.8337V43.7503C60.4157 40.9877 59.3182 38.3381 57.3647 36.3846C55.4112 34.4311 52.7617 33.3337 49.999 33.3337C47.2364 33.3337 44.5868 34.4311 42.6333 36.3846C40.6798 38.3381 39.5824 40.9877 39.5824 43.7503V45.8337H60.4157ZM47.9157 54.167V62.5003H52.0824V54.167H47.9157Z" fill="white"/>
</svg>
