<svg width="617" height="202" viewBox="0 0 617 202" fill="none" xmlns="http://www.w3.org/2000/svg">
<path d="M57.4468 138.803H46.6848C44.9367 138.803 43.5195 137.386 43.5195 135.638V71.9193C43.5195 55.9412 65.8142 53.7117 73.6173 64.1162L95.5707 94.6879C96.3522 95.7762 96.3639 97.2387 95.5997 98.3393L87.5671 109.909C86.3127 111.716 83.6435 111.724 82.3781 109.925L66.3664 87.1604C64.5881 84.6321 60.6121 85.8904 60.6121 88.9815V135.638C60.6121 137.386 59.195 138.803 57.4468 138.803Z" fill="white"/>
<path d="M127.702 138.804H138.464C140.212 138.804 141.629 137.387 141.629 135.639V71.9202C141.629 55.942 118.22 54.0842 111.531 64.1171L82.311 106.522C81.56 107.611 81.5664 109.053 82.3269 110.137L90.6656 122.013C91.9447 123.835 94.655 123.802 95.8898 121.95L118.737 87.6786C120.475 85.0728 124.536 86.3026 124.536 89.4344V135.639C124.536 137.387 125.953 138.804 127.702 138.804Z" fill="white"/>
<g clip-path="url(#clip0_622_11483)">
<path d="M124.522 135.29C124.516 191.098 163.931 184.001 185.165 134.92C191.498 114.345 193.038 101.578 189.182 85.0694C185.326 68.5611 177.418 53.2737 166.172 40.5883C154.926 27.9028 140.697 18.2191 124.77 12.4121C108.843 6.60509 91.7196 4.85774 74.9479 7.3279C58.1761 9.79807 42.284 16.4079 28.7075 26.5603C15.131 36.7127 4.29775 50.0876 -2.81337 65.4767C-9.92448 80.8658 -13.0894 97.7841 -12.0222 114.703L11.584 113.214C10.7641 100.217 13.1954 87.2203 18.6582 75.3984C24.121 63.5765 32.443 53.3019 42.8725 45.5029C53.302 37.7038 65.5103 32.6261 78.3943 30.7286C91.2784 28.831 104.432 30.1733 116.667 34.6342C128.903 39.0952 139.834 46.5342 148.473 56.2792C157.112 66.0241 163.578 77.0351 166.54 89.7168C169.503 102.398 169.735 114.484 165.083 127.237C158.698 142.858 141.614 163.63 141.614 135.29L124.522 135.29Z" fill="white"/>
</g>
<path d="M106.829 13.4525C125.028 13.4525 142.753 19.5115 157.423 30.748C172.094 41.9846 182.946 57.8122 188.4 75.9283C193.853 94.0444 193.625 113.504 187.747 131.475C181.869 149.446 167.701 166.376 153.858 172.73L146.012 161.319C157.978 152.617 166.971 140.158 171.681 125.754C176.392 111.351 176.575 95.7554 172.204 81.2361C167.833 66.7169 159.136 54.0317 147.378 45.0261C135.62 36.0205 121.415 31.1644 106.829 31.1644L106.829 13.4525Z" fill="white"/>
<path d="M248.183 145.636C243.102 145.636 240.113 142.527 240.113 137.207V68.7007C240.113 61.4077 244.417 57.0438 251.77 57.0438C258.046 57.0438 261.514 59.6741 264.144 66.3693L285.545 119.393H286.023L307.364 66.3693C309.994 59.7339 313.521 57.0438 319.858 57.0438C327.151 57.0438 331.455 61.3479 331.455 68.7007V137.207C331.455 142.527 328.466 145.636 323.385 145.636C318.303 145.636 315.374 142.527 315.374 137.207V86.2756H314.896L293.555 138.462C292.001 142.288 289.61 143.962 285.844 143.962C282.018 143.962 279.507 142.228 278.013 138.522L256.672 86.2756H256.193V137.207C256.193 142.527 253.264 145.636 248.183 145.636ZM373.778 145.875C353.752 145.875 341.976 133.501 341.976 112.758C341.976 92.1339 353.991 79.0424 372.941 79.0424C391.114 79.0424 403.309 91.4763 403.309 108.872C403.309 113.714 400.559 116.464 395.717 116.464H359.132V117.241C359.132 126.746 364.871 132.963 373.718 132.963C380.115 132.963 384.299 130.811 389.022 125.251C390.875 123.338 392.429 122.681 394.701 122.681C398.467 122.681 401.515 125.072 401.515 129.077C401.515 130.452 401.097 131.887 400.32 133.321C396.075 141.212 386.152 145.875 373.778 145.875ZM359.312 105.763H386.511C386.152 97.3944 380.772 91.9546 373.12 91.9546C365.469 91.9546 359.909 97.5738 359.312 105.763ZM421.242 72.4667C415.982 72.4667 411.917 68.4615 411.917 63.4401C411.917 58.359 415.982 54.4136 421.242 54.4136C426.503 54.4136 430.568 58.359 430.568 63.4401C430.568 68.4615 426.503 72.4667 421.242 72.4667ZM421.242 79.1021C426.323 79.1021 429.91 82.2704 429.91 88.2483V148.206C429.91 160.162 422.976 167.216 411.618 167.216H411.319C404.624 167.216 400.678 164.586 400.678 159.923C400.678 156.635 402.532 154.722 406.417 154.005L407.194 153.885C410.96 153.228 412.455 151.135 412.455 147.13V88.2483C412.455 82.2704 416.101 79.1021 421.242 79.1021ZM471.157 145.875C451.789 145.875 439.415 133.441 439.415 112.399C439.415 91.6557 451.968 79.0424 471.157 79.0424C490.346 79.0424 502.9 91.5959 502.9 112.399C502.9 133.501 490.526 145.875 471.157 145.875ZM471.157 132.544C479.706 132.544 485.146 125.311 485.146 112.459C485.146 99.7258 479.646 92.373 471.157 92.373C462.669 92.373 457.109 99.7258 457.109 112.459C457.109 125.311 462.549 132.544 471.157 132.544ZM520.654 145.755C515.394 145.755 511.926 142.468 511.926 136.669V87.8896C511.926 82.3302 515.334 79.1021 520.355 79.1021C525.257 79.1021 528.605 82.3302 528.605 87.8896V92.0741H528.963C530.637 84.1236 535.898 79.401 542.294 79.401C544.625 79.401 546.479 79.9391 547.734 81.0151C549.408 82.3302 550.245 84.4822 550.245 87.4712C550.245 90.221 549.408 92.3132 547.734 93.7479C546.06 95.1826 543.549 95.9597 540.142 96.0195C532.191 96.1391 529.382 100.622 529.382 108.214V136.669C529.382 142.468 525.974 145.755 520.654 145.755ZM573.917 145.516C561.722 145.516 552.456 137.625 552.456 126.088C552.456 114.431 561.423 107.676 577.444 106.72L593.584 105.763V101.519C593.584 95.5413 589.4 92.0741 582.824 92.0741C577.504 92.0741 574.276 93.8077 570.39 98.8291C568.477 100.981 566.265 102.057 563.456 102.057C559.211 102.057 556.163 99.3073 556.163 95.3619C556.163 93.987 556.462 92.7317 557.059 91.4166C560.048 83.7649 570.33 79.0424 583.601 79.0424C600.04 79.0424 610.741 87.5309 610.741 100.443V136.968C610.741 142.766 607.214 145.755 602.252 145.755C597.529 145.755 594.242 143.125 593.883 137.984V134.696H593.524C589.938 141.511 581.927 145.516 573.917 145.516ZM579.656 132.903C587.307 132.903 593.584 127.941 593.584 121.007V116.344L580.074 117.181C573.558 117.659 569.852 120.589 569.852 125.132C569.852 129.914 573.797 132.903 579.656 132.903Z" fill="white"/>
<defs>
<clipPath id="clip0_622_11483">
<rect width="180.01" height="180.01" rx="90.0052" transform="matrix(0.991417 -0.13074 -0.13074 -0.991417 23.5342 202)" fill="white"/>
</clipPath>
</defs>
</svg>
