<svg width="507" height="139" viewBox="0 0 507 139" fill="none" xmlns="http://www.w3.org/2000/svg">
<path d="M39.3552 35.3122L1 57.7711V137.001L39.3552 114.542V35.3122Z" fill="#FFBD59"/>
<path d="M56.9608 1L19.2344 22.835L63.8773 49.0371V100.817L101.604 78.9822V26.5782L56.9608 1Z" fill="#FFBD59"/>
<path d="M39.3552 35.3122L1 57.7711V137.001L39.3552 114.542V35.3122Z" stroke="url(#paint0_linear_150_10678)" stroke-width="1.2487"/>
<path d="M56.9608 1L19.2344 22.835L63.8773 49.0371V100.817L101.604 78.9822V26.5782L56.9608 1Z" stroke="url(#paint1_linear_150_10678)" stroke-width="1.2487"/>
<path d="M150.333 31.6831H170.472C174.295 31.6831 177.751 32.3407 180.84 33.6558C183.96 34.9709 186.437 36.9894 188.272 39.7114C190.107 42.4028 191.025 45.8435 191.025 50.0335C191.025 54.1929 190.107 57.6947 188.272 60.539C186.437 63.3833 183.96 65.5395 180.84 67.0075C177.751 68.445 174.295 69.1637 170.472 69.1637H161.756V92.2393H150.333V31.6831ZM161.756 59.9427H167.307C169.448 59.9427 171.374 59.6368 173.087 59.0251C174.83 58.3829 176.222 57.3583 177.262 55.9515C178.302 54.5446 178.822 52.6637 178.822 50.3087C178.822 47.9232 178.302 46.0576 177.262 44.7119C176.222 43.3356 174.83 42.3569 173.087 41.7758C171.374 41.1641 169.448 40.8583 167.307 40.8583H161.756V59.9427ZM211.583 31.6831H223.052V92.2393H211.583V31.6831ZM277.078 82.0089C280.259 82.0089 283.088 81.5655 285.565 80.6785C288.043 79.761 289.862 78.8588 291.025 77.9719L295.933 87.7434C294.526 88.9668 292.095 90.2054 288.639 91.4594C285.214 92.7133 281.115 93.3403 276.344 93.3403C271.879 93.3403 267.704 92.5604 263.82 91.0006C259.936 89.4102 256.526 87.2082 253.59 84.3945C250.654 81.5502 248.36 78.2318 246.709 74.4394C245.057 70.6164 244.231 66.4876 244.231 62.0529C244.231 57.6183 245.042 53.4895 246.663 49.6665C248.314 45.8129 250.608 42.464 253.544 39.6197C256.48 36.7754 259.89 34.558 263.774 32.9677C267.689 31.3773 271.879 30.5821 276.344 30.5821C281.115 30.5821 285.214 31.2091 288.639 32.463C292.095 33.717 294.526 34.9556 295.933 36.179L291.025 45.9505C289.862 45.0636 288.043 44.1767 285.565 43.2897C283.088 42.3722 280.259 41.9135 277.078 41.9135C273.836 41.9135 270.946 42.4334 268.408 43.4732C265.9 44.5131 263.759 45.9658 261.985 47.8314C260.242 49.6665 258.912 51.7921 257.994 54.2082C257.077 56.6243 256.618 59.1934 256.618 61.9153C256.618 64.6679 257.077 67.2675 257.994 69.7142C258.912 72.1303 260.242 74.2712 261.985 76.1368C263.759 77.9719 265.9 79.4093 268.408 80.4492C270.946 81.489 273.836 82.0089 277.078 82.0089ZM337.235 61.2272L360.907 92.2393H347.19L327.051 65.1725V92.2393H315.582V31.6831H327.051V57.603L345.722 31.6831H358.705L337.235 61.2272ZM378.228 31.6831H415.8V41.8217H389.605V56.9607H415.433V66.7782H389.605V82.1007H415.8V92.2393H378.228V31.6831ZM499.18 31.6831V92.2393H487.757V53.4742L488.307 44.666L486.243 54.6669L474.361 87.9269H463.076L451.24 54.6669L449.221 44.666L449.726 53.4742V92.2393H438.257V31.6831H454.13L467.984 74.8523L468.718 78.9811L469.452 74.8523L483.353 31.6831H499.18Z" fill="white"/>
<defs>
<linearGradient id="paint0_linear_150_10678" x1="51.3019" y1="1" x2="51.3019" y2="137.001" gradientUnits="userSpaceOnUse">
<stop stop-color="#FFBA57"/>
<stop offset="1" stop-color="#E08502"/>
</linearGradient>
<linearGradient id="paint1_linear_150_10678" x1="51.3019" y1="1" x2="51.3019" y2="137.001" gradientUnits="userSpaceOnUse">
<stop stop-color="#FFBA57"/>
<stop offset="1" stop-color="#E08502"/>
</linearGradient>
</defs>
</svg>
