<svg width="518" height="467" viewBox="0 0 518 467" fill="none" xmlns="http://www.w3.org/2000/svg">
<g clip-path="url(#clip0_152_12294)">
<path d="M95.051 267.828C95.051 264.849 92.5937 262.432 89.5653 262.432C86.5368 262.432 84.0872 264.849 84.0872 267.828C84.0872 270.807 86.5373 273.217 89.5653 273.217C92.5932 273.217 95.051 270.807 95.051 267.828Z" fill="#BABABA" fill-opacity="0.66"/>
<path d="M95.0513 321.762C95.0513 318.783 92.594 316.373 89.5655 316.373C86.5371 316.373 84.0875 318.783 84.0875 321.762C84.0875 324.74 86.5376 327.158 89.5655 327.158C92.5935 327.158 95.0513 324.741 95.0513 321.762Z" fill="#BABABA" fill-opacity="0.66"/>
<path d="M106.009 235.467C106.009 232.48 103.559 230.07 100.532 230.07C97.4956 230.07 95.0455 232.48 95.0455 235.467C95.0455 238.446 97.4956 240.856 100.532 240.856C103.559 240.856 106.009 238.446 106.009 235.467Z" fill="#BABABA" fill-opacity="0.66"/>
<path d="M95.0455 289.4C95.0455 292.379 97.4956 294.797 100.532 294.797C103.56 294.797 106.009 292.379 106.009 289.4C106.009 286.421 103.559 284.012 100.532 284.012C97.4956 284.012 95.0455 286.422 95.0455 289.4Z" fill="#BABABA" fill-opacity="0.66"/>
<path d="M100.532 327.158C103.56 327.158 106.009 324.741 106.009 321.761C106.009 318.782 103.559 316.373 100.532 316.373C97.4956 316.373 95.0455 318.783 95.0455 321.761C95.0455 324.74 97.4956 327.158 100.532 327.158Z" fill="#BABABA" fill-opacity="0.66"/>
<path d="M106.009 354.126C106.009 351.148 103.559 348.738 100.532 348.738C97.4954 348.738 95.0452 351.148 95.0452 354.126C95.0452 357.105 97.4954 359.523 100.532 359.523C103.559 359.523 106.009 357.105 106.009 354.126Z" fill="#BABABA" fill-opacity="0.66"/>
<path d="M111.494 262.432C108.466 262.432 106.008 264.85 106.008 267.829C106.008 270.808 108.466 273.217 111.494 273.217C114.523 273.217 116.981 270.807 116.981 267.829C116.981 264.85 114.523 262.432 111.494 262.432Z" fill="#BABABA" fill-opacity="0.66"/>
<path d="M106.008 278.616C106.008 281.595 108.466 284.013 111.494 284.013C114.523 284.013 116.981 281.595 116.981 278.616C116.981 275.637 114.523 273.22 111.494 273.22C108.466 273.22 106.008 275.638 106.008 278.616Z" fill="#BABABA" fill-opacity="0.66"/>
<path d="M133.439 208.49C136.467 208.49 138.917 206.073 138.917 203.102C138.917 200.115 136.467 197.705 133.439 197.705C130.403 197.705 127.953 200.115 127.953 203.102C127.953 206.073 130.403 208.49 133.439 208.49Z" fill="#BABABA" fill-opacity="0.66"/>
<path d="M149.888 267.828C149.888 264.849 147.431 262.432 144.402 262.432C141.374 262.432 138.916 264.849 138.916 267.828C138.916 270.807 141.374 273.217 144.402 273.217C147.431 273.217 149.888 270.807 149.888 267.828Z" fill="#BABABA" fill-opacity="0.66"/>
<path d="M160.853 289.4C160.853 286.421 158.395 284.012 155.367 284.012C152.338 284.012 149.889 286.422 149.889 289.4C149.889 292.379 152.339 294.797 155.367 294.797C158.395 294.797 160.853 292.379 160.853 289.4Z" fill="#BABABA" fill-opacity="0.66"/>
<path d="M160.847 364.921C160.847 367.9 163.297 370.31 166.333 370.31C169.361 370.31 171.811 367.9 171.811 364.921C171.811 361.943 169.361 359.524 166.333 359.524C163.297 359.524 160.847 361.943 160.847 364.921Z" fill="#BABABA" fill-opacity="0.66"/>
<path d="M188.264 132.977C191.293 132.977 193.75 130.559 193.75 127.58C193.75 124.601 191.293 122.192 188.264 122.192C185.236 122.192 182.786 124.602 182.786 127.58C182.786 130.559 185.236 132.977 188.264 132.977Z" fill="#BABABA" fill-opacity="0.66"/>
<path d="M193.751 149.159C193.751 146.18 191.293 143.762 188.264 143.762C185.236 143.762 182.786 146.18 182.786 149.159C182.786 152.138 185.237 154.556 188.264 154.556C191.292 154.556 193.751 152.138 193.751 149.159Z" fill="#BABABA" fill-opacity="0.66"/>
<path d="M193.751 170.739C193.751 167.753 191.293 165.342 188.265 165.342C185.236 165.342 182.787 167.753 182.787 170.739C182.787 173.71 185.237 176.127 188.265 176.127C191.293 176.127 193.751 173.71 193.751 170.739Z" fill="#BABABA" fill-opacity="0.66"/>
<path d="M188.264 273.22C185.236 273.22 182.786 275.637 182.786 278.616C182.786 281.595 185.237 284.013 188.264 284.013C191.292 284.013 193.751 281.595 193.751 278.616C193.751 275.637 191.293 273.22 188.264 273.22Z" fill="#BABABA" fill-opacity="0.66"/>
<path d="M204.716 138.374C204.716 135.388 202.265 132.978 199.238 132.978C196.201 132.978 193.752 135.388 193.752 138.374C193.752 141.345 196.201 143.763 199.238 143.763C202.266 143.763 204.716 141.345 204.716 138.374Z" fill="#BABABA" fill-opacity="0.66"/>
<path d="M199.238 154.556C202.266 154.556 204.716 152.138 204.716 149.159C204.716 146.18 202.265 143.762 199.238 143.762C196.201 143.762 193.752 146.18 193.752 149.159C193.752 152.138 196.201 154.556 199.238 154.556Z" fill="#BABABA" fill-opacity="0.66"/>
<path d="M199.237 176.125C196.201 176.125 193.752 178.543 193.752 181.522C193.752 184.501 196.201 186.919 199.237 186.919C202.266 186.919 204.715 184.501 204.715 181.522C204.715 178.543 202.266 176.125 199.237 176.125Z" fill="#BABABA" fill-opacity="0.66"/>
<path d="M204.716 267.829C204.716 264.85 202.265 262.432 199.238 262.432C196.201 262.432 193.752 264.85 193.752 267.829C193.752 270.808 196.201 273.217 199.238 273.217C202.266 273.217 204.716 270.808 204.716 267.829Z" fill="#BABABA" fill-opacity="0.66"/>
<path d="M204.716 310.978C204.716 307.999 202.265 305.581 199.238 305.581C196.201 305.581 193.752 307.999 193.752 310.978C193.752 313.957 196.201 316.375 199.238 316.375C202.266 316.375 204.716 313.957 204.716 310.978Z" fill="#BABABA" fill-opacity="0.66"/>
<path d="M193.752 332.557C193.752 335.536 196.201 337.945 199.238 337.945C202.266 337.945 204.716 335.535 204.716 332.557C204.716 329.578 202.265 327.16 199.238 327.16C196.201 327.16 193.752 329.578 193.752 332.557Z" fill="#BABABA" fill-opacity="0.66"/>
<path d="M210.197 176.125C207.169 176.125 204.712 178.542 204.712 181.522C204.712 184.501 207.169 186.918 210.197 186.918C213.226 186.918 215.684 184.501 215.684 181.522C215.684 178.542 213.226 176.125 210.197 176.125Z" fill="#BABABA" fill-opacity="0.66"/>
<path d="M193.989 192.309C193.989 195.288 196.446 197.706 199.474 197.706C202.503 197.706 204.961 195.288 204.961 192.309C204.961 189.331 202.503 186.921 199.474 186.921C196.446 186.921 193.989 189.331 193.989 192.309Z" fill="#BABABA" fill-opacity="0.66"/>
<path d="M275.399 326.442C272.371 326.442 269.921 328.86 269.921 331.839C269.921 334.818 272.371 337.227 275.399 337.227C278.427 337.227 280.885 334.817 280.885 331.839C280.885 328.86 278.427 326.442 275.399 326.442Z" fill="#BABABA" fill-opacity="0.66"/>
<path d="M217.555 354.126C217.555 357.105 220.005 359.523 223.033 359.523C226.06 359.523 228.518 357.105 228.518 354.126C228.518 351.148 226.061 348.738 223.033 348.738C220.004 348.738 217.555 351.148 217.555 354.126Z" fill="#BABABA" fill-opacity="0.66"/>
<path d="M226.649 181.522C226.649 184.501 229.099 186.919 232.135 186.919C235.163 186.919 237.613 184.501 237.613 181.522C237.613 178.543 235.163 176.125 232.135 176.125C229.099 176.125 226.649 178.543 226.649 181.522Z" fill="#BABABA" fill-opacity="0.66"/>
<path d="M226.649 310.977C226.649 313.956 229.099 316.374 232.135 316.374C235.163 316.374 237.613 313.956 237.613 310.977C237.613 307.999 235.163 305.581 232.135 305.581C229.099 305.581 226.649 307.999 226.649 310.977Z" fill="#BABABA" fill-opacity="0.66"/>
<path d="M234.005 359.523C237.034 359.523 239.483 357.106 239.483 354.127C239.483 351.148 237.033 348.738 234.005 348.738C230.969 348.738 228.519 351.149 228.519 354.127C228.519 357.106 230.969 359.523 234.005 359.523Z" fill="#BABABA" fill-opacity="0.66"/>
<path d="M237.479 289.417C237.479 292.396 239.936 294.179 242.964 294.179C245.993 294.179 248.451 292.396 248.451 289.417C248.451 286.438 245.993 284.029 242.964 284.029C239.937 284.029 237.479 286.438 237.479 289.417Z" fill="#BABABA" fill-opacity="0.66"/>
<path d="M248.588 181.522C248.588 178.543 246.131 176.125 243.102 176.125C240.074 176.125 237.624 178.543 237.624 181.522C237.624 184.501 240.074 186.919 243.102 186.919C246.13 186.919 248.588 184.501 248.588 181.522Z" fill="#BABABA" fill-opacity="0.66"/>
<path d="M254.067 316.375C257.095 316.375 259.553 313.957 259.553 310.978C259.553 307.999 257.095 305.581 254.067 305.581C251.039 305.581 248.589 307.999 248.589 310.978C248.589 313.957 251.039 316.375 254.067 316.375Z" fill="#BABABA" fill-opacity="0.66"/>
<path d="M248.589 354.126C248.589 357.105 251.039 359.523 254.067 359.523C257.095 359.523 259.553 357.105 259.553 354.126C259.553 351.148 257.095 348.738 254.067 348.738C251.039 348.738 248.589 351.148 248.589 354.126Z" fill="#BABABA" fill-opacity="0.66"/>
<path d="M255.927 380.961C258.955 380.961 261.413 378.543 261.413 375.564C261.413 372.585 258.955 370.168 255.927 370.168C252.898 370.168 250.449 372.585 250.449 375.564C250.449 378.543 252.899 380.961 255.927 380.961Z" fill="#BABABA" fill-opacity="0.66"/>
<path d="M265.036 305.582C268.065 305.582 270.514 303.171 270.514 300.193C270.514 297.214 268.064 294.796 265.036 294.796C262 294.796 259.55 297.214 259.55 300.193C259.55 303.172 262 305.582 265.036 305.582Z" fill="#BABABA" fill-opacity="0.66"/>
<path d="M292.45 246.251C292.45 243.272 289.993 240.855 286.964 240.855C283.936 240.855 281.486 243.272 281.486 246.251C281.486 249.23 283.936 251.648 286.964 251.648C289.992 251.648 292.45 249.23 292.45 246.251Z" fill="#BABABA" fill-opacity="0.66"/>
<path d="M292.447 224.673C292.447 227.652 294.897 230.07 297.933 230.07C300.961 230.07 302.21 228.18 302.21 225.201C300.382 225.408 299.277 222.231 297.933 219.285C294.897 219.285 292.447 221.695 292.447 224.673Z" fill="#BABABA" fill-opacity="0.66"/>
<path d="M292.445 235.467C292.445 238.446 294.894 240.855 297.931 240.855C300.959 240.855 303.409 238.445 303.409 235.467C303.409 232.48 300.959 230.07 297.931 230.07C294.894 230.07 292.445 232.48 292.445 235.467Z" fill="#BABABA" fill-opacity="0.66"/>
<path d="M297.931 273.22C294.894 273.22 292.445 275.637 292.445 278.616C292.445 281.595 294.894 284.013 297.931 284.013C300.959 284.013 303.409 281.595 303.409 278.616C303.409 275.637 300.959 273.22 297.931 273.22Z" fill="#BABABA" fill-opacity="0.66"/>
<path d="M303.408 300.193C303.408 297.214 300.958 294.796 297.93 294.796C294.894 294.796 292.445 297.214 292.445 300.193C292.445 303.172 294.894 305.582 297.93 305.582C300.959 305.582 303.408 303.172 303.408 300.193Z" fill="#BABABA" fill-opacity="0.66"/>
<path d="M319.858 284.012C316.83 284.012 314.38 286.422 314.38 289.4C314.38 292.379 316.831 294.797 319.858 294.797C322.886 294.797 325.345 292.379 325.345 289.4C325.345 286.421 322.887 284.012 319.858 284.012Z" fill="#BABABA" fill-opacity="0.66"/>
<path d="M325.346 289.4C325.346 292.379 327.796 294.797 330.831 294.797C333.86 294.797 336.309 292.379 336.309 289.4C336.309 286.421 333.859 284.012 330.831 284.012C327.796 284.012 325.346 286.422 325.346 289.4Z" fill="#BABABA" fill-opacity="0.66"/>
<path d="M347.291 267.829C347.291 264.85 344.834 262.432 341.806 262.432C338.777 262.432 336.319 264.85 336.319 267.829C336.319 270.808 338.777 273.217 341.806 273.217C344.834 273.217 347.291 270.808 347.291 267.829Z" fill="#BABABA" fill-opacity="0.66"/>
<path d="M341.806 284.013C344.834 284.013 347.291 281.595 347.291 278.616C347.291 275.637 344.834 273.22 341.806 273.22C338.777 273.22 336.319 275.637 336.319 278.616C336.319 281.595 338.778 284.013 341.806 284.013Z" fill="#BABABA" fill-opacity="0.66"/>
<path d="M88.7014 122.004L83.6249 126.355L83.6249 161.166C85.3772 160.869 88.7014 164.066 90.8771 161.891C92.0337 162.843 94.5474 162.253 94.742 160.701C114.534 158.489 124.079 163.91 128.367 179.425C129.051 181.902 129.602 184.635 130.039 187.636L150.345 187.636L150.345 170.375C148.195 164.029 147.936 160.59 150.345 154.82L150.345 122.004L88.7014 122.004ZM139.219 132.94L139.219 176.692L127.863 176.692C118.697 161.22 110.904 158.248 94.742 161.166L94.742 160.701L94.742 132.94L139.219 132.94Z" fill="#BABABA" fill-opacity="0.66"/>
<path d="M133.421 170.739L133.421 138.375L100.521 138.375L100.521 159.383C111.712 160.447 117.324 162.401 124.842 170.827L133.421 170.739Z" fill="#BABABA" fill-opacity="0.66"/>
<path d="M342.271 341.765C315.093 351.778 298.643 340.335 298.643 316.375L281.478 316.375L281.478 381.102L339.862 381.102C343.887 380.152 345.654 379.233 347.278 376.456L347.278 343.911L342.271 341.765ZM292.442 370.309L292.442 327.16L300.073 327.16C301.141 333.455 303.118 337.08 312.232 343.911C321.41 345.99 326.66 346.13 336.306 343.911L336.306 370.309L292.442 370.309Z" fill="#BABABA" fill-opacity="0.66"/>
<path d="M297.931 364.923L330.831 364.924L330.831 348.742L330.831 344.626L321.534 346.057C311.958 343.762 307.297 341.246 301.508 332.56L297.931 332.56L297.931 364.923Z" fill="#BABABA" fill-opacity="0.66"/>
<path d="M171.805 348.739L171.805 343.343L171.805 321.764L171.805 310.979L171.805 294.797L167.757 294.797L159.174 300.194C147.016 303.551 141.044 303.216 131.996 298.137L127.94 294.797L116.977 294.797L116.977 300.194L116.977 310.979L116.977 318.163C116.189 321.102 119.368 317.116 127.94 319.593C138.821 325.708 143.033 339.544 136.958 348.739L155.355 348.739L171.805 348.739ZM127.94 319.593L127.94 305.582L160.841 305.582L160.841 337.946L140.686 337.946C138.377 328.812 135.645 324.799 127.94 319.593Z" fill="#BABABA" fill-opacity="0.66"/>
<path d="M138.906 321.763C138.906 324.742 141.364 327.16 144.392 327.16C147.421 327.16 149.879 324.742 149.879 321.763C149.879 318.784 147.421 316.375 144.392 316.375C141.364 316.375 138.906 318.785 138.906 321.763Z" fill="#BABABA" fill-opacity="0.66"/>
<path d="M131.283 338.896C131.283 332.969 126.474 328.176 120.547 328.176C114.62 328.176 109.826 332.97 109.826 338.896C109.826 344.822 114.621 349.633 120.547 349.633C126.473 349.633 131.283 344.823 131.283 338.896Z" fill="#BABABA" fill-opacity="0.66"/>
<path d="M119.845 200.869L119.845 170.829L89.8055 170.829L89.8055 200.869L119.845 200.869ZM94.8109 195.859L94.8109 175.835L114.836 175.835L114.836 195.859L94.8109 195.859Z" fill="#BABABA" fill-opacity="0.66"/>
<path d="M340.127 336.758L340.127 306.719L310.088 306.719L310.088 336.758L340.127 336.758ZM315.093 331.749L315.093 311.724L335.118 311.724L335.118 331.749L315.093 331.749Z" fill="#BABABA" fill-opacity="0.66"/>
<path d="M112.687 193.716L112.687 177.981L96.9519 177.981L96.9519 193.716L112.687 193.716Z" fill="#BABABA" fill-opacity="0.66"/>
<path d="M332.976 329.606L332.976 313.872L317.241 313.872L317.241 329.606L332.976 329.606Z" fill="#BABABA" fill-opacity="0.66"/>
</g>
<path d="M149.872 420.952C149.872 423.931 152.33 426.341 155.359 426.341C158.387 426.341 160.845 423.93 160.845 420.952C160.845 417.973 158.387 415.555 155.359 415.555C152.33 415.555 149.872 417.973 149.872 420.952Z" fill="#BABABA" fill-opacity="0.66"/>
<path d="M149.872 420.953C149.872 417.974 147.422 415.556 144.394 415.556C141.366 415.556 138.907 417.974 138.907 420.953C138.907 423.931 141.365 426.341 144.394 426.341C147.422 426.341 149.872 423.931 149.872 420.953Z" fill="#BABABA" fill-opacity="0.66"/>
<path d="M148.929 74.6664C148.929 71.6873 146.471 69.2696 143.442 69.2696C140.414 69.2696 137.964 71.6873 137.964 74.6664C137.964 77.6455 140.415 80.0632 143.442 80.0632C146.47 80.0632 148.929 77.6455 148.929 74.6664Z" fill="#BABABA" fill-opacity="0.66"/>
<path d="M137.965 107.029C137.965 110.008 140.415 112.426 143.443 112.426C146.471 112.426 148.929 110.008 148.929 107.029C148.929 104.05 146.471 101.633 143.443 101.633C140.414 101.633 137.965 104.051 137.965 107.029Z" fill="#BABABA" fill-opacity="0.66"/>
<path d="M293.891 412.247C293.891 409.268 291.433 406.851 288.405 406.851C285.377 406.851 282.919 409.268 282.919 412.247C282.919 415.226 285.377 417.644 288.405 417.644C291.433 417.644 293.891 415.226 293.891 412.247Z" fill="#BABABA" fill-opacity="0.66"/>
<path d="M294.149 423.038C294.149 420.059 291.691 417.642 288.663 417.642C285.634 417.642 283.177 420.059 283.177 423.038C283.177 426.018 285.634 428.435 288.663 428.435C291.691 428.435 294.149 426.018 294.149 423.038Z" fill="#BABABA" fill-opacity="0.66"/>
<path d="M281.476 400.146C281.476 397.167 279.018 394.757 275.991 394.757C272.962 394.757 270.504 397.167 270.504 400.146C270.504 403.124 272.962 405.542 275.991 405.542C279.018 405.542 281.476 403.125 281.476 400.146Z" fill="#BABABA" fill-opacity="0.66"/>
<path d="M275.991 416.328C279.018 416.328 281.476 413.918 281.476 410.939C281.476 407.961 279.018 405.542 275.991 405.542C272.962 405.542 270.504 407.96 270.504 410.939C270.504 413.918 272.963 416.328 275.991 416.328Z" fill="#BABABA" fill-opacity="0.66"/>
<path d="M147.739 66.4071C141.024 66.4071 135.58 60.9635 135.58 54.2484C135.58 47.5333 141.024 42.0897 147.739 42.0897C154.454 42.0897 159.898 47.5333 159.898 54.2484C159.898 60.9635 154.454 66.4071 147.739 66.4071ZM147.739 48.9903C144.835 48.9903 142.481 51.3444 142.481 54.2484C142.481 57.1523 144.835 59.5065 147.739 59.5065C150.643 59.5065 152.997 57.1523 152.997 54.2484C152.997 51.3444 150.643 48.9903 147.739 48.9903Z" fill="#BABABA" fill-opacity="0.66"/>
<path d="M282.435 458.548C275.735 458.548 270.304 453.117 270.304 446.417C270.304 439.717 275.735 434.286 282.435 434.286C289.135 434.286 294.566 439.717 294.566 446.417C294.566 453.117 289.135 458.548 282.435 458.548ZM282.435 441.171C279.538 441.171 277.189 443.52 277.189 446.417C277.189 449.314 279.538 451.663 282.435 451.663C285.332 451.663 287.681 449.314 287.681 446.417C287.681 443.52 285.332 441.171 282.435 441.171Z" fill="#BABABA" fill-opacity="0.66"/>
<path d="M21.1659 332.819C13.9406 332.819 8.08328 326.961 8.08328 319.736C8.08328 312.511 13.9406 306.653 21.1659 306.653C28.3912 306.653 34.2485 312.511 34.2485 319.736C34.2485 326.961 28.3912 332.819 21.1659 332.819ZM21.1659 314.078C18.0413 314.078 15.5083 316.611 15.5083 319.736C15.5083 322.861 18.0413 325.394 21.1659 325.394C24.2905 325.394 26.8235 322.861 26.8235 319.736C26.8235 316.611 24.2905 314.078 21.1659 314.078Z" fill="#BABABA" fill-opacity="0.66"/>
<path d="M347.168 270.486V293.454C347.168 297.465 341.767 299.56 338.295 297.554C333.926 295.03 328.929 293.809 322.962 294.136C310.124 294.84 298.273 303.11 298.645 320.6C299.947 335.671 308.635 344.661 322.962 345.632C330.21 345.632 335.269 344.31 339.862 341.866C343.02 340.184 347.168 342.19 347.168 345.769V371.747C347.317 378.851 346.252 380.678 337.12 380.678H297.842C295.472 380.678 293.551 382.586 293.553 384.956C293.562 395.282 293.589 418.939 293.594 426.36C293.595 427.555 294.104 428.672 294.935 429.531C300.087 434.859 302.762 441.285 301.844 449.571C300.796 459.033 292.146 465.826 282.434 465.826C275.884 465.826 264.481 461.944 263.025 449.571C261.984 440.722 264.163 435.48 269.554 429.48C270.29 428.66 270.721 427.625 270.722 426.523C270.73 419.362 270.771 395.824 270.784 385.704C270.787 383.334 268.867 381.415 266.497 381.415H245.857H224.739C218.271 381.415 217.11 379.22 217.11 373.049V346.949C217.11 342.979 222.668 340.575 226.255 342.276C230.259 344.174 235.093 345.432 240.712 345.632C260.738 346.347 266.975 327.976 266.975 320.6C266.975 303.482 255.411 294.1 240.712 293.421C235.422 293.177 230.077 295.279 225.437 298.28C222.165 300.396 217.11 298.271 217.11 294.374V268.812C217.11 261.183 217.11 261.183 224.738 261.183H266.448C269.57 261.183 271.647 257.956 270.354 255.115L265.114 243.594C262.168 236.627 261.493 230.715 264.37 224.389C266.788 219.07 271.254 215.644 275.719 213.97C280.185 212.295 286.139 212.295 291.163 214.569C296.395 217.472 298.738 219.621 301.396 224.802C303.952 229.785 304.373 236.856 301.21 243.182L296.22 255.252C295.052 258.077 297.128 261.183 300.185 261.183H337.864C346.349 261.183 347.602 267.385 347.168 270.486Z" stroke="#6BB8FF" stroke-width="1.61236"/>
<path d="M210.667 371.515L210.667 343.489C210.667 336.919 218.758 330.489 225.687 335.621C236.308 343.489 251.003 342.048 256.441 335.621C264.309 326.324 264.309 313.158 256.441 304.867C251.435 298.43 235.7 294.271 225.687 304.867C219.249 311.679 210.667 306.165 210.667 297.715L210.667 264.232C210.667 259.093 207.807 255.649 202.085 255.649L175.139 255.649C171.846 255.649 169.774 259.221 171.113 262.229C176.87 275.16 175.75 284.931 167.754 294.271C158.52 305.057 135.569 305.132 127.702 294.271C120.938 284.933 119.989 274.635 124.857 262.014C126.007 259.032 123.928 255.649 120.732 255.649L95.5169 255.649C86.219 255.649 83.3582 262.669 83.3582 264.947L83.3582 304.301C83.3582 306.671 81.4369 308.576 79.0669 308.576L41.1956 308.576C39.825 308.576 38.5528 307.9 37.6505 306.868C27.3751 295.12 9.86988 298.19 3.71453 308.576C1.32873 312.601 -0.961586 321.037 3.71453 330.178C8.93053 340.375 24.7005 344.612 37.6903 330.8C38.5535 329.882 39.7409 329.317 41.001 329.317L100.359 329.317C101.801 329.317 103.128 328.572 104.032 327.449C113.025 316.273 129.528 316.242 137 328.469C142.007 337.767 139.861 343.744 136.285 349.21C128.759 360.714 114.035 360.026 104.006 349.419C103.13 348.493 101.932 347.913 100.658 347.913L87.6495 347.913C85.2795 347.913 83.3582 349.834 83.3582 352.204L83.3582 375.091C83.3582 375.091 83.3582 382.243 95.5169 382.243L129.132 382.243C136.285 382.243 139.406 388.268 134.139 397.978C128.417 407.143 126.272 415.011 134.139 424.441C141.291 431.461 154.165 430.098 161.317 423.593C167.754 417.739 168.469 407.143 161.317 397.978C157.026 393.554 154.88 382.243 164.893 382.243L203.515 382.243C207.807 382.243 210.667 377.819 210.667 371.515Z" stroke="#6BB8FF" stroke-width="1.61236"/>
<path d="M210.667 234.193L210.667 203.438C210.667 196.869 212.813 190.299 222.111 196.869C236.415 208.312 247.143 206.882 255.011 197.584C257.965 194.59 261.448 183.995 255.011 176.26C243.796 164.185 230.693 168.26 222.111 176.26C214.243 182.564 210.667 172.551 210.667 166.962L210.667 133.347C211.109 124.157 208.613 121.859 199.224 121.903L180.628 121.903C178.258 121.903 176.337 123.825 176.337 126.195L176.337 142.566C176.337 143.961 177.039 145.253 178.103 146.155C190.753 156.875 183.805 173.676 176.337 176.975C168.543 180.419 162.381 179.059 157.741 176.975C146.871 172.093 144.39 155.068 157.045 146.132C158.311 145.238 159.171 143.831 159.171 142.281L159.171 74.0419C159.171 72.6585 159.861 71.3799 160.896 70.4622C171.163 61.359 169.362 44.8906 159.171 38.2227C151.523 33.2176 142.006 34.5139 135.569 38.2227C124.19 46.1308 124.713 62.9253 133.621 70.4318C134.763 71.3942 135.569 72.7486 135.569 74.2422L135.569 117.612C135.569 119.982 133.648 121.903 131.278 121.903L92.656 121.903C84.9451 121.903 83.2473 125.272 83.3582 131.201L83.3582 158.3C83.3582 161.851 87.5293 163.964 90.7683 162.509C100.145 158.296 109.942 159.043 118.404 164.684C135.569 178.273 131.278 199.73 118.404 207.597C108.008 213.95 99.4776 213.774 90.1765 209.398C87.1127 207.956 83.3582 210.014 83.3582 213.4L83.3582 239.438C83.3582 239.755 83.393 240.074 83.4662 240.382C85.0492 247.056 87.2865 248.726 92.656 249.212L131.993 249.212C140.576 249.212 137 257.662 131.993 266.378C127.702 275.543 129.133 281.823 131.993 287.119C137.715 297.715 156.591 300.384 164.893 287.119C169.9 279.119 166.909 271.501 163.463 266.96C154.881 255.649 156.311 249.212 164.893 249.212L195.648 249.212C206.663 249.08 210.667 246.934 210.667 234.193Z" stroke="#6BB8FF" stroke-width="1.61236"/>
<path d="M330.624 117.361C328.001 115.847 324.671 116.716 323.181 119.296C321.692 121.876 322.605 125.195 325.227 126.709C327.849 128.223 331.187 127.358 332.676 124.778C334.166 122.198 333.246 118.876 330.624 117.361Z" fill="#BABABA" fill-opacity="0.66"/>
<path d="M269.219 125.023C267.73 127.603 268.643 130.922 271.272 132.44C273.895 133.954 277.225 133.085 278.714 130.505C280.204 127.925 279.291 124.607 276.669 123.093C274.039 121.574 270.709 122.443 269.219 125.023Z" fill="#BABABA" fill-opacity="0.66"/>
<path d="M368.947 82.9447C370.437 80.3647 369.513 77.0497 366.89 75.5355C364.268 74.0213 360.941 74.8833 359.452 77.4628C357.963 80.0423 358.876 83.3616 361.498 84.8756C364.12 86.3896 367.457 85.5246 368.947 82.9447Z" fill="#BABABA" fill-opacity="0.66"/>
<path d="M333.418 68.6639C330.795 67.1497 327.468 68.0121 325.975 70.5987C324.49 73.1712 325.403 76.49 328.025 78.004C330.647 79.518 333.985 78.653 335.47 76.0805C336.963 73.494 336.04 70.1781 333.418 68.6639Z" fill="#BABABA" fill-opacity="0.66"/>
<path d="M361.498 84.8761C358.875 83.3619 355.549 84.2243 354.055 86.8108C352.57 89.3833 353.483 92.7022 356.105 94.2162C358.728 95.7302 362.065 94.8652 363.55 92.2927C365.044 89.7062 364.121 86.3903 361.498 84.8761Z" fill="#BABABA" fill-opacity="0.66"/>
<path d="M322.628 87.3525C320.005 85.8383 316.679 86.7003 315.19 89.2799C313.7 91.8594 314.613 95.1787 317.235 96.6926C319.858 98.2066 323.195 97.3417 324.685 94.7617C326.174 92.1818 325.251 88.8668 322.628 87.3525Z" fill="#BABABA" fill-opacity="0.66"/>
<path d="M338.629 146.415C341.252 147.929 344.589 147.064 346.078 144.484C347.568 141.904 346.644 138.589 344.022 137.074C341.399 135.56 338.072 136.423 336.583 139.002C335.094 141.582 336.007 144.901 338.629 146.415Z" fill="#BABABA" fill-opacity="0.66"/>
<path d="M295.662 134.058C293.039 132.544 289.709 133.413 288.22 135.993C286.73 138.573 287.643 141.892 290.265 143.406C292.887 144.92 296.225 144.055 297.714 141.475C299.204 138.895 298.285 135.573 295.662 134.058Z" fill="#BABABA" fill-opacity="0.66"/>
<path d="M353.003 111.063C354.493 108.483 353.58 105.164 350.958 103.65C348.328 102.132 344.998 103.001 343.508 105.581C342.019 108.161 342.932 111.48 345.561 112.998C348.184 114.512 351.514 113.643 353.003 111.063Z" fill="#BABABA" fill-opacity="0.66"/>
<path d="M334.177 100.243C335.667 97.6626 334.75 94.3511 332.127 92.8372C329.498 91.3191 326.171 92.1808 324.682 94.7604C323.193 97.3399 324.106 100.659 326.735 102.177C329.358 103.691 332.688 102.822 334.177 100.243Z" fill="#BABABA" fill-opacity="0.66"/>
<path d="M328.781 109.59C330.274 107.004 329.357 103.691 326.735 102.177C324.105 100.659 320.779 101.521 319.285 104.108C317.8 106.68 318.713 109.999 321.342 111.517C323.965 113.032 327.295 112.163 328.781 109.59Z" fill="#BABABA" fill-opacity="0.66"/>
<path d="M324.146 150.302C326.769 151.816 330.111 151.158 331.596 148.585C333.09 145.999 332.166 142.682 329.543 141.168C326.921 139.654 323.594 140.516 322.101 143.103C320.615 145.676 321.524 148.788 324.146 150.302Z" fill="#BABABA" fill-opacity="0.66"/>
<path d="M360.084 165.032C361.577 162.446 360.653 159.13 358.031 157.615C355.408 156.101 352.082 156.964 350.588 159.55C349.103 162.123 350.016 165.442 352.638 166.956C355.26 168.469 358.598 167.605 360.084 165.032Z" fill="#BABABA" fill-opacity="0.66"/>
<path d="M329.014 196.918C327.524 199.498 328.437 202.817 331.059 204.331C333.681 205.845 337.019 204.98 338.509 202.401C339.998 199.821 339.078 196.498 336.456 194.984C333.833 193.47 330.503 194.339 329.014 196.918Z" fill="#BABABA" fill-opacity="0.66"/>
<path d="M371.645 177.929C374.267 179.443 377.604 178.578 379.089 176.005C380.583 173.419 379.66 170.103 377.037 168.589C374.414 167.075 371.081 167.933 369.587 170.519C368.102 173.092 369.022 176.415 371.645 177.929Z" fill="#BABABA" fill-opacity="0.66"/>
<path d="M360.855 196.617C363.477 198.132 366.814 197.266 368.304 194.686C369.793 192.107 368.87 188.791 366.247 187.277C363.625 185.763 360.291 186.621 358.802 189.2C357.312 191.78 358.232 195.103 360.855 196.617Z" fill="#BABABA" fill-opacity="0.66"/>
<path d="M391.52 131.621L402.434 112.717L383.531 101.804L376.255 114.406L379.84 119.837L382.068 126.164L391.52 131.621Z" fill="#BABABA" fill-opacity="0.66"/>
<path d="M402.994 136.022L415.153 114.962C417.341 111.746 416.815 110.112 414.75 105.645L380.422 84.9999L367.384 107.582C376.953 112.324 378.584 115.96 382.915 127.462L398.466 136.711L402.994 136.022ZM373.783 111.277L382.973 95.3598L408.573 110.14L394.54 134.445L382.981 127.771C381.346 120.088 379.188 116.595 373.783 111.277Z" fill="#BABABA" fill-opacity="0.66"/>
<path d="M381.504 159.942C384.126 161.456 387.457 160.587 388.946 158.007C390.436 155.427 389.519 152.116 386.897 150.602C384.267 149.084 380.941 149.946 379.451 152.525C377.962 155.105 378.875 158.424 381.504 159.942Z" fill="#BABABA" fill-opacity="0.66"/>
<path d="M383.928 53.1586C386.101 49.3946 384.804 44.5873 381.04 42.4142C377.276 40.241 372.474 41.5278 370.301 45.2912C368.128 49.0545 369.409 53.8681 373.173 56.0409C376.936 58.2137 381.755 56.9226 383.928 53.1586Z" fill="#BABABA" fill-opacity="0.66"/>
<path d="M436.345 206.483C430.53 203.125 428.537 195.689 431.895 189.874C435.253 184.058 442.689 182.066 448.504 185.423C454.32 188.781 456.312 196.217 452.955 202.032C449.597 207.848 442.161 209.84 436.345 206.483ZM445.054 191.399C442.539 189.947 439.323 190.809 437.871 193.324C436.419 195.839 437.281 199.055 439.796 200.507C442.311 201.959 445.526 201.097 446.978 198.582C448.43 196.067 447.569 192.851 445.054 191.399Z" fill="#BABABA" fill-opacity="0.66"/>
<path d="M319.978 50.4215L347.258 66.1717C354.887 70.5762 359.867 69.3169 359.503 60.0215C359.493 59.7747 359.456 59.5189 359.403 59.2778C355.541 41.8822 363.042 31.9126 375.248 29.6843C379.422 28.5873 390.612 30.912 394.163 40.6049C399.109 56.7749 388.758 66.3554 377.249 69.9006C369.617 73.1365 368.946 78.6933 379.614 84.8521L409.432 102.068C417.325 106.625 418.206 109.447 413.34 117.785L407.351 128.159L403.665 134.543C402.48 136.595 399.856 137.298 397.803 136.113L383.562 127.891C382.352 127.192 381.582 125.935 381.339 124.559C378.363 107.756 359.856 105.328 353.082 110.294C346.021 115.47 344.06 121.654 343.523 126.852C342.263 139.048 356.128 149.988 370.58 143.241C371.987 142.584 373.64 142.542 374.984 143.318L430.999 175.659C432.2 176.352 433.655 176.395 434.967 175.947C448.493 171.332 463.779 180.587 463.831 194.614C463.405 202.333 460.56 211.37 451.058 215.864C438.168 221.958 423.102 212.08 421.017 200.175C420.759 198.701 419.988 197.323 418.692 196.575L384.691 176.944C382.638 175.759 380.014 176.463 378.829 178.515L359.069 212.74C358.965 212.92 358.846 213.096 358.716 213.258C354.062 219.054 351.015 219.62 345.885 216.528L321.649 202.535C318.577 200.762 318.828 196.103 321.717 194.045C330.411 187.851 334.861 178.682 334.202 168.175C330.973 145.93 309.734 138.763 296.137 146.198C285.077 152.245 280.867 159.999 280.009 170.64C279.737 174.011 276.08 176.226 273.15 174.535L249.453 160.853C241.206 156.091 241.206 156.091 245.986 147.812L260.872 122.028C267.667 110.26 267.328 109.388 272.867 118.218C280.179 129.872 289.618 131.67 295.785 131.449C314.338 130.785 323.471 112.105 315.454 97.3823C310.826 88.8834 301.284 83.7853 294.132 84.2465C282.243 85.0134 283.401 83.0062 289.006 73.299L298.934 56.1037C304.714 46.3633 308.676 43.8963 319.978 50.4215Z" stroke="#6BB8FF" stroke-width="1.61236"/>
<defs>
<clipPath id="clip0_152_12294">
<rect width="258.909" height="263.201" fill="white" transform="translate(347.278 122.195) rotate(90)"/>
</clipPath>
</defs>
</svg>
