<svg width="603" height="105" viewBox="0 0 603 105" fill="none" xmlns="http://www.w3.org/2000/svg">
<path d="M3.18164 21L10.5234 1.27148H12.957L20.2852 21H17.7012L15.7051 15.3535H7.76172L5.76562 21H3.18164ZM11.7129 4.22461L8.51367 13.2617H14.9668L11.7676 4.22461H11.7129ZM36.541 21.3281C31.0586 21.3281 27.5312 17.3359 27.5312 11.1289V11.1152C27.5312 4.9082 31.0449 0.943359 36.541 0.943359C40.6426 0.943359 43.8281 3.43164 44.5801 7.16406L44.6074 7.30078H42.1191L42.0234 7C41.2578 4.60742 39.3164 3.21289 36.541 3.21289C32.6035 3.21289 30.0605 6.31641 30.0605 11.1152V11.1289C30.0605 15.9277 32.6172 19.0586 36.541 19.0586C39.3027 19.0586 41.2168 17.6914 42.0781 15.0938L42.1191 14.9707H44.6074L44.5801 15.1074C43.8281 18.8809 40.6699 21.3281 36.541 21.3281ZM52.0039 21.2734C48.8867 21.2734 47.082 19.25 47.082 16.0098V6.78125H49.4609V15.5859C49.4609 17.8965 50.541 19.168 52.7285 19.168C54.9707 19.168 56.4336 17.5684 56.4336 15.1484V6.78125H58.8125V21H56.4336V18.9766H56.3789C55.6133 20.3027 54.1641 21.2734 52.0039 21.2734ZM62.0391 21V1.27148H64.418V21H62.0391ZM72.252 21.2734C69.6406 21.2734 68.3555 20.0977 68.3555 17.377V8.75H66.2773V6.78125H68.3555V2.93945H70.8164V6.78125H73.5234V8.75H70.8164V17.3633C70.8164 18.8809 71.4863 19.3047 72.7578 19.3047C73.0449 19.3047 73.3184 19.2637 73.5234 19.25V21.1777C73.2227 21.2188 72.7168 21.2734 72.252 21.2734ZM80.9336 21.2734C77.8164 21.2734 76.0117 19.25 76.0117 16.0098V6.78125H78.3906V15.5859C78.3906 17.8965 79.4707 19.168 81.6582 19.168C83.9004 19.168 85.3633 17.5684 85.3633 15.1484V6.78125H87.7422V21H85.3633V18.9766H85.3086C84.543 20.3027 83.0938 21.2734 80.9336 21.2734ZM90.8457 21V6.78125H93.2246V9.1875H93.2793C93.7578 7.54688 94.9883 6.50781 96.5879 6.50781C96.998 6.50781 97.3535 6.57617 97.5449 6.60352V8.91406C97.3535 8.8457 96.8477 8.77734 96.2734 8.77734C94.4277 8.77734 93.2246 10.0625 93.2246 12.2227V21H90.8457ZM104.654 21.2734C100.566 21.2734 98.1055 18.416 98.1055 13.9453V13.9316C98.1055 9.5293 100.621 6.50781 104.504 6.50781C108.387 6.50781 110.752 9.39258 110.752 13.6582V14.5332H100.512C100.566 17.459 102.18 19.168 104.709 19.168C106.514 19.168 107.785 18.2656 108.195 17.0488L108.236 16.9258H110.574L110.547 17.0625C110.082 19.4141 107.758 21.2734 104.654 21.2734ZM104.49 8.61328C102.426 8.61328 100.812 10.0215 100.553 12.6738H108.332C108.1 9.91211 106.568 8.61328 104.49 8.61328ZM124.793 21.2734C120.842 21.2734 118.203 18.416 118.203 13.8906V13.8633C118.203 9.33789 120.855 6.50781 124.779 6.50781C128.703 6.50781 131.369 9.32422 131.369 13.8633V13.8906C131.369 18.4297 128.717 21.2734 124.793 21.2734ZM124.807 19.168C127.309 19.168 128.936 17.2266 128.936 13.8906V13.8633C128.936 10.5273 127.295 8.61328 124.779 8.61328C122.305 8.61328 120.637 10.541 120.637 13.8633V13.8906C120.637 17.2402 122.291 19.168 124.807 19.168ZM134.541 21V8.75H132.559V6.78125H134.541V5.03125C134.541 2.29688 135.812 0.998047 138.438 0.998047C138.971 0.998047 139.531 1.03906 139.887 1.09375V3.02148C139.6 2.98047 139.23 2.9668 138.861 2.9668C137.549 2.9668 136.893 3.63672 136.893 5.04492V6.78125H139.818V8.75H136.92V21H134.541ZM148.391 21V1.27148H150.852V21H148.391ZM154.311 21V6.78125H156.689V8.80469H156.744C157.51 7.47852 158.959 6.50781 161.119 6.50781C164.236 6.50781 166.041 8.53125 166.041 11.7715V21H163.662V12.1953C163.662 9.88477 162.582 8.61328 160.395 8.61328C158.152 8.61328 156.689 10.2129 156.689 12.6328V21H154.311ZM174.969 21.2734C170.936 21.2734 168.379 18.4023 168.379 13.877V13.8633C168.379 9.37891 170.99 6.50781 174.941 6.50781C178.482 6.50781 180.574 8.85938 180.875 11.293L180.889 11.4023H178.564L178.537 11.293C178.182 9.87109 177.033 8.61328 174.941 8.61328C172.467 8.61328 170.812 10.6641 170.812 13.8906V13.9043C170.812 17.2129 172.508 19.168 174.969 19.168C176.91 19.168 178.154 18.0742 178.551 16.4883L178.578 16.3789H180.916L180.902 16.4746C180.52 19.1816 178.182 21.2734 174.969 21.2734ZM183.227 21V1.27148H185.605V21H183.227ZM193.672 21.2734C190.555 21.2734 188.75 19.25 188.75 16.0098V6.78125H191.129V15.5859C191.129 17.8965 192.209 19.168 194.396 19.168C196.639 19.168 198.102 17.5684 198.102 15.1484V6.78125H200.48V21H198.102V18.9766H198.047C197.281 20.3027 195.832 21.2734 193.672 21.2734ZM208.629 21.2734C205.279 21.2734 203.256 19.5645 202.969 17.0215L202.955 16.8984H205.334L205.361 17.0352C205.648 18.457 206.701 19.291 208.643 19.291C210.57 19.291 211.719 18.4844 211.719 17.1992V17.1855C211.719 16.1602 211.186 15.5859 209.572 15.1895L207.316 14.6426C204.637 14 203.338 12.7559 203.338 10.7051V10.6914C203.338 8.24414 205.484 6.50781 208.561 6.50781C211.678 6.50781 213.66 8.32617 213.838 10.7051L213.852 10.8828H211.582L211.568 10.7871C211.377 9.40625 210.324 8.49023 208.561 8.49023C206.838 8.49023 205.771 9.32422 205.771 10.582V10.5957C205.771 11.5664 206.414 12.2363 207.986 12.6191L210.242 13.166C213.113 13.8633 214.152 14.998 214.152 17.0215V17.0352C214.152 19.5234 211.801 21.2734 208.629 21.2734ZM217.967 4.375C217.146 4.375 216.477 3.70508 216.477 2.88477C216.477 2.05078 217.146 1.39453 217.967 1.39453C218.801 1.39453 219.457 2.05078 219.457 2.88477C219.457 3.70508 218.801 4.375 217.967 4.375ZM216.777 21V6.78125H219.156V21H216.777ZM228.289 21.2734C224.338 21.2734 221.699 18.416 221.699 13.8906V13.8633C221.699 9.33789 224.352 6.50781 228.275 6.50781C232.199 6.50781 234.865 9.32422 234.865 13.8633V13.8906C234.865 18.4297 232.213 21.2734 228.289 21.2734ZM228.303 19.168C230.805 19.168 232.432 17.2266 232.432 13.8906V13.8633C232.432 10.5273 230.791 8.61328 228.275 8.61328C225.801 8.61328 224.133 10.541 224.133 13.8633V13.8906C224.133 17.2402 225.787 19.168 228.303 19.168ZM237.271 21V6.78125H239.65V8.80469H239.705C240.471 7.47852 241.92 6.50781 244.08 6.50781C247.197 6.50781 249.002 8.53125 249.002 11.7715V21H246.623V12.1953C246.623 9.88477 245.543 8.61328 243.355 8.61328C241.113 8.61328 239.65 10.2129 239.65 12.6328V21H237.271ZM261.936 21.2734C259.105 21.2734 257.205 19.5645 257.205 16.9805V16.9531C257.205 14.5332 259.092 13.0156 262.359 12.8242L266.434 12.5918V11.4023C266.434 9.66602 265.299 8.61328 263.316 8.61328C261.484 8.61328 260.336 9.48828 260.062 10.7598L260.035 10.8828H257.738L257.752 10.7324C257.957 8.39453 259.994 6.50781 263.344 6.50781C266.707 6.50781 268.812 8.32617 268.812 11.1699V21H266.434V18.6895H266.379C265.545 20.248 263.836 21.2734 261.936 21.2734ZM259.639 16.9805C259.639 18.3477 260.76 19.209 262.469 19.209C264.711 19.209 266.434 17.6641 266.434 15.5996V14.4375L262.633 14.6699C260.732 14.7793 259.639 15.627 259.639 16.9531V16.9805ZM271.834 21V6.78125H274.213V8.80469H274.268C275.033 7.47852 276.482 6.50781 278.643 6.50781C281.76 6.50781 283.564 8.53125 283.564 11.7715V21H281.186V12.1953C281.186 9.88477 280.105 8.61328 277.918 8.61328C275.676 8.61328 274.213 10.2129 274.213 12.6328V21H271.834ZM291.945 21.2734C288.309 21.2734 285.902 18.375 285.902 13.8906V13.877C285.902 9.39258 288.336 6.50781 291.904 6.50781C293.914 6.50781 295.568 7.51953 296.457 9.16016H296.512V1.27148H298.891V21H296.512V18.5938H296.457C295.568 20.248 293.982 21.2734 291.945 21.2734ZM292.41 19.168C294.816 19.168 296.525 17.0762 296.525 13.8906V13.877C296.525 10.7051 294.803 8.61328 292.41 8.61328C289.895 8.61328 288.336 10.6367 288.336 13.877V13.8906C288.336 17.1582 289.895 19.168 292.41 19.168ZM308.215 21V1.27148H315.693C319.07 1.27148 321.354 3.24023 321.354 6.19336V6.2207C321.354 8.25781 319.822 10.2402 317.785 10.5273V10.582C320.629 10.9102 322.352 12.8242 322.352 15.4355V15.4629C322.352 18.9355 319.863 21 315.666 21H308.215ZM315.133 3.44531H310.676V9.77539H314.367C317.279 9.77539 318.865 8.61328 318.865 6.48047V6.45312C318.865 4.51172 317.512 3.44531 315.133 3.44531ZM315.064 11.8945H310.676V18.8262H315.297C318.25 18.8262 319.822 17.6367 319.822 15.3672V15.3398C319.822 13.0566 318.209 11.8945 315.064 11.8945ZM330.623 21.2734C326.535 21.2734 324.074 18.416 324.074 13.9453V13.9316C324.074 9.5293 326.59 6.50781 330.473 6.50781C334.355 6.50781 336.721 9.39258 336.721 13.6582V14.5332H326.48C326.535 17.459 328.148 19.168 330.678 19.168C332.482 19.168 333.754 18.2656 334.164 17.0488L334.205 16.9258H336.543L336.516 17.0625C336.051 19.4141 333.727 21.2734 330.623 21.2734ZM330.459 8.61328C328.395 8.61328 326.781 10.0215 326.521 12.6738H334.301C334.068 9.91211 332.537 8.61328 330.459 8.61328ZM339.25 21V1.27148H341.629V21H339.25ZM350.734 21.2734C346.783 21.2734 344.145 18.416 344.145 13.8906V13.8633C344.145 9.33789 346.797 6.50781 350.721 6.50781C354.645 6.50781 357.311 9.32422 357.311 13.8633V13.8906C357.311 18.4297 354.658 21.2734 350.734 21.2734ZM350.748 19.168C353.25 19.168 354.877 17.2266 354.877 13.8906V13.8633C354.877 10.5273 353.236 8.61328 350.721 8.61328C348.246 8.61328 346.578 10.541 346.578 13.8633V13.8906C346.578 17.2402 348.232 19.168 350.748 19.168ZM359.717 21V6.78125H362.096V8.80469H362.15C362.916 7.47852 364.365 6.50781 366.525 6.50781C369.643 6.50781 371.447 8.53125 371.447 11.7715V21H369.068V12.1953C369.068 9.88477 367.988 8.61328 365.801 8.61328C363.559 8.61328 362.096 10.2129 362.096 12.6328V21H359.717ZM380.498 26.0586C376.984 26.0586 374.77 24.4043 374.305 22.2988L374.277 22.1758H376.67L376.725 22.2988C377.176 23.3242 378.529 23.9531 380.471 23.9531C382.973 23.9531 384.395 22.5723 384.395 20.3711V18.5527H384.34C383.492 20.125 381.852 21.1367 379.814 21.1367C376.232 21.1367 373.785 18.252 373.785 13.8086V13.7949C373.785 9.37891 376.26 6.50781 379.869 6.50781C381.879 6.50781 383.465 7.60156 384.34 9.1875H384.395V6.78125H386.773V20.6035C386.773 23.8984 384.354 26.0586 380.498 26.0586ZM380.334 19.0312C382.754 19.0312 384.395 16.9668 384.395 13.8086V13.7949C384.395 10.6641 382.74 8.61328 380.334 8.61328C377.805 8.61328 376.219 10.6367 376.219 13.7949V13.8086C376.219 17.0352 377.805 19.0312 380.334 19.0312ZM391.189 4.375C390.369 4.375 389.699 3.70508 389.699 2.88477C389.699 2.05078 390.369 1.39453 391.189 1.39453C392.023 1.39453 392.68 2.05078 392.68 2.88477C392.68 3.70508 392.023 4.375 391.189 4.375ZM390 21V6.78125H392.379V21H390ZM395.619 21V6.78125H397.998V8.80469H398.053C398.818 7.47852 400.268 6.50781 402.428 6.50781C405.545 6.50781 407.35 8.53125 407.35 11.7715V21H404.971V12.1953C404.971 9.88477 403.891 8.61328 401.703 8.61328C399.461 8.61328 397.998 10.2129 397.998 12.6328V21H395.619ZM416.4 26.0586C412.887 26.0586 410.672 24.4043 410.207 22.2988L410.18 22.1758H412.572L412.627 22.2988C413.078 23.3242 414.432 23.9531 416.373 23.9531C418.875 23.9531 420.297 22.5723 420.297 20.3711V18.5527H420.242C419.395 20.125 417.754 21.1367 415.717 21.1367C412.135 21.1367 409.688 18.252 409.688 13.8086V13.7949C409.688 9.37891 412.162 6.50781 415.771 6.50781C417.781 6.50781 419.367 7.60156 420.242 9.1875H420.297V6.78125H422.676V20.6035C422.676 23.8984 420.256 26.0586 416.4 26.0586ZM416.236 19.0312C418.656 19.0312 420.297 16.9668 420.297 13.8086V13.7949C420.297 10.6641 418.643 8.61328 416.236 8.61328C413.707 8.61328 412.121 10.6367 412.121 13.7949V13.8086C412.121 17.0352 413.707 19.0312 416.236 19.0312ZM436.854 21V3.48633H430.633V1.27148H445.535V3.48633H439.314V21H436.854ZM447.887 21V1.27148H450.266V9.05078H450.32C451.086 7.45117 452.631 6.50781 454.75 6.50781C457.771 6.50781 459.836 8.8457 459.836 12.291V21H457.457V12.7012C457.457 10.1309 456.145 8.61328 453.93 8.61328C451.729 8.61328 450.266 10.2812 450.266 12.7012V21H447.887ZM467.014 21.2734C464.184 21.2734 462.283 19.5645 462.283 16.9805V16.9531C462.283 14.5332 464.17 13.0156 467.438 12.8242L471.512 12.5918V11.4023C471.512 9.66602 470.377 8.61328 468.395 8.61328C466.562 8.61328 465.414 9.48828 465.141 10.7598L465.113 10.8828H462.816L462.83 10.7324C463.035 8.39453 465.072 6.50781 468.422 6.50781C471.785 6.50781 473.891 8.32617 473.891 11.1699V21H471.512V18.6895H471.457C470.623 20.248 468.914 21.2734 467.014 21.2734ZM464.717 16.9805C464.717 18.3477 465.838 19.209 467.547 19.209C469.789 19.209 471.512 17.6641 471.512 15.5996V14.4375L467.711 14.6699C465.811 14.7793 464.717 15.627 464.717 16.9531V16.9805ZM481.533 21.2734C478.922 21.2734 477.637 20.0977 477.637 17.377V8.75H475.559V6.78125H477.637V2.93945H480.098V6.78125H482.805V8.75H480.098V17.3633C480.098 18.8809 480.768 19.3047 482.039 19.3047C482.326 19.3047 482.6 19.2637 482.805 19.25V21.1777C482.504 21.2188 481.998 21.2734 481.533 21.2734ZM491.473 21V1.27148H493.934V21H491.473ZM497.393 21V6.78125H499.771V8.85938H499.826C500.469 7.45117 501.891 6.50781 503.723 6.50781C505.664 6.50781 507.1 7.50586 507.715 9.24219H507.77C508.562 7.5332 510.23 6.50781 512.227 6.50781C515.043 6.50781 516.861 8.35352 516.861 11.1836V21H514.482V11.7305C514.482 9.77539 513.402 8.61328 511.529 8.61328C509.643 8.61328 508.316 10.0215 508.316 11.9629V21H505.938V11.4707C505.938 9.74805 504.789 8.61328 503.025 8.61328C501.139 8.61328 499.771 10.1035 499.771 12.0859V21H497.393ZM519.896 25.7852V6.78125H522.275V9.1875H522.33C523.219 7.5332 524.805 6.50781 526.842 6.50781C530.479 6.50781 532.885 9.40625 532.885 13.8906V13.9043C532.885 18.3887 530.451 21.2734 526.883 21.2734C524.873 21.2734 523.219 20.2617 522.33 18.6211H522.275V25.7852H519.896ZM526.377 19.168C528.893 19.168 530.451 17.1445 530.451 13.9043V13.8906C530.451 10.623 528.893 8.61328 526.377 8.61328C523.971 8.61328 522.262 10.7051 522.262 13.8906V13.9043C522.262 17.0762 523.984 19.168 526.377 19.168ZM535.291 21V6.78125H537.67V9.1875H537.725C538.203 7.54688 539.434 6.50781 541.033 6.50781C541.443 6.50781 541.799 6.57617 541.99 6.60352V8.91406C541.799 8.8457 541.293 8.77734 540.719 8.77734C538.873 8.77734 537.67 10.0625 537.67 12.2227V21H535.291ZM549.141 21.2734C545.189 21.2734 542.551 18.416 542.551 13.8906V13.8633C542.551 9.33789 545.203 6.50781 549.127 6.50781C553.051 6.50781 555.717 9.32422 555.717 13.8633V13.8906C555.717 18.4297 553.064 21.2734 549.141 21.2734ZM549.154 19.168C551.656 19.168 553.283 17.2266 553.283 13.8906V13.8633C553.283 10.5273 551.643 8.61328 549.127 8.61328C546.652 8.61328 544.984 10.541 544.984 13.8633V13.8906C544.984 17.2402 546.639 19.168 549.154 19.168ZM561.582 21L556.346 6.78125H558.848L562.771 18.4707H562.826L566.764 6.78125H569.238L564.016 21H561.582ZM576.416 21.2734C572.328 21.2734 569.867 18.416 569.867 13.9453V13.9316C569.867 9.5293 572.383 6.50781 576.266 6.50781C580.148 6.50781 582.514 9.39258 582.514 13.6582V14.5332H572.273C572.328 17.459 573.941 19.168 576.471 19.168C578.275 19.168 579.547 18.2656 579.957 17.0488L579.998 16.9258H582.336L582.309 17.0625C581.844 19.4141 579.52 21.2734 576.416 21.2734ZM576.252 8.61328C574.188 8.61328 572.574 10.0215 572.314 12.6738H580.094C579.861 9.91211 578.33 8.61328 576.252 8.61328ZM589.965 21.2734C586.615 21.2734 584.592 19.5645 584.305 17.0215L584.291 16.8984H586.67L586.697 17.0352C586.984 18.457 588.037 19.291 589.979 19.291C591.906 19.291 593.055 18.4844 593.055 17.1992V17.1855C593.055 16.1602 592.521 15.5859 590.908 15.1895L588.652 14.6426C585.973 14 584.674 12.7559 584.674 10.7051V10.6914C584.674 8.24414 586.82 6.50781 589.896 6.50781C593.014 6.50781 594.996 8.32617 595.174 10.7051L595.188 10.8828H592.918L592.904 10.7871C592.713 9.40625 591.66 8.49023 589.896 8.49023C588.174 8.49023 587.107 9.32422 587.107 10.582V10.5957C587.107 11.5664 587.75 12.2363 589.322 12.6191L591.578 13.166C594.449 13.8633 595.488 14.998 595.488 17.0215V17.0352C595.488 19.5234 593.137 21.2734 589.965 21.2734Z" fill="white"/>
<path d="M19.0215 104V83.998L0.392578 50.4512H12.4902L24.5137 73.3105H24.7734L36.7598 50.4512H48.8945L30.2285 83.998V104H19.0215ZM63.5156 104.816C51.418 104.816 43.8105 97.0605 43.8105 84.1094V84.0352C43.8105 71.2324 51.6035 63.4023 63.4785 63.4023C75.3906 63.4023 83.2207 71.1582 83.2207 84.0352V84.1094C83.2207 97.0977 75.5391 104.816 63.5156 104.816ZM63.5527 96.3184C68.8223 96.3184 72.1992 91.8652 72.1992 84.1094V84.0352C72.1992 76.3535 68.748 71.9004 63.4785 71.9004C58.2461 71.9004 54.832 76.3535 54.832 84.0352V84.1094C54.832 91.9023 58.209 96.3184 63.5527 96.3184ZM102.369 104.816C93.6113 104.816 88.6387 99.2129 88.6387 89.8984V64.2188H99.4746V87.6348C99.4746 92.8301 101.924 95.8359 106.785 95.8359C111.646 95.8359 114.727 92.2734 114.727 87.0781V64.2188H125.562V104H114.727V97.4316H114.504C112.463 101.996 108.381 104.816 102.369 104.816ZM132.613 104V64.2188H143.449V71.1582H143.672C144.859 66.2598 148.088 63.4023 152.727 63.4023C153.914 63.4023 155.027 63.5879 155.844 63.8105V73.3477C154.953 72.9766 153.469 72.7539 151.91 72.7539C146.566 72.7539 143.449 75.9453 143.449 81.7344V104H132.613ZM176.291 104V50.4512H199.596C209.689 50.4512 216.035 55.6465 216.035 63.8848V63.959C216.035 69.8223 211.582 74.832 205.682 75.6113V75.834C213.141 76.3906 218.521 81.6602 218.521 88.6738V88.748C218.521 98.1367 211.434 104 200.004 104H176.291ZM196.701 58.7637H187.498V72.8281H195.328C201.637 72.8281 205.014 70.1934 205.014 65.5547V65.4805C205.014 61.2129 201.934 58.7637 196.701 58.7637ZM196.664 80.4355H187.498V95.6504H197.146C203.566 95.6504 207.092 93.0156 207.092 88.043V87.9688C207.092 83.0703 203.529 80.4355 196.664 80.4355ZM242.234 104.816C230.137 104.816 222.529 97.0605 222.529 84.1094V84.0352C222.529 71.2324 230.322 63.4023 242.197 63.4023C254.109 63.4023 261.939 71.1582 261.939 84.0352V84.1094C261.939 97.0977 254.258 104.816 242.234 104.816ZM242.271 96.3184C247.541 96.3184 250.918 91.8652 250.918 84.1094V84.0352C250.918 76.3535 247.467 71.9004 242.197 71.9004C236.965 71.9004 233.551 76.3535 233.551 84.0352V84.1094C233.551 91.9023 236.928 96.3184 242.271 96.3184ZM283.352 104.816C274.52 104.816 270.363 101.402 270.363 92.8672V72.3828H264.834V64.2188H270.363V54.4961H281.311V64.2188H288.584V72.3828H281.311V91.6797C281.311 95.3906 282.98 96.6523 286.246 96.6523C287.211 96.6523 287.916 96.541 288.584 96.4668V104.408C287.359 104.594 285.615 104.816 283.352 104.816ZM310.367 104.816C301.535 104.816 297.379 101.402 297.379 92.8672V72.3828H291.85V64.2188H297.379V54.4961H308.326V64.2188H315.6V72.3828H308.326V91.6797C308.326 95.3906 309.996 96.6523 313.262 96.6523C314.227 96.6523 314.932 96.541 315.6 96.4668V104.408C314.375 104.594 312.631 104.816 310.367 104.816ZM339.238 104.816C327.141 104.816 319.533 97.0605 319.533 84.1094V84.0352C319.533 71.2324 327.326 63.4023 339.201 63.4023C351.113 63.4023 358.943 71.1582 358.943 84.0352V84.1094C358.943 97.0977 351.262 104.816 339.238 104.816ZM339.275 96.3184C344.545 96.3184 347.922 91.8652 347.922 84.1094V84.0352C347.922 76.3535 344.471 71.9004 339.201 71.9004C333.969 71.9004 330.555 76.3535 330.555 84.0352V84.1094C330.555 91.9023 333.932 96.3184 339.275 96.3184ZM364.547 104V64.2188H375.383V70.8984H375.605C377.238 66.3711 381.395 63.4023 386.738 63.4023C392.305 63.4023 396.35 66.3711 397.686 71.6035H397.908C399.689 66.5938 404.439 63.4023 410.266 63.4023C418.059 63.4023 423.291 68.7832 423.291 76.7988V104H412.455V79.5078C412.455 74.9062 410.154 72.3828 405.961 72.3828C401.842 72.3828 399.133 75.3887 399.133 79.8047V104H388.705V79.1738C388.705 74.9062 386.293 72.3828 382.285 72.3828C378.166 72.3828 375.383 75.5 375.383 79.9902V104H364.547ZM446.15 104V50.4512H457.357V94.7598H480.773V104H446.15ZM492.129 59.0977C488.863 59.0977 486.34 56.5371 486.34 53.457C486.34 50.377 488.863 47.8164 492.129 47.8164C495.395 47.8164 497.918 50.377 497.918 53.457C497.918 56.5371 495.395 59.0977 492.129 59.0977ZM486.711 104V64.2188H497.547V104H486.711ZM504.82 104V64.2188H515.656V70.75H515.879C517.92 66.1855 522.002 63.4023 528.014 63.4023C536.771 63.4023 541.744 69.0059 541.744 78.3203V104H530.908V80.5469C530.908 75.3516 528.459 72.3828 523.598 72.3828C518.736 72.3828 515.656 75.9453 515.656 81.1406V104H504.82ZM566.719 104.816C554.547 104.816 547.162 96.9121 547.162 84.1836V84.1465C547.162 71.4922 554.621 63.4023 566.273 63.4023C577.926 63.4023 585.236 71.3066 585.236 83.3301V86.6699H557.85C557.961 93.0156 561.412 96.7266 566.941 96.7266C571.395 96.7266 574.104 94.2773 574.883 92.0508L574.957 91.8281H584.902L584.791 92.2363C583.566 98.0996 578.074 104.816 566.719 104.816ZM566.459 71.4922C562.006 71.4922 558.666 74.4609 557.961 79.8418H574.846C574.178 74.3496 570.949 71.4922 566.459 71.4922ZM596.48 104.631C593.104 104.631 590.469 101.959 590.469 98.6191C590.469 95.2422 593.104 92.6074 596.48 92.6074C599.82 92.6074 602.492 95.2422 602.492 98.6191C602.492 101.959 599.82 104.631 596.48 104.631Z" fill="#24CB8D"/>
</svg>
